<svg width="548" height="480" viewBox="0 0 548 480" fill="none" xmlns="http://www.w3.org/2000/svg">
<path d="M335.351 372.325H335.182C322.968 372.347 311.262 377.218 302.637 385.867C294.012 394.515 289.174 406.234 289.185 418.448C289.196 430.663 294.056 442.373 302.697 451.006C311.338 459.638 323.052 464.488 335.266 464.488C347.481 464.488 359.195 459.638 367.836 451.006C376.477 442.373 381.336 430.663 381.348 418.448C381.359 406.234 376.52 394.515 367.895 385.867C359.271 377.218 347.565 372.347 335.351 372.325ZM153.406 75.9783C136.3 75.9783 116.419 80.1567 93.2802 90.7254C59.8043 105.985 37.9504 139.749 33.421 180.802C28.8915 221.855 41.7074 270.268 77.5781 314.636C135.204 385.942 201.061 434.467 290.983 435.717C288.161 428.505 287.138 420.714 288.003 413.018C288.868 405.322 291.594 397.952 295.947 391.547C300.299 385.141 306.146 379.891 312.982 376.252C319.818 372.613 327.438 370.694 335.182 370.661H335.358C347.995 370.665 360.114 375.686 369.05 384.623C377.986 393.559 383.008 405.677 383.012 418.315C383.012 419.628 382.956 420.927 382.85 422.213C497.204 388.315 550.869 304.98 534.296 242.494C529.942 226.041 520.715 218.857 507.913 216.764C495.111 214.671 478.693 217.881 460.483 222.754C424.072 232.487 380.547 248.829 343.511 241.315C306.474 233.801 282.76 206.202 265.288 177.495C256.545 163.155 249.361 148.548 242.851 136.02C236.341 123.492 230.449 113.064 224.523 107.137C212.444 95.0583 196.433 83.3097 175.064 78.394C167.959 76.7707 160.694 75.9603 153.406 75.9783ZM154.003 74.321C161.216 74.3478 168.403 75.1697 175.436 76.7718C197.205 81.7788 213.476 93.7451 225.695 105.964C231.924 112.193 237.774 122.713 244.298 135.262C250.822 147.811 257.991 162.375 266.678 176.631C284.052 205.135 307.443 232.319 343.82 239.692C380.196 247.066 423.517 230.921 460.083 221.146C478.342 216.266 494.922 212.958 508.208 215.128C521.494 217.298 531.452 225.163 535.933 242.073C552.85 305.872 498.089 390.022 382.759 423.954H382.703C381.476 434.368 376.849 444.087 369.538 451.604C362.227 459.121 352.641 464.017 342.265 465.533C331.889 467.049 321.303 465.101 312.147 459.989C302.991 454.878 295.777 446.889 291.622 437.262C291.579 437.313 291.53 437.358 291.474 437.395C200.702 436.314 134.172 387.318 76.2859 315.71C40.1414 271.033 27.1921 222.235 31.7707 180.648C36.3493 139.061 58.5121 104.742 92.592 89.2016C113.786 79.5317 132.353 75.1567 148.603 74.4544C150.436 74.3702 152.234 74.3421 154.003 74.3491V74.321ZM423.854 53.5697C420.382 53.5697 416.988 54.5994 414.101 56.5285C411.214 58.4575 408.963 61.1994 407.635 64.4074C406.306 67.6153 405.958 71.1453 406.636 74.5508C407.313 77.9564 408.985 81.0846 411.44 83.5398C413.896 85.9951 417.024 87.6672 420.429 88.3446C423.835 89.022 427.365 88.6743 430.573 87.3455C433.781 86.0167 436.523 83.7665 438.452 80.8795C440.381 77.9924 441.41 74.5981 441.41 71.1258C441.41 66.4696 439.561 62.0042 436.268 58.7118C432.976 55.4194 428.511 53.5697 423.854 53.5697ZM423.854 51.9054C427.653 51.9054 431.366 53.0318 434.525 55.1423C437.683 57.2527 440.145 60.2523 441.599 63.7618C443.052 67.2713 443.433 71.1331 442.692 74.8587C441.951 78.5844 440.121 82.0067 437.435 84.6927C434.749 87.3788 431.327 89.208 427.601 89.9491C423.876 90.6902 420.014 90.3098 416.504 88.8561C412.995 87.4025 409.995 84.9407 407.885 81.7822C405.775 78.6238 404.648 74.9104 404.648 71.1118C404.65 66.0185 406.674 61.1344 410.276 57.5329C413.877 53.9314 418.761 51.9073 423.854 51.9054Z" fill="#F4CCC7"/>
<path d="M66.8265 403.737C70.2988 403.737 73.6931 404.766 76.5802 406.696C79.4672 408.625 81.7175 411.367 83.0462 414.574C84.375 417.782 84.7227 421.312 84.0453 424.718C83.3679 428.123 81.6958 431.252 79.2406 433.707C76.7853 436.162 73.6571 437.834 70.2515 438.512C66.846 439.189 63.316 438.841 60.1081 437.513C56.9001 436.184 54.1583 433.934 52.2292 431.047C50.3001 428.159 49.2704 424.765 49.2704 421.293C49.2704 416.637 51.1201 412.171 54.4125 408.879C57.7049 405.586 62.1704 403.737 66.8265 403.737ZM66.8265 402.079C63.0279 402.079 59.3145 403.206 56.156 405.316C52.9976 407.427 50.5358 410.426 49.0822 413.936C47.6285 417.445 47.2481 421.307 47.9892 425.033C48.7303 428.758 50.5595 432.181 53.2456 434.867C55.9316 437.553 59.3539 439.382 63.0795 440.123C66.8052 440.864 70.667 440.484 74.1765 439.03C77.686 437.577 80.6856 435.115 82.796 431.956C84.9065 428.798 86.0329 425.085 86.0329 421.286C86.0292 416.193 84.0045 411.31 80.4034 407.709C76.8023 404.108 71.9192 402.083 66.8265 402.079Z" fill="#F4CCC7"/>
<path d="M363.777 48.0784C359.564 49.202 342.338 51.4141 341.579 48.584C340.821 45.754 356.853 39.0616 361.067 37.931C365.28 36.8004 368.925 36.7442 370.055 40.9577C371.186 45.1711 367.998 46.9478 363.784 48.0784H363.777Z" fill="#F48032"/>
<path d="M339.206 10.5293C336.727 14.1178 325.049 26.9689 322.64 25.3116C320.231 23.6543 328.061 8.16278 330.561 4.5392C333.061 0.915623 335.772 -1.46498 339.367 1.02798C342.963 3.52095 341.685 6.9198 339.206 10.5153V10.5293Z" fill="#F48032"/>
<path d="M366.685 90.6976C362.556 89.2931 347.022 81.5122 347.977 78.7594C348.932 76.0066 365.954 79.3563 370.084 80.7749C374.213 82.1934 377.218 84.1527 375.814 88.2889C374.409 92.4251 370.765 92.1091 366.636 90.6976H366.685Z" fill="#F48032"/>
<path d="M337.429 170.451H528.503C530.954 170.445 533.383 170.923 535.649 171.858C537.916 172.793 539.975 174.166 541.708 175.899C543.442 177.633 544.817 179.691 545.752 181.957C546.688 184.223 547.167 186.651 547.162 189.103V346.995C547.166 349.447 546.687 351.875 545.751 354.14C544.814 356.406 543.44 358.464 541.706 360.197C539.973 361.93 537.914 363.303 535.648 364.239C533.382 365.174 530.954 365.653 528.503 365.647H337.429C334.979 365.652 332.552 365.172 330.287 364.237C328.023 363.301 325.965 361.927 324.233 360.194C322.501 358.461 321.128 356.403 320.193 354.138C319.258 351.873 318.779 349.446 318.785 346.995V189.103C318.778 186.652 319.256 184.225 320.191 181.959C321.125 179.694 322.498 177.635 324.231 175.902C325.963 174.169 328.021 172.795 330.286 171.86C332.551 170.924 334.979 170.446 337.429 170.451Z" fill="black"/>
<path d="M248.891 445.766C249.425 445.767 249.951 445.892 250.428 446.131C253.729 447.789 254.782 455.078 253.272 465.794C256.559 462.241 259.494 460.366 261.763 460.373C262.376 460.366 262.98 460.524 263.511 460.829C266.587 462.62 267.282 469.502 265.393 479.558H226.025C232.985 460.176 242.753 445.745 248.891 445.766Z" fill="#43AD67"/>
<path d="M209.909 412.543C216.39 412.641 225.765 429.621 231.173 451.026C233.834 461.559 235.168 471.84 234.88 479.593H185.569C182.985 473.722 182.521 469.424 184.249 467.395C184.671 466.944 185.19 466.593 185.766 466.37C186.342 466.146 186.961 466.055 187.577 466.103C189.817 466.103 192.823 467.142 196.39 469.129C187.563 454.179 184.649 442.234 189.235 439.755C189.867 439.432 190.569 439.273 191.278 439.291C194.789 439.291 200.232 442.472 206.503 448.189C202.36 428.427 203.624 413.245 209.424 412.543C209.585 412.532 209.747 412.532 209.909 412.543Z" fill="#56BB6A"/>
<path d="M206.503 448.154C206.503 448.154 210.471 453.217 212.177 458.554L213.884 463.891C213.822 459.115 213.149 454.367 211.882 449.762C210.741 445.542 208.305 441.786 204.916 439.024C204.916 439.024 206.011 446.447 206.503 448.154Z" fill="black"/>
<path d="M278.658 97.6357C282.528 100.964 284.361 114.869 283.483 118.043C282.577 121.336 272.184 128.998 267.626 132.516C267.268 132.214 263.567 140.746 256.664 153.148L243.034 139.897L259.691 121.905C259.691 121.905 260.849 114.588 261.51 111.182C262.17 107.776 262.135 100.88 262.254 98.3942C262.373 95.9082 265.533 96.9897 266.545 100.199C267.081 101.961 267.745 103.681 268.532 105.346C268.532 105.346 273.111 99.8338 274.15 98.6189C275.863 96.5894 277.373 96.5121 278.665 97.6357H278.658Z" fill="#F9B098"/>
<path d="M168.926 128.703C168.926 128.541 168.877 128.373 168.863 128.204C167.079 111.905 187.823 101.681 201.777 119.181C209.593 129.012 227.058 157.193 227.058 157.193L239.958 143.253C239.761 144.468 239.958 146.098 240.969 148.289C243.181 153.113 247.289 158.492 251.152 161.428C247.844 166.273 244.586 170.873 241.812 174.482C239.15 177.93 232.851 185.845 222.76 179.187C219.951 177.326 214.487 172.607 209.951 168.731L173.055 136.063C170.919 134.125 169.478 131.539 168.954 128.703H168.926Z" fill="#EF9F34"/>
<path d="M243.034 139.897L256.671 153.155C256.671 153.155 261.158 163.078 256.566 163.611C251.973 164.145 244.284 155.585 240.983 148.289C237.682 140.992 243.09 139.904 243.09 139.904L243.034 139.897Z" fill="white"/>
<path d="M227.03 157.193L223.968 165.198C223.968 165.198 223.546 165.943 222.697 164.602C221.847 163.26 223.273 151.189 223.273 151.189L227.03 157.193Z" fill="black"/>
<path d="M243.034 139.897L259.34 148.38L256.664 153.148L243.034 139.897Z" fill="black"/>
<path d="M259.691 121.905L262.542 127.249C262.542 127.249 262.542 128.008 261.138 127.467C259.733 126.926 255.983 125.992 255.983 125.992L259.677 121.905H259.691Z" fill="black"/>
<path d="M268.532 105.346C268.532 105.346 269.494 110.585 268.111 113.541C266.727 116.498 268.392 124.616 270.843 125.831C273.293 127.046 274.431 126.245 274.473 125.88C274.515 125.515 271.032 119.166 271.355 115.346C271.72 112.132 272.383 108.958 273.336 105.866C273.806 104.23 268.532 105.325 268.532 105.325V105.346Z" fill="black"/>
<path d="M88.5471 123.801C89.0246 123.008 89.4881 122.277 89.9094 121.617C102.079 102.839 123.744 111.013 123.554 127.404C123.554 127.572 123.554 127.741 123.554 127.909C123.311 130.785 122.126 133.5 120.183 135.634C120.183 135.634 70.0148 203.85 66.6371 208.667C62.5359 206.083 56.0613 204.117 50.7664 203.752C48.3577 203.583 46.7636 203.962 45.6962 204.566L54.1863 187.579C54.1863 187.579 83.526 132.102 88.54 123.801H88.5471Z" fill="#EF9F34"/>
<path d="M0.766625 257.347C0.759432 257.272 0.759432 257.197 0.766625 257.122C0.771501 256.649 0.963373 256.197 1.30033 255.865C2.65566 254.552 8.56855 248.632 9.54467 247.797C10.5208 246.961 16.3705 238.759 16.3705 238.759C16.3705 238.759 14.3621 238.576 11.6654 238.232C8.96883 237.888 6.37053 234.833 8.32979 234.384C10.289 233.934 17.7539 233.281 20.3662 232.277C22.9786 231.273 30.7103 229.468 30.7103 229.468L43.6526 208.639L60.043 218.26C50.8085 228.794 40.64 236.792 40.2187 237.256C38.2032 241.125 33.6527 249.496 31.0895 251.49C29.685 255.065 28.105 259.657 27.171 261.539C25.4575 265.002 23.6949 265.374 22.7609 264.693C22.5159 264.502 22.3268 264.248 22.2131 263.959C22.0995 263.67 22.0655 263.356 22.1148 263.049C22.2202 262.347 22.6134 260.016 23.0488 257.431C21.7918 259.833 20.5769 262.143 19.8115 263.295C17.7047 266.518 15.8859 266.673 15.0503 265.879C14.8288 265.662 14.6707 265.388 14.5928 265.087C14.5148 264.787 14.5201 264.471 14.6078 264.173C14.8115 263.471 15.5278 261.062 16.3143 258.45C14.1022 260.556 11.8831 262.663 10.6472 263.576C7.57839 265.914 5.8298 265.472 5.30312 264.447C5.16414 264.169 5.10438 263.858 5.1304 263.548C5.15641 263.239 5.2672 262.942 5.45059 262.691C6.03346 261.848 8.4913 258.478 10.7736 255.311C9.16545 256.195 7.53625 257.101 6.3003 257.719C2.84526 259.447 1.21606 258.688 0.886005 257.579C0.853288 257.51 0.831945 257.437 0.822806 257.361L0.766625 257.347Z" fill="#F9B098"/>
<path d="M33.4772 241.146C34.657 238.948 29.3129 239.959 25.9702 240.626C22.6275 241.294 16.3565 238.787 16.3565 238.787C15.6543 247.621 28.5545 250.331 33.4772 241.146Z" fill="black"/>
<path d="M16.2651 258.464L20.6681 252.846C20.6681 252.846 20.4785 257.305 16.2651 258.464Z" fill="black"/>
<path d="M22.9857 257.445L24.032 252.958C24.032 252.958 25.8789 254.917 22.9857 257.445Z" fill="black"/>
<path d="M10.7103 255.318L15.0783 250.711C15.0783 250.711 17.185 253.611 10.7103 255.318Z" fill="black"/>
<path d="M33.1753 225.402L30.6963 229.475L38.0348 233.091C38.0348 233.091 39.3761 233.794 39.0249 232.256C38.737 230.992 35.6331 226.898 33.1542 225.402H33.1753Z" fill="black"/>
<path d="M43.6245 208.639L56.623 222.017L60.0148 218.267L43.6245 208.639Z" fill="black"/>
<path d="M43.6526 208.639L60.043 218.267C60.043 218.267 71.7213 217.466 70.5766 212.979C69.432 208.492 58.7508 204.292 50.7453 203.738C42.7397 203.183 43.6245 208.653 43.6245 208.653L43.6526 208.639Z" fill="white"/>
<path d="M175.323 401.475L173.076 456.18H158.119C158.119 456.18 152.107 415.935 152.093 401.475C152.079 387.016 172.262 388.07 175.352 401.475H175.323Z" fill="#F9B098"/>
<path d="M162.023 391.026C165.101 390.984 168.1 391.998 170.52 393.899C172.941 395.801 174.636 398.475 175.323 401.475C175.323 401.475 163.807 407.318 152.304 407.402C152.156 405.162 152.072 403.147 152.065 401.475C152.065 394.453 156.791 391.11 162.023 391.026Z" fill="black"/>
<path d="M174.108 428.828L173.076 456.173H158.118C158.118 456.173 156.391 443.132 154.783 428.828H174.108Z" fill="#EF9F34"/>
<path d="M90.1062 402.079L67.3535 456.377H52.3606C52.3606 456.377 61.1527 416.538 66.8268 402.079C72.5009 387.62 92.2831 388.673 90.0781 402.079H90.1062Z" fill="#F9B098"/>
<path d="M80.9418 391.63C86.5597 391.539 91.2437 395.141 90.106 402.079C90.106 402.079 76.2859 407.915 64.748 407.999C65.4854 405.766 66.1946 403.786 66.8547 402.079C69.6146 395.057 75.6749 391.714 80.9418 391.63Z" fill="black"/>
<path d="M78.7649 429.024L67.3324 456.377H52.3606C52.3606 456.377 54.8886 443.336 58.9336 429.024H78.7649Z" fill="#EF9F34"/>
<path d="M112.676 204.11C104.397 209.629 83.7437 231.287 87.592 278.246C85.7451 302.965 81.1313 325.668 80.5063 329.811C69.7129 360.204 67.7396 378.041 67.1637 388.933C58.8702 397.585 65.9769 402.276 66.8828 402.079H90.1341C92.5358 402.079 100.801 398.182 95.6889 389.509C101.117 376.693 110.078 361.419 115.885 348.898C120.099 339.769 122.648 324.959 122.648 324.959L132.922 282.628L139.656 330.514C141.51 361.138 145.913 381.265 148.996 392.157C143.624 400.808 151.475 402.311 152.304 402.093H175.555C176.096 402.185 181.103 398.744 176.475 391.454C178.083 372.564 181.187 334.573 180.738 328.252C179.937 317.016 171.37 204.152 171.37 204.152L112.676 204.11Z" fill="#8A4299"/>
<path d="M141.265 286.012L139.628 286.3L139.776 287.122C139.776 287.122 143.561 308.189 147.458 329.699C149.404 340.443 151.377 351.286 152.929 359.65C153.701 363.863 154.368 367.374 154.867 370.001C155.366 372.627 155.675 374.214 155.836 374.755C155.992 375.471 156.105 376.195 156.173 376.925C156.3 378.006 156.426 379.39 156.552 380.963C156.812 384.109 157.072 388.02 157.297 391.827C157.522 395.633 157.725 399.326 157.873 402.079H159.523C159.383 399.312 159.186 395.598 158.947 391.728C158.708 387.859 158.463 384.004 158.203 380.829C158.076 379.242 157.943 377.852 157.817 376.735C157.744 375.915 157.615 375.101 157.43 374.299C157.36 374.074 156.995 372.297 156.496 369.692C155.998 367.086 155.324 363.519 154.551 359.341C153.006 350.984 151.04 340.141 149.081 329.404C145.169 307.908 141.391 286.841 141.391 286.841L141.244 286.027L141.265 286.012ZM100.928 216.399C100.619 216.856 100.303 217.312 99.9938 217.804C103.794 219.412 107.737 220.661 111.77 221.532C110.521 222.997 109.023 224.231 107.346 225.177C104.537 226.827 100.324 228.253 94.5233 227.986C94.2986 228.513 94.0668 229.061 93.8211 229.608C96.1427 229.756 98.4736 229.631 100.766 229.236L87.4236 275.802C87.4728 276.595 87.529 277.396 87.5992 278.204L87.4938 279.475L88.3365 278.639L102.606 228.836C104.552 228.346 106.422 227.59 108.161 226.589C110.261 225.413 112.093 223.813 113.54 221.891C117.331 222.654 121.162 223.203 125.015 223.534C141.798 225.016 159.972 222.354 172.564 219.77C172.564 219.384 172.465 218.443 172.437 218.091C159.923 220.662 141.784 223.351 125.162 221.884C114.249 220.914 106.426 218.716 100.914 216.357L100.928 216.399Z" fill="#A96EAE"/>
<path d="M142.732 246.027C142.732 246.027 146.833 247.831 146.833 254.65C146.833 261.469 146.229 299.552 141.419 309.769C140.014 312.81 138.757 315.085 137.732 316.792L132.922 282.627L142.753 246.041L142.732 246.027Z" fill="black"/>
<path d="M157.1 448.469C162.332 450.485 170.443 452.346 173.196 452.943L173.076 456.173H158.118C158.118 456.173 157.711 453.097 157.128 448.448L157.1 448.469Z" fill="black"/>
<path d="M154.839 462.346C158.182 461.965 161.496 461.367 164.761 460.555C169.2 459.368 167.9 452.493 167.9 452.493C152.872 450.752 154.839 454.684 154.839 462.325V462.346Z" fill="white"/>
<path d="M152.142 479.558C148.813 473.786 150.309 468.8 154.839 462.346C163.336 461.567 166.552 460.036 167.9 452.515H171.679C171.679 452.515 176.721 447.901 179.347 455.913C181.973 463.926 200.913 465.345 208.258 469.523C216.573 474.242 216.559 479.579 210.316 479.579L152.142 479.558Z" fill="#8A4299"/>
<path d="M151.89 467.276C154.051 468.523 156.047 470.038 157.83 471.784C161.054 475.007 167.114 474.474 167.114 474.474H214.045C215.78 477.325 214.354 479.558 210.316 479.558H152.142C149.706 475.344 149.86 471.531 151.89 467.276Z" fill="black"/>
<path d="M176.208 457.016C174.681 457.04 173.211 457.607 172.065 458.617C170.924 459.561 170.151 460.876 169.881 462.332C169.751 463.093 169.794 463.873 170.006 464.614C170.219 465.356 170.596 466.04 171.11 466.616C171.505 467.155 172.053 467.564 172.683 467.788C173.162 467.923 173.673 467.888 174.13 467.69C175.429 467.009 176.531 466.005 177.332 464.776C178.621 462.964 179.696 461.008 180.534 458.947C179.373 457.806 177.834 457.129 176.208 457.044V457.016ZM187.093 453.554C187.657 453.553 188.219 453.638 188.757 453.807C189.484 454.03 190.146 454.425 190.687 454.959C191.227 455.494 191.63 456.151 191.861 456.876C192.318 458.35 191.707 461.728 190.695 463.828C190.216 463.682 189.758 463.474 189.333 463.21C190.26 461.258 190.738 458.357 190.429 457.325C190.263 456.835 189.987 456.391 189.622 456.025C189.256 455.66 188.812 455.384 188.322 455.218C184.628 453.68 182.24 458.919 182.226 458.961C181.248 461.306 180.019 463.538 178.561 465.619C177.465 467.1 176.208 468.427 174.698 469.038C173.931 469.352 173.081 469.401 172.283 469.179C171.368 468.87 170.566 468.295 169.979 467.529C169.339 466.787 168.868 465.914 168.6 464.972C168.332 464.03 168.273 463.04 168.427 462.072C168.77 460.241 169.742 458.586 171.176 457.396C172.61 456.206 174.415 455.555 176.278 455.555C178.102 455.595 179.858 456.254 181.257 457.423C181.737 456.385 182.474 455.486 183.398 454.811C184.322 454.136 185.403 453.709 186.538 453.568C186.735 453.568 186.924 453.568 187.114 453.533L187.093 453.554Z" fill="#A86DAE"/>
<path d="M188.434 459.635C188.535 459.641 188.633 459.666 188.723 459.71C188.813 459.755 188.894 459.817 188.959 459.893C189.025 459.969 189.074 460.057 189.105 460.153C189.135 460.249 189.146 460.35 189.136 460.45C189.127 460.547 189.098 460.642 189.052 460.728C189.006 460.814 188.943 460.89 188.867 460.952C188.792 461.014 188.705 461.061 188.611 461.089C188.517 461.117 188.419 461.127 188.322 461.117C188.064 461.087 187.803 461.111 187.555 461.187C187.308 461.263 187.078 461.39 186.882 461.56C186.656 461.782 186.482 462.052 186.37 462.349C186.259 462.646 186.213 462.964 186.236 463.28C186.236 463.479 186.157 463.67 186.016 463.811C185.875 463.952 185.684 464.031 185.485 464.031C185.285 464.031 185.094 463.952 184.953 463.811C184.813 463.67 184.733 463.479 184.733 463.28C184.717 462.758 184.811 462.238 185.008 461.754C185.205 461.27 185.501 460.833 185.878 460.471C186.228 460.162 186.639 459.929 187.083 459.788C187.528 459.646 187.998 459.599 188.462 459.649L188.434 459.635Z" fill="#A86DAE"/>
<path d="M193.378 462.472C193.479 462.477 193.578 462.502 193.668 462.545C193.759 462.589 193.84 462.651 193.906 462.728C193.972 462.804 194.021 462.893 194.051 462.989C194.081 463.085 194.091 463.187 194.08 463.287C194.073 463.387 194.047 463.484 194.002 463.573C193.957 463.663 193.895 463.742 193.819 463.808C193.743 463.873 193.656 463.922 193.561 463.954C193.466 463.985 193.365 463.997 193.266 463.989C193.009 463.956 192.747 463.977 192.499 464.053C192.251 464.128 192.022 464.254 191.826 464.425C191.6 464.648 191.426 464.917 191.314 465.214C191.203 465.511 191.157 465.829 191.18 466.145C191.18 466.344 191.101 466.536 190.96 466.676C190.819 466.817 190.628 466.897 190.429 466.897C190.229 466.897 190.038 466.817 189.897 466.676C189.757 466.536 189.677 466.344 189.677 466.145C189.662 465.623 189.757 465.104 189.954 464.62C190.151 464.136 190.446 463.699 190.822 463.336C191.172 463.028 191.583 462.796 192.028 462.655C192.473 462.515 192.943 462.469 193.406 462.522L193.378 462.472Z" fill="#A86DAE"/>
<path d="M57.6274 433.8C54.3549 446.103 52.3606 456.377 52.3606 456.377H67.3535L70.4223 449.059C65.8788 446.897 60.2678 438.231 57.6274 433.814V433.8Z" fill="black"/>
<path d="M47.5642 443.687C50.0842 445.292 52.7043 446.735 55.4082 448.006C59.1372 449.67 62.0866 444.2 62.0866 444.2C52.6906 434.586 51.8549 438.406 47.5642 443.687Z" fill="white"/>
<path d="M47.5712 443.687C53.8913 447.901 56.9391 448.645 62.0865 444.2L69.4882 450.197C69.4882 450.197 77.4446 447.487 74.7761 454.488C73.5542 457.69 75.0991 462.346 77.3533 467.128C80.0303 468.149 82.6469 469.321 85.1903 470.639C92.5709 474.853 92.5639 479.572 87.0162 479.572L67.9713 478.554L39.9799 456.574C40.9069 450.724 44.0389 445.043 47.5712 443.687Z" fill="#8A4299"/>
<path d="M68.1751 452.269C66.8855 451.502 65.3743 451.194 63.8875 451.396C62.4007 451.597 61.0259 452.296 59.9869 453.378C59.4774 453.951 59.1021 454.63 58.8883 455.367C58.6745 456.103 58.6276 456.877 58.751 457.634C58.7947 458.3 59.0396 458.936 59.4532 459.46C59.7803 459.837 60.2307 460.086 60.7243 460.162C62.1861 460.282 63.6542 460.023 64.9869 459.411C67.0473 458.57 69.0032 457.493 70.8155 456.201C70.4432 454.615 69.5043 453.219 68.1751 452.276V452.269ZM79.2214 455.176C79.699 455.474 80.1278 455.843 80.4924 456.272C80.9881 456.849 81.3365 457.537 81.5077 458.278C81.679 459.02 81.6679 459.791 81.4756 460.527C81.0753 462.016 78.7509 464.544 76.7776 465.78C76.4753 465.377 76.2601 464.915 76.1455 464.425C77.9714 463.28 79.741 461.187 80.0219 460.141C80.1364 459.636 80.1326 459.112 80.0108 458.608C79.889 458.105 79.6524 457.637 79.3197 457.241C77.0163 453.968 72.1989 457.114 72.1638 457.135C70.0858 458.599 67.8533 459.831 65.5065 460.808C63.786 461.475 61.9953 461.932 60.4083 461.623C59.5946 461.478 58.8528 461.065 58.3015 460.45C57.6955 459.699 57.3264 458.785 57.2411 457.824C57.097 456.854 57.1662 455.865 57.444 454.925C57.7217 453.985 58.2013 453.117 58.8493 452.381C60.0892 451.026 61.7682 450.153 63.5894 449.916C65.4642 449.649 67.3725 450.063 68.9686 451.082C70.4817 452.084 71.6104 453.569 72.1708 455.295C73.1337 454.676 74.2384 454.311 75.3809 454.237C76.5234 454.162 77.6662 454.379 78.7017 454.867C78.8739 454.95 79.0405 455.043 79.2003 455.148L79.2214 455.176Z" fill="#A86DAE"/>
<path d="M43.3717 447.521C44.4321 449.467 45.633 451.84 45.7945 453.448C45.8785 454.574 46.2374 455.663 46.8398 456.617C47.4422 457.572 48.2696 458.365 49.2495 458.926L69.123 475.078H90.3237C91.8687 477.606 90.6046 479.593 87.0162 479.593H71.5668C69.2003 479.593 67.248 479.214 65.7171 478.083L39.9799 456.573C40.4743 453.355 41.6291 450.273 43.3717 447.521Z" fill="black"/>
<path d="M77.3604 461.356C77.4375 461.416 77.502 461.491 77.5501 461.576C77.5981 461.662 77.629 461.756 77.6407 461.853C77.6524 461.95 77.6449 462.048 77.6185 462.143C77.5921 462.237 77.5473 462.325 77.4868 462.402C77.427 462.481 77.352 462.547 77.2664 462.596C77.1808 462.645 77.0862 462.677 76.9881 462.69C76.8901 462.702 76.7905 462.695 76.6953 462.668C76.6001 462.642 76.511 462.597 76.4335 462.536C76.2332 462.373 76.001 462.253 75.7519 462.186C75.5027 462.118 75.2421 462.103 74.9868 462.142C74.6749 462.203 74.3808 462.334 74.1266 462.525C73.8724 462.716 73.6648 462.962 73.5192 463.245C73.4717 463.338 73.4053 463.42 73.3242 463.486C73.2431 463.552 73.1491 463.601 73.0483 463.629C72.9474 463.656 72.8419 463.662 72.7384 463.647C72.635 463.632 72.5359 463.595 72.4475 463.539C72.3592 463.483 72.2835 463.409 72.2252 463.322C72.167 463.235 72.1276 463.137 72.1095 463.034C72.0914 462.931 72.095 462.825 72.1201 462.724C72.1451 462.622 72.1911 462.527 72.2551 462.444C72.5197 461.989 72.8772 461.595 73.3044 461.288C73.7315 460.981 74.2187 460.767 74.734 460.661C75.1966 460.588 75.6691 460.614 76.1213 460.734C76.5736 460.855 76.9956 461.069 77.3604 461.363V461.356Z" fill="#A86DAE"/>
<path d="M80.6678 465.738C80.8239 465.861 80.9249 466.041 80.9486 466.238C80.9723 466.436 80.9168 466.635 80.7942 466.791C80.7344 466.869 80.6598 466.934 80.5748 466.983C80.4897 467.031 80.3959 467.063 80.2987 467.075C80.2015 467.088 80.1028 467.081 80.0083 467.055C79.9137 467.029 79.8252 466.985 79.7478 466.925C79.548 466.761 79.3159 466.641 79.0666 466.573C78.8173 466.506 78.5564 466.491 78.3012 466.531C77.9897 466.596 77.6964 466.729 77.4426 466.921C77.1888 467.113 76.9808 467.359 76.8335 467.641C76.7243 467.807 76.5542 467.924 76.3598 467.966C76.1654 468.008 75.9623 467.972 75.7942 467.866C75.6273 467.759 75.5093 467.59 75.4659 467.397C75.4224 467.204 75.4572 467.001 75.5625 466.833C75.8284 466.38 76.1864 465.986 76.6133 465.679C77.0402 465.372 77.5266 465.158 78.0414 465.05C78.5039 464.979 78.9761 465.005 79.4282 465.125C79.8802 465.246 80.3023 465.46 80.6678 465.752V465.738Z" fill="#A86DAE"/>
<path d="M148.989 392.178H154.319C154.319 392.178 155.351 391.3 152.711 389.369C150.071 387.438 146.18 381.117 146.18 381.117L148.989 392.178Z" fill="black"/>
<path d="M95.6608 389.509H83.0696C83.0696 389.509 82.4797 387.522 86.623 386.483C90.7662 385.443 101.63 376.728 101.63 376.728L95.6608 389.481V389.509Z" fill="black"/>
<path d="M176.054 38.1907C176.054 38.1907 174.649 53.7945 179.565 62.9939C199.705 100.487 162.128 93.3238 162.128 93.3238C162.128 93.3238 165.815 40.4589 176.019 38.1907H176.054Z" fill="#C84F49"/>
<path d="M168.982 200.177C169.277 200.177 176.201 210.999 171.292 211.68C143.849 215.479 130.211 216.54 103.399 211.68C98.8208 210.845 109.291 198.541 109.586 198.548L168.982 200.177Z" fill="white"/>
<path d="M141.117 98.5065L96.7002 114.792C96.7002 114.792 114.151 162.607 112.494 184.939C110.204 196.175 103.126 201.175 107.578 204.089C133.062 207.256 143.111 209.356 171.37 204.089C176.953 190.859 174.291 189.658 175.583 180.992C175.583 180.992 191.636 119.195 192.542 114.792C187.879 111.744 166.559 99.279 166.559 99.279L141.124 98.4855L141.117 98.5065Z" fill="#F48032"/>
<path d="M141.117 98.5065L166.545 99.3C166.545 99.3 174.565 103.991 181.889 108.345C172.268 123.661 163.441 130.817 159.108 131.449C154.776 132.081 132.086 121.533 120.682 106.006L141.11 98.5065H141.117Z" fill="#F9B098"/>
<path d="M135.92 177.951C135.92 177.951 132.585 186.47 124.397 188.773C119.938 189.909 115.371 190.57 110.773 190.746C111.514 188.871 112.09 186.935 112.494 184.96C112.557 184.173 112.585 183.345 112.599 182.488C119.411 182.284 129.34 181.35 135.92 177.951Z" fill="black"/>
<path d="M144.073 96.161C144.073 96.161 143.175 132.846 139.86 155.1C136.545 177.354 139.642 183.766 128.624 184.763C124.342 185.219 120.037 185.421 115.731 185.367C111.194 185.213 101.623 185.971 106.672 173.829C104.516 162.038 100.408 141.968 98.2029 136.259C95.1833 128.436 93.2872 119.405 96.7001 114.813C100.113 110.22 138.21 98.7593 144.095 96.161H144.073Z" fill="#EF9F34"/>
<path d="M145.478 66.8282L144.678 95.6202C144.678 117.13 167.852 117.039 167.852 99.3281L163.638 79.1807L145.478 66.8282Z" fill="#F9B098"/>
<path d="M152.262 71.4351L163.617 79.1597L165.464 88.015C161.84 88.31 156.693 88.015 152.69 84.869C145.773 79.4547 152.262 71.4351 152.262 71.4351Z" fill="black"/>
<path d="M173.694 42.0742L171.342 70.831C171.342 70.831 169.277 82.1091 160.857 82.1091C154.895 82.1091 145.471 70.9364 145.408 65.1218C145.345 59.3072 145.408 49.9604 145.408 40.8663C145.408 31.7722 174.902 27.5869 173.729 42.0742H173.694Z" fill="#F9B098"/>
<path d="M168.75 55.1008C168.75 55.1008 171.819 58.935 173.181 58.935C174.544 58.935 173.61 62.5165 170.885 62.3409C168.16 62.1653 166.58 52.9308 168.778 55.1008H168.75Z" fill="black"/>
<path d="M166.363 37.9661C166.363 37.9661 162.95 55.4028 154.937 60.3185C146.925 65.2342 142.402 61.119 142.402 61.119L147.816 65.6274C147.816 65.6274 160.043 65.1288 164.958 50.0938C169.874 35.0588 165.661 31.049 165.661 31.049L166.363 37.9661Z" fill="#C84F49"/>
<path d="M165.653 113.106C165.653 113.106 164.312 136.456 163.413 152.193C162.514 167.93 162.901 178.351 162.901 178.351C162.901 178.351 172.732 129.04 172.121 119.721C171.51 110.402 168.16 112.6 165.653 113.106Z" fill="black"/>
<path d="M166.545 99.3C166.545 99.3 193.111 110.901 194.15 112.741C195.035 114.307 186.51 155.002 182.114 171.21C181.32 174.159 183.926 175.943 182.718 178.513C179.207 185.887 165.983 183.611 163.603 182.762C161.222 181.912 161.721 178.085 162.732 173.127C163.743 168.169 171.461 115.578 170.71 111.61C169.958 107.643 166.545 99.3 166.545 99.3Z" fill="#EF9F34"/>
<path d="M144.073 96.161C144.073 96.161 152.641 101.512 160.801 101.561C168.673 102.06 165.541 95.0515 166.573 93.3942C166.573 93.3942 171.728 91.1892 176.047 94.0964C180.365 97.0037 175.829 100.115 176.945 102.018C178.062 103.921 181.159 111.042 166.124 117.249C151.089 123.457 136.559 117.249 132.472 111.238C128.385 105.227 130.45 99.0122 131.883 96.4068C133.315 93.8015 144.523 94.0964 144.523 94.0964L144.052 96.2032L144.073 96.161Z" fill="white"/>
<path d="M152.079 100.129C152.079 100.129 147.824 108.134 149.01 113.471C150.197 118.808 155.26 117.938 159.727 116.877C162.03 116.329 162.816 117.305 163.041 118.38C156.719 120.318 149.961 120.318 143.638 118.38C142.746 114.834 143.814 109.019 152.065 100.122L152.079 100.129Z" fill="#CCDEF2"/>
<path d="M154.937 100.908C154.937 100.908 147.381 101.112 145.295 113.837C143.21 126.561 146.798 136.491 145.078 141.498C143.357 146.505 143.42 145.711 143.42 145.711C140.056 146.89 136.479 147.333 132.929 147.011C127.311 146.414 124.305 143.605 124.305 143.605C124.305 143.605 128.259 140.901 128.385 133.38C128.512 125.859 127.683 113.64 132.016 104.714C136.349 95.7889 144.6 93.0923 149.846 94.883C155.092 96.6737 160.45 101.554 160.45 101.554C158.343 101.61 156.763 101.133 154.937 100.894V100.908Z" fill="white"/>
<path d="M152.718 23.0574C154.429 23.0167 156.141 23.1082 157.837 23.3312C157.837 23.3312 157.557 23.7666 157.135 24.3846C160.794 23.5138 164.93 24.4829 169.333 28.7455C169.333 28.7455 175.169 22.313 179.705 25.0096C184.242 27.7062 176.019 38.1907 176.019 38.1907L173.659 42.0741C173.659 39.8831 172.957 35.1992 168.224 37.9028C164.474 40.0517 160.281 60.0165 148.519 57.3269C147.985 57.2005 147.5 57.053 147.037 56.8985C146.89 60.0797 147.037 63.324 147.781 65.6274C149.888 71.9476 155.703 84.8618 149.488 92.1792C143.273 99.4966 126.033 96.3927 122.325 87.8745C118.617 79.3563 130.541 67.4321 129.839 58.8156C129.137 50.1991 125.626 38.268 134.354 29.6444C139.804 24.2582 147.599 23.1416 152.683 23.0574H152.718Z" fill="#C84F49"/>
<path d="M142.206 42.5797C142.206 42.5797 146.918 27.8326 156.538 26.0419C164.396 24.5672 169.368 28.7455 169.368 28.7455C169.368 28.7455 165.38 22.334 154.958 22.938C144.537 23.5419 133.28 40.1851 142.206 42.6008V42.5797Z" fill="black"/>
<path d="M176.924 100.522C176.824 100.758 176.776 101.014 176.783 101.271C176.791 101.528 176.853 101.78 176.967 102.01C177.362 102.691 177.651 103.427 177.823 104.194C177.199 104.66 176.526 105.056 175.815 105.374C172.704 106.723 167.149 106.154 172.971 103.317C174.453 102.637 175.794 101.684 176.924 100.508V100.522Z" fill="black"/>
<path d="M133.589 153.562C133.554 153.694 133.55 153.832 133.577 153.965C133.605 154.098 133.664 154.223 133.748 154.329C133.833 154.436 133.941 154.521 134.065 154.578C134.189 154.635 134.324 154.662 134.46 154.658C134.769 154.645 135.065 154.531 135.302 154.333C135.54 154.135 135.705 153.864 135.773 153.562C135.808 153.431 135.812 153.294 135.785 153.161C135.757 153.028 135.698 152.903 135.614 152.797C135.529 152.691 135.42 152.607 135.296 152.55C135.173 152.494 135.038 152.468 134.902 152.474C134.594 152.486 134.299 152.599 134.061 152.796C133.824 152.993 133.658 153.262 133.589 153.562Z" fill="black"/>
<path d="M132.76 164.651C132.725 164.782 132.721 164.919 132.749 165.052C132.776 165.185 132.835 165.31 132.92 165.416C133.005 165.522 133.113 165.606 133.237 165.663C133.36 165.719 133.496 165.745 133.631 165.739C133.939 165.727 134.235 165.614 134.472 165.417C134.709 165.22 134.875 164.951 134.944 164.651C134.98 164.519 134.983 164.381 134.956 164.248C134.928 164.115 134.87 163.99 134.785 163.884C134.7 163.777 134.592 163.692 134.468 163.635C134.345 163.578 134.21 163.551 134.074 163.555C133.765 163.568 133.469 163.682 133.231 163.88C132.994 164.078 132.828 164.349 132.76 164.651Z" fill="black"/>
<path d="M131.559 176.104C131.524 176.235 131.52 176.373 131.548 176.506C131.575 176.639 131.634 176.763 131.719 176.869C131.804 176.975 131.912 177.06 132.036 177.116C132.159 177.172 132.295 177.199 132.43 177.193C132.738 177.181 133.034 177.067 133.271 176.871C133.508 176.674 133.674 176.405 133.743 176.104C133.779 175.973 133.783 175.835 133.755 175.702C133.727 175.569 133.669 175.444 133.584 175.337C133.499 175.231 133.391 175.145 133.267 175.088C133.144 175.031 133.009 175.004 132.873 175.009C132.564 175.021 132.268 175.136 132.03 175.334C131.793 175.532 131.627 175.803 131.559 176.104Z" fill="black"/>
<path d="M269.726 74.4264L279.241 73.5837C279.952 73.518 280.669 73.5931 281.35 73.8047C282.032 74.0163 282.665 74.3602 283.214 74.8168C283.762 75.2734 284.215 75.8337 284.547 76.4656C284.879 77.0975 285.083 77.7886 285.147 78.4994L285.99 88.0148C286.121 89.4497 285.676 90.8779 284.755 91.9853C283.833 93.0928 282.509 93.7889 281.074 93.9207L271.559 94.7634C270.848 94.8291 270.131 94.754 269.45 94.5424C268.768 94.3308 268.135 93.9869 267.586 93.5303C267.038 93.0737 266.585 92.5134 266.253 91.8815C265.921 91.2496 265.717 90.5585 265.653 89.8477L264.803 80.3323C264.739 79.6191 264.816 78.9001 265.03 78.2167C265.244 77.5334 265.591 76.8991 266.051 76.3503C266.511 75.8014 267.075 75.349 267.711 75.0188C268.346 74.6886 269.041 74.4873 269.754 74.4264H269.726Z" fill="#EF9F34"/>
<path d="M262.675 90.7536L276.566 128.773C276.731 129.226 276.984 129.641 277.31 129.996C277.636 130.351 278.029 130.638 278.466 130.84C278.903 131.043 279.375 131.158 279.857 131.178C280.338 131.198 280.818 131.123 281.271 130.957L282.675 130.437C283.574 130.084 284.303 129.398 284.71 128.522C285.116 127.646 285.17 126.647 284.859 125.732L273.427 86.814C266.109 85.0795 264.635 88.1202 262.647 90.7536H262.675Z" fill="#F48032"/>
<path d="M267.008 86.7018C264.852 87.4672 263.855 89.1737 262.675 90.7397L264.782 96.491L272.043 86.5122C270.376 86.1439 268.643 86.2092 267.008 86.7018Z" fill="black"/>
<path d="M313.082 49.3142L322.535 45.8661C324.31 45.2143 326.271 45.2942 327.987 46.0883C329.703 46.8825 331.033 48.3257 331.685 50.1007C332.337 51.8756 332.257 53.8368 331.463 55.5528C330.669 57.2688 329.225 58.599 327.45 59.2509L317.998 62.6989C317.119 63.0217 316.185 63.1682 315.25 63.1301C314.314 63.0919 313.396 62.8699 312.546 62.4767C311.696 62.0835 310.932 61.5268 310.298 60.8384C309.663 60.1499 309.171 59.3432 308.848 58.4644C308.525 57.5855 308.379 56.6517 308.417 55.7162C308.455 54.7808 308.677 53.862 309.07 53.0123C309.463 52.1626 310.02 51.3987 310.708 50.7642C311.397 50.1296 312.204 49.6369 313.082 49.3142Z" fill="#EF9F34"/>
<path d="M309.761 28.1697L263.722 60.0867C263.216 74.3001 269.22 80.3043 273.455 86.8141L328.7 80.0304C330.498 79.7214 331.292 77.5164 330.667 75.8169L313.981 30.1711C313.391 28.563 311.65 26.8846 309.768 28.2118L309.761 28.1697Z" fill="white"/>
<path d="M249.803 65.171L263.722 60.0868C267.486 70.3817 268.251 72.4744 273.483 86.772L259.565 91.8563C256.021 93.1507 252.109 92.9845 248.688 91.3943C245.267 89.8041 242.618 86.92 241.324 83.3767C240.029 79.8334 240.196 75.9209 241.786 72.5001C243.376 69.0793 246.26 66.4303 249.803 65.1359V65.171Z" fill="#C84F49"/>
<path d="M310.463 27.8115C310.214 27.8983 309.978 28.0188 309.761 28.1696L305.379 31.2244L314.656 81.786L328.7 80.0584C330.498 79.7565 331.292 77.5514 330.667 75.845L313.981 30.1991C313.469 28.7946 312.071 27.327 310.47 27.8747L310.463 27.8115Z" fill="black"/>
<path d="M305.976 24.1035C306.65 23.8528 307.367 23.7381 308.086 23.7661C308.805 23.794 309.511 23.964 310.164 24.2663C310.817 24.5686 311.404 24.9971 311.89 25.5272C312.376 26.0573 312.753 26.6785 312.998 27.3549L331.699 78.5274C331.944 79.1997 332.055 79.9137 332.024 80.6287C331.993 81.3437 331.822 82.0456 331.52 82.6945C331.218 83.3433 330.792 83.9263 330.264 84.4103C329.737 84.8942 329.12 85.2695 328.447 85.5148C327.774 85.7666 327.057 85.8824 326.338 85.8554C325.619 85.8284 324.913 85.6591 324.26 85.3574C323.607 85.0557 323.02 84.6276 322.533 84.0977C322.047 83.5678 321.67 82.9467 321.425 82.2704L302.731 31.0909C302.236 29.734 302.299 28.2359 302.907 26.9256C303.516 25.6154 304.619 24.6003 305.976 24.1035Z" fill="#C84F49"/>
<path d="M320.835 153.85H511.909C514.36 153.845 516.788 154.323 519.054 155.259C521.32 156.194 523.379 157.567 525.112 159.3C526.846 161.033 528.22 163.092 529.156 165.357C530.092 167.623 530.572 170.051 530.567 172.502V330.38C530.572 332.832 530.092 335.26 529.156 337.525C528.22 339.79 526.846 341.849 525.112 343.582C523.379 345.315 521.32 346.688 519.054 347.624C516.788 348.559 514.36 349.037 511.909 349.032H320.835C318.384 349.036 315.957 348.557 313.692 347.622C311.427 346.686 309.369 345.312 307.636 343.579C305.903 341.846 304.53 339.788 303.594 337.523C302.658 335.258 302.179 332.831 302.184 330.38V172.502C302.179 170.051 302.658 167.624 303.594 165.359C304.53 163.094 305.903 161.036 307.636 159.303C309.369 157.57 311.427 156.196 313.692 155.261C315.957 154.325 318.384 153.846 320.835 153.85Z" fill="white"/>
<path d="M320.835 153.85C318.384 153.846 315.957 154.325 313.692 155.261C311.427 156.196 309.369 157.57 307.636 159.303C305.903 161.036 304.53 163.094 303.594 165.359C302.658 167.624 302.179 170.051 302.184 172.502V189.356H530.567V172.502C530.572 170.051 530.092 167.623 529.156 165.357C528.22 163.092 526.846 161.033 525.112 159.3C523.379 157.567 521.32 156.194 519.054 155.259C516.788 154.323 514.36 153.845 511.909 153.85H320.835Z" fill="#C84F49"/>
<path d="M363.068 153.85C363.075 150.238 362.01 146.704 360.008 143.697C358.006 140.69 355.157 138.344 351.821 136.957C348.486 135.569 344.814 135.203 341.269 135.903C337.725 136.604 334.469 138.34 331.912 140.892C329.355 143.444 327.612 146.697 326.905 150.24C326.198 153.783 326.557 157.456 327.938 160.794C329.319 164.132 331.659 166.986 334.662 168.994C337.666 171.002 341.197 172.073 344.81 172.073V153.85H363.068Z" fill="#F48032"/>
<path d="M485.666 153.85L485.624 172.073C487.836 163.422 493.348 156.975 503.882 153.85H485.666Z" fill="black"/>
<path d="M503.896 153.85C503.903 150.238 502.838 146.704 500.836 143.697C498.834 140.69 495.985 138.344 492.649 136.957C489.314 135.569 485.642 135.203 482.097 135.903C478.553 136.604 475.297 138.34 472.74 140.892C470.183 143.444 468.44 146.697 467.733 150.24C467.026 153.783 467.385 157.456 468.766 160.794C470.147 164.132 472.487 166.986 475.49 168.994C478.494 171.002 482.025 172.073 485.638 172.073V153.85H503.896Z" fill="#F48032"/>
<path d="M344.915 153.85L344.873 172.073C347.085 163.429 352.598 156.975 363.131 153.85H344.915Z" fill="black"/>
<path d="M370.442 236.617C370.442 240.721 369.225 244.733 366.944 248.146C364.664 251.558 361.423 254.218 357.631 255.788C353.84 257.359 349.667 257.77 345.642 256.969C341.617 256.169 337.919 254.192 335.017 251.29C332.115 248.388 330.138 244.69 329.338 240.665C328.537 236.64 328.948 232.467 330.519 228.676C332.089 224.884 334.749 221.643 338.161 219.363C341.574 217.082 345.586 215.865 349.69 215.865C355.194 215.865 360.472 218.052 364.364 221.943C368.255 225.835 370.442 231.113 370.442 236.617Z" fill="black"/>
<path d="M367.176 231.427C367.176 235.53 365.96 239.541 363.68 242.952C361.401 246.363 358.161 249.022 354.37 250.592C350.58 252.162 346.409 252.573 342.385 251.773C338.361 250.972 334.665 248.997 331.764 246.096C328.862 243.194 326.887 239.498 326.086 235.474C325.286 231.45 325.697 227.279 327.267 223.489C328.837 219.698 331.496 216.458 334.907 214.179C338.318 211.899 342.329 210.683 346.432 210.683C349.156 210.682 351.854 211.218 354.372 212.26C356.889 213.302 359.176 214.83 361.102 216.757C363.029 218.683 364.557 220.97 365.599 223.488C366.641 226.005 367.177 228.703 367.176 231.427Z" fill="#EF9F34"/>
<path d="M435.821 236.617C435.819 240.719 434.601 244.729 432.321 248.14C430.041 251.55 426.801 254.208 423.01 255.777C419.219 257.346 415.049 257.756 411.025 256.955C407.002 256.153 403.306 254.177 400.406 251.276C397.505 248.374 395.53 244.678 394.73 240.654C393.93 236.63 394.342 232.46 395.912 228.67C397.482 224.879 400.141 221.64 403.552 219.361C406.963 217.082 410.974 215.865 415.076 215.865C420.579 215.867 425.855 218.054 429.745 221.946C433.635 225.837 435.821 231.114 435.821 236.617Z" fill="black"/>
<path d="M432.562 231.427C432.564 235.532 431.348 239.545 429.068 242.959C426.788 246.372 423.547 249.033 419.755 250.605C415.963 252.176 411.79 252.588 407.764 251.787C403.738 250.987 400.04 249.01 397.137 246.108C394.235 243.205 392.258 239.507 391.458 235.481C390.657 231.455 391.069 227.282 392.641 223.49C394.212 219.698 396.873 216.457 400.286 214.177C403.7 211.898 407.713 210.681 411.818 210.683C417.32 210.683 422.596 212.868 426.486 216.759C430.377 220.649 432.562 225.925 432.562 231.427Z" fill="#EF9F34"/>
<path d="M502.464 236.617C502.464 240.721 501.246 244.734 498.966 248.146C496.685 251.559 493.444 254.219 489.652 255.789C485.86 257.36 481.687 257.77 477.661 256.969C473.636 256.168 469.938 254.19 467.036 251.288C464.135 248.385 462.159 244.687 461.359 240.661C460.559 236.635 460.971 232.462 462.543 228.671C464.114 224.879 466.775 221.639 470.189 219.359C473.602 217.08 477.615 215.864 481.719 215.865C487.222 215.867 492.498 218.054 496.388 221.946C500.278 225.837 502.464 231.114 502.464 236.617Z" fill="black"/>
<path d="M499.198 231.427C499.198 235.53 497.982 239.541 495.702 242.952C493.423 246.363 490.183 249.022 486.392 250.592C482.602 252.162 478.431 252.573 474.407 251.773C470.383 250.972 466.687 248.997 463.785 246.096C460.884 243.194 458.909 239.498 458.108 235.474C457.308 231.45 457.719 227.279 459.289 223.489C460.859 219.698 463.518 216.458 466.929 214.179C470.34 211.899 474.351 210.683 478.454 210.683C483.956 210.683 489.232 212.868 493.122 216.759C497.013 220.649 499.198 225.925 499.198 231.427Z" fill="#EF9F34"/>
<path d="M370.442 295.268C370.443 299.372 369.227 303.385 366.948 306.799C364.668 310.212 361.428 312.873 357.636 314.445C353.845 316.016 349.672 316.428 345.646 315.628C341.62 314.828 337.922 312.853 335.019 309.951C332.117 307.049 330.14 303.351 329.338 299.326C328.537 295.3 328.948 291.128 330.518 287.335C332.088 283.543 334.748 280.302 338.161 278.021C341.573 275.741 345.586 274.524 349.69 274.524C352.415 274.523 355.113 275.059 357.631 276.101C360.149 277.143 362.436 278.671 364.363 280.597C366.29 282.523 367.819 284.811 368.862 287.328C369.905 289.845 370.442 292.543 370.442 295.268Z" fill="black"/>
<path d="M367.176 290.1C367.176 294.203 365.96 298.213 363.68 301.625C361.401 305.036 358.161 307.695 354.37 309.265C350.58 310.835 346.409 311.246 342.385 310.445C338.361 309.645 334.665 307.669 331.764 304.768C328.862 301.867 326.887 298.171 326.086 294.147C325.286 290.123 325.697 285.952 327.267 282.161C328.837 278.371 331.496 275.131 334.907 272.851C338.318 270.572 342.329 269.355 346.432 269.355C351.934 269.355 357.21 271.541 361.1 275.431C364.991 279.322 367.176 284.598 367.176 290.1Z" fill="#EF9F34"/>
<path d="M435.821 295.268C435.821 299.371 434.604 303.381 432.325 306.793C430.045 310.204 426.805 312.863 423.015 314.433C419.224 316.003 415.053 316.414 411.029 315.614C407.005 314.813 403.309 312.838 400.408 309.936C397.507 307.035 395.531 303.339 394.731 299.315C393.93 295.291 394.341 291.12 395.911 287.329C397.481 283.539 400.14 280.299 403.552 278.02C406.963 275.74 410.974 274.524 415.076 274.524C420.578 274.524 425.855 276.709 429.745 280.6C433.635 284.49 435.821 289.766 435.821 295.268Z" fill="black"/>
<path d="M432.562 290.1C432.564 294.205 431.348 298.218 429.068 301.631C426.788 305.045 423.547 307.706 419.755 309.277C415.963 310.849 411.79 311.26 407.764 310.46C403.738 309.659 400.04 307.683 397.137 304.78C394.235 301.878 392.258 298.179 391.458 294.153C390.657 290.127 391.069 285.954 392.641 282.162C394.212 278.37 396.873 275.129 400.286 272.85C403.7 270.57 407.713 269.354 411.818 269.355C417.319 269.357 422.594 271.543 426.484 275.433C430.374 279.323 432.56 284.599 432.562 290.1Z" fill="#EF9F34"/>
<path d="M502.464 295.268C502.465 299.373 501.249 303.386 498.969 306.799C496.69 310.213 493.449 312.874 489.657 314.445C485.865 316.017 481.692 316.428 477.666 315.628C473.64 314.827 469.941 312.851 467.039 309.948C464.136 307.046 462.16 303.348 461.359 299.322C460.559 295.296 460.97 291.123 462.542 287.331C464.113 283.538 466.774 280.298 470.188 278.018C473.601 275.738 477.614 274.522 481.719 274.524C487.221 274.524 492.497 276.709 496.388 280.6C500.278 284.49 502.464 289.766 502.464 295.268Z" fill="black"/>
<path d="M499.198 290.1C499.198 294.203 497.982 298.213 495.702 301.625C493.423 305.036 490.183 307.695 486.392 309.265C482.602 310.835 478.431 311.246 474.407 310.445C470.383 309.645 466.687 307.669 463.785 304.768C460.884 301.867 458.909 298.171 458.108 294.147C457.308 290.123 457.719 285.952 459.289 282.161C460.859 278.371 463.518 275.131 466.929 272.851C470.34 270.572 474.351 269.355 478.454 269.355C483.955 269.357 489.23 271.543 493.12 275.433C497.01 279.323 499.196 284.599 499.198 290.1Z" fill="#EF9F34"/>
<path d="M302.184 189.342H530.567V196.933L302.184 189.342Z" fill="black"/>
<path d="M480.666 401.44C473.742 401.482 463.903 417.985 455.912 442.964C451.389 434.221 446.944 429.811 443.307 430.471C437.45 431.532 434.416 445.499 435.385 466.911C421.663 469.649 413.784 473.793 413.665 478.343C413.657 478.753 413.709 479.163 413.819 479.558H545.841C544.247 476.531 539.331 473.589 531.621 471.061C539.345 458.996 541.958 450.232 538.699 446.953C534.872 443.097 523.475 447.262 508.292 458.062C510.996 447.824 510.666 441.117 507.351 439.102C503.433 436.749 495.652 441.208 485.926 451.44C490.413 423.498 488.664 403.175 481.635 401.518C481.317 401.444 480.992 401.408 480.666 401.412V401.44Z" fill="#56BB6A"/>
<path d="M487.618 438.526C487.211 442.662 486.642 446.995 485.926 451.447C485.926 451.447 479.655 460.752 476.93 467.255L474.205 473.75C474.205 473.75 476.122 453.041 487.618 438.526Z" fill="black"/>
<path d="M531.621 471.061L526.227 479.558C529.615 477.889 532.45 475.281 534.395 472.044L531.586 471.061H531.621Z" fill="black"/>
</svg>
