<svg width="19" height="10" viewBox="0 0 19 10" fill="none" xmlns="http://www.w3.org/2000/svg">
<path d="M15.7666 5.73429C15.4594 5.38429 15.5473 5.22857 15.7666 4.91571C15.7705 4.91214 18.3063 1.75071 18.5676 0.678571L18.5692 0.677857C18.699 0.287143 18.5692 0 17.9414 0H15.864C15.3351 0 15.0913 0.246429 14.9606 0.522143C14.9606 0.522143 13.9029 2.80643 12.4066 4.28714C11.9237 4.715 11.7004 4.85214 11.4368 4.85214C11.307 4.85214 11.1051 4.715 11.1051 4.32429V0.677857C11.1051 0.209286 10.957 0 10.5192 0H7.25271C6.92099 0 6.72386 0.218571 6.72386 0.422143C6.72386 0.866429 7.47201 0.968571 7.5496 2.21857V4.93071C7.5496 5.525 7.43005 5.63429 7.16483 5.63429C6.45864 5.63429 4.74462 3.34071 3.72888 0.715714C3.52383 0.206428 3.32353 0.000714234 2.79072 0.000714234H0.712525C0.119546 0.000714234 0 0.247143 0 0.522857C0 1.01 0.706191 3.43214 3.28395 6.63214C5.00192 8.81643 7.42134 10 9.62225 10C10.9452 10 11.1067 9.73714 11.1067 9.285C11.1067 7.19786 10.9871 7.00071 11.6498 7.00071C11.957 7.00071 12.4858 7.13786 13.7208 8.19143C15.1324 9.44071 15.3644 10 16.1545 10H18.2319C18.8241 10 19.1242 9.73714 18.9516 9.21857C18.5565 8.12786 15.8869 5.88429 15.7666 5.73429Z" fill="white"/>
</svg>
