<svg width="13" height="7" viewBox="0 0 13 7" fill="none" xmlns="http://www.w3.org/2000/svg">
<path d="M6.85449 6.85219L12.8528 0.857375C12.9472 0.763032 13.0002 0.635162 13 0.501895C12.9998 0.368629 12.9466 0.240883 12.8519 0.146759C12.7573 0.0526354 12.629 -0.000155267 12.4953 3.20911e-07C12.3616 0.000155909 12.2334 0.053245 12.139 0.147589L6.4978 5.78564L0.856629 0.147588C0.761828 0.055072 0.634253 0.00354454 0.501578 0.00418478C0.368904 0.00482503 0.241834 0.0575813 0.147936 0.151008C0.054038 0.244435 0.000885947 0.370996 1.14221e-05 0.503235C-0.000864057 0.635473 0.0506096 0.762722 0.143263 0.857375L6.14112 6.85219C6.18791 6.89904 6.24353 6.93621 6.30477 6.96158C6.36602 6.98694 6.43169 7 6.49801 7C6.56433 7 6.63 6.98694 6.69125 6.96158C6.75249 6.93621 6.80811 6.89904 6.8549 6.85219L6.85449 6.85219Z" fill="#CC329B"/>
</svg>
