<svg width="45" height="45" viewBox="0 0 45 45" fill="none" xmlns="http://www.w3.org/2000/svg">
<rect x="1.5" y="1.5" width="42" height="42" rx="21"  stroke-width="3"/>
<g clip-path="url(#clip0)">
<path d="M28.0741 28.9281V30.7C28.0741 30.8657 27.9398 31 27.7742 31C27.6085 31 27.4742 30.8657 27.4742 30.7V28.9281C27.4742 27.5485 26.3578 26.432 24.9781 26.432C24.3252 26.432 23.7329 26.0995 23.3936 25.5424C23.3074 25.4009 23.3522 25.2163 23.4937 25.1301C23.6352 25.0439 23.8197 25.0888 23.9059 25.2303C24.1355 25.6072 24.5363 25.8321 24.9781 25.8321C26.6892 25.832 28.0741 27.2168 28.0741 28.9281ZM22.8396 25.9213C22.8749 26.0832 22.7723 26.243 22.6104 26.2782C21.821 26.4502 21.0181 26.2781 20.3788 25.8417C19.746 26.5199 18.9099 26.432 19.0219 26.432C17.6422 26.432 16.5257 27.5484 16.5257 28.9281V30.7C16.5257 30.8657 16.3914 31 16.2257 31C16.0601 31 15.9258 30.8657 15.9258 30.7V28.9281C15.9258 27.217 17.3104 25.8321 19.0218 25.8321C19.714 25.8321 20.2752 25.2744 20.2752 24.582V24.503C18.9659 23.8769 18.0469 22.5613 17.9909 21.0293C17.4521 20.8998 17.0506 20.4175 17.0506 19.8437V18.2887C17.0342 17.5275 17.1473 15.6212 18.5372 14.2813C20.2536 12.6268 23.006 12.7319 25.0299 13.7062C25.2272 13.8013 25.2571 14.0678 25.0933 14.2058C26.1186 14.4559 27.0028 15.0862 27.5708 15.9882C27.6001 16.0347 27.6538 16.1076 27.6398 16.224C27.6311 16.2964 27.6095 16.3576 27.5537 16.4143C27.1881 16.785 26.9868 17.2763 26.9868 17.7977V19.8438C26.9868 20.0094 26.8525 20.1437 26.6869 20.1437C26.5212 20.1437 26.3869 20.0094 26.3869 19.8438V17.7977C26.3869 17.1964 26.5923 16.6256 26.9697 16.1671C26.3946 15.3446 25.4973 14.8157 24.4825 14.707L23.9553 14.6505C23.647 14.6175 23.5866 14.1928 23.8731 14.0749L24.1128 13.9762C20.99 12.8875 17.6505 14.0971 17.6505 18.2854V19.8437C17.6505 20.0817 17.7876 20.2886 17.988 20.3925V18.4479C17.988 17.2901 18.9299 16.3482 20.0877 16.3482H23.9122C25.07 16.3482 26.0119 17.29 26.0119 18.4478V20.9038C26.0119 23.5125 23.4627 25.494 20.8687 24.7303C20.8518 24.9443 20.7986 25.1508 20.7118 25.3428C21.2164 25.6893 21.8536 25.8291 22.4827 25.692C22.6445 25.6568 22.8043 25.7594 22.8396 25.9213ZM21.9999 24.2931C23.8814 24.2931 25.412 22.7624 25.412 20.881V18.4478C25.412 17.6209 24.7392 16.9481 23.9122 16.9481H20.0877C19.2607 16.9481 18.5879 17.6209 18.5879 18.4479V20.881C18.5879 22.7624 20.1185 24.2931 21.9999 24.2931ZM25.037 29.4627H24.1372C23.9715 29.4627 23.8372 29.597 23.8372 29.7627C23.8372 29.9283 23.9715 30.0626 24.1372 30.0626H25.037C25.2027 30.0626 25.337 29.9283 25.337 29.7627C25.337 29.597 25.2027 29.4627 25.037 29.4627Z" fill="#802F7B"/>
</g>
<defs>
<clipPath id="clip0">
<rect width="18" height="18" fill="white" transform="translate(13 13)"/>
</clipPath>
</defs>
</svg>
