<svg width="175" height="27" viewBox="0 0 175 27" fill="none" xmlns="http://www.w3.org/2000/svg">
<g clip-path="url(#clip0)">
<path d="M26.2441 10.0934C26.0718 9.56063 25.5992 9.1822 25.0401 9.13181L17.4456 8.44222L14.4425 1.4132C14.2211 0.898059 13.7168 0.564606 13.1565 0.564606C12.5962 0.564606 12.0919 0.898059 11.8704 1.4144L8.86733 8.44222L1.27158 9.13181C0.713479 9.18341 0.242107 9.56063 0.0688556 10.0934C-0.104396 10.6262 0.0556057 11.2106 0.477793 11.579L6.21837 16.6135L4.52561 24.0702C4.40174 24.6184 4.61454 25.1852 5.06946 25.514C5.31397 25.6907 5.60005 25.7806 5.88853 25.7806C6.13727 25.7806 6.384 25.7136 6.60543 25.5811L13.1565 21.6657L19.7051 25.5811C20.1843 25.8693 20.7884 25.843 21.2423 25.514C21.6974 25.1842 21.91 24.6172 21.7861 24.0702L20.0933 16.6135L25.8339 11.58C26.2561 11.2106 26.4173 10.6272 26.2441 10.0934Z" fill="#FFC107"/>
</g>
<g clip-path="url(#clip1)">
<path d="M63.4159 10.0934C63.2437 9.56063 62.7711 9.1822 62.212 9.13181L54.6175 8.44222L51.6144 1.4132C51.3929 0.898059 50.8886 0.564606 50.3283 0.564606C49.768 0.564606 49.2637 0.898059 49.0423 1.4144L46.0392 8.44222L38.4435 9.13181C37.8854 9.18341 37.414 9.56063 37.2407 10.0934C37.0675 10.6262 37.2275 11.2106 37.6497 11.579L43.3902 16.6135L41.6975 24.0702C41.5736 24.6184 41.7864 25.1852 42.2413 25.514C42.4858 25.6907 42.7719 25.7806 43.0604 25.7806C43.3091 25.7806 43.5559 25.7136 43.7773 25.5811L50.3283 21.6657L56.877 25.5811C57.3562 25.8693 57.9602 25.843 58.4141 25.514C58.8692 25.1842 59.0818 24.6172 58.958 24.0702L57.2652 16.6135L63.0058 11.58C63.428 11.2106 63.5892 10.6272 63.4159 10.0934Z" fill="#FFC107"/>
</g>
<g clip-path="url(#clip2)">
<path d="M100.588 10.0934C100.416 9.56063 99.943 9.1822 99.3839 9.13181L91.7893 8.44222L88.7862 1.4132C88.5648 0.898059 88.0605 0.564606 87.5002 0.564606C86.9399 0.564606 86.4356 0.898059 86.2142 1.4144L83.2111 8.44222L75.6153 9.13181C75.0572 9.18341 74.5859 9.56063 74.4126 10.0934C74.2394 10.6262 74.3994 11.2106 74.8215 11.579L80.5621 16.6135L78.8694 24.0702C78.7455 24.6184 78.9583 25.1852 79.4132 25.514C79.6577 25.6907 79.9438 25.7806 80.2323 25.7806C80.481 25.7806 80.7277 25.7136 80.9492 25.5811L87.5002 21.6657L94.0488 25.5811C94.528 25.8693 95.1321 25.843 95.586 25.514C96.0411 25.1842 96.2537 24.6172 96.1299 24.0702L94.4371 16.6135L100.178 11.58C100.6 11.2106 100.761 10.6272 100.588 10.0934Z" fill="#FFC107"/>
</g>
<g clip-path="url(#clip3)">
<path d="M137.76 10.0934C137.587 9.56063 137.115 9.1822 136.556 9.13181L128.961 8.44222L125.958 1.4132C125.737 0.898059 125.232 0.564606 124.672 0.564606C124.112 0.564606 123.607 0.898059 123.386 1.4144L120.383 8.44222L112.787 9.13181C112.229 9.18341 111.758 9.56063 111.584 10.0934C111.411 10.6262 111.571 11.2106 111.993 11.579L117.734 16.6135L116.041 24.0702C115.917 24.6184 116.13 25.1852 116.585 25.514C116.83 25.6907 117.116 25.7806 117.404 25.7806C117.653 25.7806 117.9 25.7136 118.121 25.5811L124.672 21.6657L131.221 25.5811C131.7 25.8693 132.304 25.843 132.758 25.514C133.213 25.1842 133.426 24.6172 133.302 24.0702L131.609 16.6135L137.35 11.58C137.772 11.2106 137.933 10.6272 137.76 10.0934Z" fill="#FFC107"/>
</g>
<g clip-path="url(#clip4)">
<path d="M164.754 9.03155L165.106 9.85509L165.997 9.93608L173.359 10.6045L167.792 15.4857L167.12 16.0746L167.318 16.9456L168.958 24.1718L162.614 20.3783L161.844 19.9182L161.074 20.3782L154.728 24.171L156.369 16.9456L156.566 16.0747L155.895 15.4858L150.329 10.6044L157.69 9.93608L158.582 9.85511L158.934 9.03164L161.844 2.22159L164.754 9.03155Z" stroke="#A61899" stroke-width="3"/>
</g>
<defs>
<clipPath id="clip0">
<rect width="26.3126" height="26.3126" fill="white"/>
</clipPath>
<clipPath id="clip1">
<rect width="26.3126" height="26.3126" fill="white" transform="translate(37.1719)"/>
</clipPath>
<clipPath id="clip2">
<rect width="26.3126" height="26.3126" fill="white" transform="translate(74.3438)"/>
</clipPath>
<clipPath id="clip3">
<rect width="26.3126" height="26.3126" fill="white" transform="translate(111.516)"/>
</clipPath>
<clipPath id="clip4">
<rect width="26.3126" height="26.3126" fill="white" transform="translate(148.688)"/>
</clipPath>
</defs>
</svg>
