<svg width="419" height="63" viewBox="0 0 419 63" fill="none" xmlns="http://www.w3.org/2000/svg">
<g clip-path="url(#clip0)">
<path d="M62.8358 24.1665C62.4234 22.8909 61.2919 21.9848 59.9532 21.8642L41.7697 20.2131L34.5795 3.38357C34.0493 2.15019 32.8419 1.35181 31.5003 1.35181C30.1588 1.35181 28.9514 2.15019 28.4212 3.38646L21.2309 20.2131L3.04452 21.8642C1.70827 21.9877 0.579673 22.8909 0.16486 24.1665C-0.249953 25.4422 0.133136 26.8414 1.14397 27.7234L14.8886 39.7775L10.8356 57.6309C10.539 58.9436 11.0485 60.3005 12.1377 61.0878C12.7232 61.5108 13.4081 61.7261 14.0988 61.7261C14.6944 61.7261 15.2851 61.5656 15.8153 61.2483L31.5003 51.8739L47.1796 61.2483C48.3269 61.9386 49.7733 61.8756 50.86 61.0878C51.9497 60.2981 52.4587 58.9407 52.1622 57.6309L48.1092 39.7775L61.8538 27.7259C62.8646 26.8414 63.2506 25.4446 62.8358 24.1665Z" fill="#FFC107"/>
</g>
<g clip-path="url(#clip1)">
<path d="M151.836 24.1665C151.423 22.8909 150.292 21.9848 148.953 21.8642L130.77 20.2131L123.579 3.38357C123.049 2.15019 121.842 1.35181 120.5 1.35181C119.159 1.35181 117.951 2.15019 117.421 3.38646L110.231 20.2131L92.0445 21.8642C90.7083 21.9877 89.5797 22.8909 89.1649 24.1665C88.75 25.4422 89.1331 26.8414 90.144 27.7234L103.889 39.7775L99.8356 57.6309C99.539 58.9436 100.049 60.3005 101.138 61.0878C101.723 61.5108 102.408 61.7261 103.099 61.7261C103.694 61.7261 104.285 61.5656 104.815 61.2483L120.5 51.8739L136.18 61.2483C137.327 61.9386 138.773 61.8756 139.86 61.0878C140.95 60.2981 141.459 58.9407 141.162 57.6309L137.109 39.7775L150.854 27.7259C151.865 26.8414 152.251 25.4446 151.836 24.1665Z" fill="#FFC107"/>
</g>
<g clip-path="url(#clip2)">
<path d="M240.836 24.1665C240.423 22.8909 239.292 21.9848 237.953 21.8642L219.77 20.2131L212.579 3.38357C212.049 2.15019 210.842 1.35181 209.5 1.35181C208.159 1.35181 206.951 2.15019 206.421 3.38646L199.231 20.2131L181.045 21.8642C179.708 21.9877 178.58 22.8909 178.165 24.1665C177.75 25.4422 178.133 26.8414 179.144 27.7234L192.889 39.7775L188.836 57.6309C188.539 58.9436 189.049 60.3005 190.138 61.0878C190.723 61.5108 191.408 61.7261 192.099 61.7261C192.694 61.7261 193.285 61.5656 193.815 61.2483L209.5 51.8739L225.18 61.2483C226.327 61.9386 227.773 61.8756 228.86 61.0878C229.95 60.2981 230.459 58.9407 230.162 57.6309L226.109 39.7775L239.854 27.7259C240.865 26.8414 241.251 25.4446 240.836 24.1665Z" fill="#FFC107"/>
</g>
<g clip-path="url(#clip3)">
<path d="M329.836 24.1665C329.423 22.8909 328.292 21.9848 326.953 21.8642L308.77 20.2131L301.579 3.38357C301.049 2.15019 299.842 1.35181 298.5 1.35181C297.159 1.35181 295.951 2.15019 295.421 3.38646L288.231 20.2131L270.045 21.8642C268.708 21.9877 267.58 22.8909 267.165 24.1665C266.75 25.4422 267.133 26.8414 268.144 27.7234L281.889 39.7775L277.836 57.6309C277.539 58.9436 278.049 60.3005 279.138 61.0878C279.723 61.5108 280.408 61.7261 281.099 61.7261C281.694 61.7261 282.285 61.5656 282.815 61.2483L298.5 51.8739L314.18 61.2483C315.327 61.9386 316.773 61.8756 317.86 61.0878C318.95 60.2981 319.459 58.9407 319.162 57.6309L315.109 39.7775L328.854 27.7259C329.865 26.8414 330.251 25.4446 329.836 24.1665Z" fill="#FFC107"/>
</g>
<g clip-path="url(#clip4)">
<path d="M417.409 24.628L417.409 24.6296C417.638 25.3365 417.426 26.1073 416.866 26.597L416.865 26.598L403.12 38.6497L402.449 39.2386L402.646 40.1096L406.699 57.9621C406.699 57.9622 406.699 57.9622 406.699 57.9623C406.863 58.6882 406.582 59.4367 405.98 59.8732L405.98 59.8733C405.379 60.3091 404.583 60.3422 403.953 59.963L403.949 59.9609L388.27 50.5865L387.5 50.1264L386.731 50.5864L371.046 59.9608L371.045 59.9612C370.747 60.1395 370.422 60.2261 370.099 60.2261C369.722 60.2261 369.345 60.1093 369.016 59.8719C368.417 59.4386 368.134 58.692 368.299 57.9624C368.299 57.9621 368.299 57.9617 368.299 57.9614L372.351 40.1096L372.549 39.2387L371.878 38.6498L358.133 26.5957L358.13 26.5932C357.574 26.1083 357.361 25.3373 357.591 24.6304C357.821 23.9242 358.443 23.4266 359.182 23.3579C359.182 23.3578 359.182 23.3578 359.183 23.3578L377.367 21.7069L378.258 21.626L378.61 20.8025L385.8 3.97766C385.8 3.97721 385.8 3.97677 385.8 3.97632C386.095 3.28959 386.762 2.85181 387.5 2.85181C388.24 2.85181 388.907 3.29066 389.201 3.9756C389.201 3.97571 389.201 3.97583 389.201 3.97595L396.39 20.8024L396.742 21.6259L397.634 21.7069L415.818 23.358L415.819 23.3581C416.558 23.4247 417.181 23.9237 417.409 24.628Z" stroke="#A61899" stroke-width="3"/>
</g>
<defs>
<clipPath id="clip0">
<rect width="63" height="63" fill="white"/>
</clipPath>
<clipPath id="clip1">
<rect width="63" height="63" fill="white" transform="translate(89)"/>
</clipPath>
<clipPath id="clip2">
<rect width="63" height="63" fill="white" transform="translate(178)"/>
</clipPath>
<clipPath id="clip3">
<rect width="63" height="63" fill="white" transform="translate(267)"/>
</clipPath>
<clipPath id="clip4">
<rect width="63" height="63" fill="white" transform="translate(356)"/>
</clipPath>
</defs>
</svg>
