<svg width="17" height="18" viewBox="0 0 17 18" fill="none" xmlns="http://www.w3.org/2000/svg">
<g clip-path="url(#clip0)">
<path d="M8.56813 4.59985C6.21965 4.59985 4.31836 6.50321 4.31836 8.84962C4.31836 11.1981 6.22172 13.0994 8.56813 13.0994C10.9166 13.0994 12.8179 11.196 12.8179 8.84962C12.8179 6.50114 10.9145 4.59985 8.56813 4.59985ZM8.56813 11.608C7.04365 11.608 5.80971 10.3734 5.80971 8.84962C5.80971 7.32583 7.04434 6.09121 8.56813 6.09121C10.0919 6.09121 11.3265 7.32583 11.3265 8.84962C11.3272 10.3734 10.0926 11.608 8.56813 11.608Z" fill="#C6C6C6"/>
<path d="M11.9803 0.626184C10.4565 0.555101 6.68221 0.558552 5.15704 0.626184C3.81683 0.688985 2.63465 1.01265 1.68159 1.96571C0.0887879 3.55851 0.292374 5.70479 0.292374 8.85244C0.292374 12.0739 0.112942 14.1705 1.68159 15.7392C3.2806 17.3375 5.45793 17.1284 8.56831 17.1284C11.7594 17.1284 12.8609 17.1305 13.9892 16.6936C15.5234 16.098 16.6814 14.7268 16.7946 12.2637C16.8663 10.7392 16.8622 6.96564 16.7946 5.44047C16.6579 2.53299 15.0976 0.769729 11.9803 0.626184ZM14.3923 14.6853C13.3481 15.7295 11.8995 15.6363 8.5483 15.6363C5.09769 15.6363 3.714 15.6874 2.70435 14.675C1.54149 13.5177 1.75198 11.6592 1.75198 8.8414C1.75198 5.02847 1.36068 2.28248 5.18741 2.08648C6.06662 2.05543 6.32542 2.04507 8.53864 2.04507L8.56969 2.06578C12.2474 2.06578 15.1327 1.68069 15.306 5.50673C15.3453 6.37973 15.3543 6.64198 15.3543 8.85175C15.3536 12.2623 15.4185 13.6543 14.3923 14.6853Z" fill="#C6C6C6"/>
<path d="M12.9865 5.42556C13.535 5.42556 13.9796 4.98094 13.9796 4.43248C13.9796 3.88401 13.535 3.43939 12.9865 3.43939C12.438 3.43939 11.9934 3.88401 11.9934 4.43248C11.9934 4.98094 12.438 5.42556 12.9865 5.42556Z" fill="#C6C6C6"/>
</g>
<defs>
<clipPath id="clip0">
<rect width="16.5629" height="16.5629" fill="white" transform="translate(0.283936 0.571045)"/>
</clipPath>
</defs>
</svg>
