<svg width="17" height="18" viewBox="0 0 17 18" fill="none" xmlns="http://www.w3.org/2000/svg">
<path d="M12.0953 10.4456L12.0891 10.4973C10.5715 9.74096 10.4128 9.6402 10.2168 9.93419C10.0809 10.1378 9.68475 10.5995 9.56536 10.7361C9.44459 10.8707 9.32451 10.881 9.11955 10.7879C8.91252 10.6843 8.24794 10.467 7.46122 9.76304C6.8484 9.21441 6.43709 8.54155 6.31563 8.33452C6.11343 7.98532 6.53647 7.93563 6.92155 7.20688C6.99056 7.06195 6.95536 6.94809 6.9043 6.84526C6.85254 6.74174 6.44054 5.72728 6.26802 5.32288C6.10239 4.91985 5.93193 4.97092 5.80426 4.97092C5.40676 4.93642 5.11622 4.94194 4.86019 5.20832C3.74635 6.43257 4.02723 7.69547 4.98027 9.03843C6.85323 11.4897 7.85113 11.941 9.67578 12.5676C10.1685 12.7243 10.6178 12.7022 10.9732 12.6512C11.3693 12.5884 12.1926 12.1536 12.3644 11.6671C12.5404 11.1805 12.5404 10.7768 12.4887 10.6837C12.4376 10.5905 12.3023 10.5387 12.0953 10.4456Z" fill="#C6C6C6"/>
<path d="M14.1752 2.95153C8.86896 -2.17805 0.0873118 1.54233 0.0838612 8.77882C0.0838612 10.2253 0.462732 11.6359 1.18459 12.8815L0.0141602 17.134L4.38601 15.9939C9.84132 18.9407 16.574 15.0278 16.5768 8.78296C16.5768 6.59117 15.7211 4.52843 14.1649 2.97845L14.1752 2.95153ZM15.198 8.76019C15.1938 14.0278 9.41138 17.3175 4.83803 14.6289L4.58959 14.4812L2.00168 15.1541L2.69524 12.6386L2.5303 12.3798C-0.315712 7.84924 2.95403 1.9281 8.34517 1.9281C10.1767 1.9281 11.8958 2.64236 13.1904 3.93632C14.4844 5.21923 15.198 6.9383 15.198 8.76019Z" fill="#C6C6C6"/>
</svg>
