<svg width="5" height="9" viewBox="0 0 5 9" fill="none" xmlns="http://www.w3.org/2000/svg">
<path d="M4.89442 4.25459L0.612411 0.101936C0.545023 0.0365596 0.453687 -0.000107835 0.358497 2.38223e-07C0.263306 0.000108311 0.172059 0.036983 0.104828 0.102512C0.0375967 0.168042 -0.000110894 0.256858 2.4498e-07 0.349422C0.000111384 0.441987 0.0380322 0.530717 0.10542 0.596093L4.1326 4.50152L0.10542 8.40695C0.0393375 8.47258 0.0025322 8.5609 0.00298952 8.65275C0.00344684 8.74461 0.0411299 8.83258 0.107863 8.89758C0.174597 8.96259 0.264998 8.99939 0.359454 8.99999C0.45391 9.0006 0.544802 8.96496 0.612411 8.90082L4.89442 4.74846C4.92788 4.71606 4.95444 4.67756 4.97256 4.63516C4.99067 4.59276 5 4.54729 5 4.50138C5 4.45546 4.99067 4.41 4.97256 4.3676C4.95444 4.3252 4.92788 4.28669 4.89442 4.2543V4.25459Z" fill="#CC329B"/>
</svg>
