<svg width="60" height="10" viewBox="0 0 60 10" fill="none" xmlns="http://www.w3.org/2000/svg">
<g clip-path="url(#clip0)">
<path d="M8.99799 3.4606C8.93894 3.27792 8.77691 3.14818 8.58522 3.1309L5.98137 2.89447L4.95174 0.484518C4.87582 0.3079 4.70292 0.193573 4.51082 0.193573C4.31871 0.193573 4.14581 0.3079 4.06989 0.484931L3.04026 2.89447L0.436 3.1309C0.244652 3.14859 0.0830386 3.27792 0.0236381 3.4606C-0.0357623 3.64327 0.0190953 3.84364 0.163845 3.96994L2.13204 5.69606L1.55167 8.25262C1.5092 8.4406 1.58216 8.63491 1.73813 8.74765C1.82196 8.80822 1.92005 8.83906 2.01896 8.83906C2.10424 8.83906 2.18883 8.81607 2.26475 8.77064L4.51082 7.42824L6.75606 8.77064C6.92035 8.86948 7.12746 8.86046 7.28309 8.74765C7.43913 8.63456 7.51202 8.44019 7.46955 8.25262L6.88917 5.69606L8.85737 3.97028C9.00212 3.84364 9.05739 3.64362 8.99799 3.4606Z" fill="#FFC107"/>
</g>
<g clip-path="url(#clip1)">
<path d="M21.7426 3.4606C21.6836 3.27792 21.5215 3.14818 21.3298 3.1309L18.726 2.89447L17.6964 0.484518C17.6205 0.3079 17.4475 0.193573 17.2554 0.193573C17.0633 0.193573 16.8904 0.3079 16.8145 0.484931L15.7849 2.89447L13.1806 3.1309C12.9893 3.14859 12.8277 3.27792 12.7683 3.4606C12.7089 3.64327 12.7637 3.84364 12.9085 3.96994L14.8767 5.69606L14.2963 8.25262C14.2538 8.4406 14.3268 8.63491 14.4828 8.74765C14.5666 8.80822 14.6647 8.83906 14.7636 8.83906C14.8489 8.83906 14.9335 8.81607 15.0094 8.77064L17.2554 7.42824L19.5007 8.77064C19.665 8.86948 19.8721 8.86046 20.0277 8.74765C20.1838 8.63456 20.2566 8.44019 20.2142 8.25262L19.6338 5.69606L21.602 3.97028C21.7468 3.84364 21.802 3.64362 21.7426 3.4606Z" fill="#FFC107"/>
</g>
<g clip-path="url(#clip2)">
<path d="M34.4872 3.4606C34.4281 3.27792 34.2661 3.14818 34.0744 3.1309L31.4706 2.89447L30.4409 0.484518C30.365 0.3079 30.1921 0.193573 30 0.193573C29.8079 0.193573 29.635 0.3079 29.5591 0.484931L28.5295 2.89447L25.9252 3.1309C25.7338 3.14859 25.5722 3.27792 25.5128 3.4606C25.4534 3.64327 25.5083 3.84364 25.653 3.96994L27.6212 5.69606L27.0409 8.25262C26.9984 8.4406 27.0714 8.63491 27.2273 8.74765C27.3112 8.80822 27.4092 8.83906 27.5082 8.83906C27.5934 8.83906 27.678 8.81607 27.7539 8.77064L30 7.42824L32.2453 8.77064C32.4096 8.86948 32.6167 8.86046 32.7723 8.74765C32.9283 8.63456 33.0012 8.44019 32.9587 8.25262L32.3784 5.69606L34.3466 3.97028C34.4913 3.84364 34.5466 3.64362 34.4872 3.4606Z" fill="#FFC107"/>
</g>
<g clip-path="url(#clip3)">
<path d="M47.2319 3.4606C47.1728 3.27792 47.0108 3.14818 46.8191 3.1309L44.2153 2.89447L43.1856 0.484518C43.1097 0.3079 42.9368 0.193573 42.7447 0.193573C42.5526 0.193573 42.3797 0.3079 42.3038 0.484931L41.2741 2.89447L38.6699 3.1309C38.4785 3.14859 38.3169 3.27792 38.2575 3.4606C38.1981 3.64327 38.253 3.84364 38.3977 3.96994L40.3659 5.69606L39.7856 8.25262C39.7431 8.4406 39.816 8.63491 39.972 8.74765C40.0559 8.80822 40.1539 8.83906 40.2528 8.83906C40.3381 8.83906 40.4227 8.81607 40.4986 8.77064L42.7447 7.42824L44.9899 8.77064C45.1542 8.86948 45.3614 8.86046 45.517 8.74765C45.673 8.63456 45.7459 8.44019 45.7034 8.25262L45.1231 5.69606L47.0913 3.97028C47.236 3.84364 47.2913 3.64362 47.2319 3.4606Z" fill="#FFC107"/>
</g>
<g clip-path="url(#clip4)">
<path d="M55.5805 3.4838L55.9324 4.30734L56.8243 4.38832L57.0596 4.40969L56.8788 4.56822L56.2072 5.1571L56.4049 6.02814L56.4574 6.25939L56.2591 6.14081L55.4895 5.68067L54.7198 6.14068L54.5208 6.25962L54.5734 6.02814L54.7711 5.1572L54.0996 4.56832L53.9188 4.40972L54.1544 4.38833L55.0463 4.30736L55.3981 3.48388L55.4894 3.27041L55.5805 3.4838Z" stroke="#A61899" stroke-width="3"/>
</g>
<defs>
<clipPath id="clip0">
<rect width="9.02148" height="9.02148" fill="white"/>
</clipPath>
<clipPath id="clip1">
<rect width="9.02148" height="9.02148" fill="white" transform="translate(12.7446)"/>
</clipPath>
<clipPath id="clip2">
<rect width="9.02148" height="9.02148" fill="white" transform="translate(25.4892)"/>
</clipPath>
<clipPath id="clip3">
<rect width="9.02148" height="9.02148" fill="white" transform="translate(38.2339)"/>
</clipPath>
<clipPath id="clip4">
<rect width="9.02148" height="9.02148" fill="white" transform="translate(50.9785)"/>
</clipPath>
</defs>
</svg>
