<svg width="167" height="25" viewBox="0 0 167 25" fill="none" xmlns="http://www.w3.org/2000/svg">
<g clip-path="url(#clip0)">
<path d="M24.9348 9.58984C24.7712 9.08362 24.3222 8.72407 23.791 8.6762L16.5753 8.02101L13.722 1.34263C13.5116 0.853196 13.0325 0.536377 12.5001 0.536377C11.9678 0.536377 11.4886 0.853196 11.2782 1.34378L8.42497 8.02101L1.20814 8.6762C0.677886 8.72522 0.230029 9.08362 0.0654206 9.58984C-0.0991878 10.0961 0.0528318 10.6513 0.453957 11.0013L5.90816 15.7847L4.29984 22.8693C4.18216 23.3902 4.38434 23.9287 4.81656 24.2411C5.04888 24.409 5.32068 24.4944 5.59478 24.4944C5.8311 24.4944 6.06552 24.4307 6.27591 24.3048L12.5001 20.5848L18.7221 24.3048C19.1774 24.5787 19.7513 24.5538 20.1826 24.2411C20.615 23.9277 20.817 23.3891 20.6993 22.8693L19.091 15.7847L24.5452 11.0023C24.9463 10.6513 25.0994 10.097 24.9348 9.58984Z" fill="#FFC107"/>
</g>
<g clip-path="url(#clip1)">
<path d="M60.9348 9.58984C60.7712 9.08362 60.3222 8.72407 59.791 8.6762L52.5753 8.02101L49.722 1.34263C49.5116 0.853196 49.0325 0.536377 48.5001 0.536377C47.9678 0.536377 47.4886 0.853196 47.2782 1.34378L44.425 8.02101L37.2081 8.6762C36.6779 8.72522 36.23 9.08362 36.0654 9.58984C35.9008 10.0961 36.0528 10.6513 36.454 11.0013L41.9082 15.7847L40.2998 22.8693C40.1822 23.3902 40.3843 23.9287 40.8166 24.2411C41.0489 24.409 41.3207 24.4944 41.5948 24.4944C41.8311 24.4944 42.0655 24.4307 42.2759 24.3048L48.5001 20.5848L54.7221 24.3048C55.1774 24.5787 55.7513 24.5538 56.1826 24.2411C56.615 23.9277 56.817 23.3891 56.6993 22.8693L55.091 15.7847L60.5452 11.0023C60.9463 10.6513 61.0994 10.097 60.9348 9.58984Z" fill="#FFC107"/>
</g>
<g clip-path="url(#clip2)">
<path d="M95.9348 9.58984C95.7712 9.08362 95.3222 8.72407 94.791 8.6762L87.5753 8.02101L84.722 1.34263C84.5116 0.853196 84.0325 0.536377 83.5001 0.536377C82.9678 0.536377 82.4886 0.853196 82.2782 1.34378L79.425 8.02101L72.2081 8.6762C71.6779 8.72522 71.23 9.08362 71.0654 9.58984C70.9008 10.0961 71.0528 10.6513 71.454 11.0013L76.9082 15.7847L75.2998 22.8693C75.1822 23.3902 75.3843 23.9287 75.8166 24.2411C76.0489 24.409 76.3207 24.4944 76.5948 24.4944C76.8311 24.4944 77.0655 24.4307 77.2759 24.3048L83.5001 20.5848L89.7221 24.3048C90.1774 24.5787 90.7513 24.5538 91.1826 24.2411C91.615 23.9277 91.817 23.3891 91.6993 22.8693L90.091 15.7847L95.5452 11.0023C95.9463 10.6513 96.0994 10.097 95.9348 9.58984Z" fill="#FFC107"/>
</g>
<g clip-path="url(#clip3)">
<path d="M130.935 9.58984C130.771 9.08362 130.322 8.72407 129.791 8.6762L122.575 8.02101L119.722 1.34263C119.512 0.853196 119.032 0.536377 118.5 0.536377C117.968 0.536377 117.489 0.853196 117.278 1.34378L114.425 8.02101L107.208 8.6762C106.678 8.72522 106.23 9.08362 106.065 9.58984C105.901 10.0961 106.053 10.6513 106.454 11.0013L111.908 15.7847L110.3 22.8693C110.182 23.3902 110.384 23.9287 110.817 24.2411C111.049 24.409 111.321 24.4944 111.595 24.4944C111.831 24.4944 112.066 24.4307 112.276 24.3048L118.5 20.5848L124.722 24.3048C125.177 24.5787 125.751 24.5538 126.183 24.2411C126.615 23.9277 126.817 23.3891 126.699 22.8693L125.091 15.7847L130.545 11.0023C130.946 10.6513 131.099 10.097 130.935 9.58984Z" fill="#FFC107"/>
</g>
<g clip-path="url(#clip4)">
<path d="M157.196 8.61033L157.548 9.43388L158.44 9.51486L165.26 10.1342L160.102 14.6568L159.43 15.2457L159.628 16.1168L161.148 22.8119L155.27 19.2974L154.5 18.8373L153.731 19.2973L147.851 22.8112L149.371 16.1168L149.569 15.2458L148.897 14.6569L143.74 10.1341L150.561 9.51486L151.452 9.4339L151.804 8.61042L154.5 2.30115L157.196 8.61033Z" stroke="#A61899" stroke-width="3"/>
</g>
<defs>
<clipPath id="clip0">
<rect width="25" height="25" fill="white"/>
</clipPath>
<clipPath id="clip1">
<rect width="25" height="25" fill="white" transform="translate(36)"/>
</clipPath>
<clipPath id="clip2">
<rect width="25" height="25" fill="white" transform="translate(71)"/>
</clipPath>
<clipPath id="clip3">
<rect width="25" height="25" fill="white" transform="translate(106)"/>
</clipPath>
<clipPath id="clip4">
<rect width="25" height="25" fill="white" transform="translate(142)"/>
</clipPath>
</defs>
</svg>
