<svg width="550" height="490" viewBox="0 0 550 490" fill="none" xmlns="http://www.w3.org/2000/svg">
<path d="M229.731 349.204H229.876C240.838 349.223 251.345 353.594 259.086 361.356C266.828 369.118 271.171 379.636 271.161 390.598C271.152 401.561 266.79 412.071 259.035 419.819C251.28 427.568 240.766 431.92 229.803 431.92C218.841 431.92 208.327 427.568 200.572 419.819C192.817 412.071 188.455 401.561 188.445 390.598C188.436 379.636 192.779 369.118 200.52 361.356C208.262 353.594 218.768 349.223 229.731 349.204ZM393.026 83.2327C408.379 83.2327 426.222 87.0142 446.989 96.4682C477.046 110.176 496.641 140.48 500.707 177.356C504.772 214.233 493.269 257.652 461.076 297.472C409.394 361.444 350.25 404.989 269.551 406.117C272.084 399.644 273.002 392.651 272.225 385.743C271.449 378.836 269.001 372.221 265.094 366.472C261.187 360.722 255.939 356.011 249.803 352.745C243.666 349.48 236.827 347.758 229.876 347.729H229.718C218.376 347.733 207.499 352.24 199.479 360.26C191.459 368.28 186.952 379.157 186.949 390.499C186.949 391.678 186.999 392.844 187.093 394.003C84.4676 363.574 36.3028 288.749 51.1707 232.7C55.0847 217.933 63.3663 211.485 74.8498 209.607C86.3332 207.729 101.081 210.609 117.418 214.958C150.103 223.7 189.167 238.366 222.42 231.622C255.673 224.878 276.95 200.071 292.631 174.337C300.472 161.474 306.919 148.358 312.8 137.12C318.68 125.883 323.905 116.517 329.224 111.197C340.071 100.351 354.435 89.8126 373.62 85.3945C379.987 83.9444 386.497 83.2192 393.026 83.2327ZM392.484 81.7515C386.01 81.7697 379.559 82.5075 373.248 83.9512C353.71 88.445 339.107 99.1783 328.14 110.151C322.556 115.735 317.3 125.177 311.445 136.44C305.589 147.702 299.154 160.774 291.358 173.568C275.772 199.157 254.803 223.548 222.124 230.166C189.444 236.784 150.601 222.3 117.802 213.527C101.415 209.115 86.5348 206.172 74.6165 208.119C62.6983 210.067 53.7548 217.126 49.7337 232.303C34.5507 289.562 83.6924 365.093 187.201 395.573H187.251C188.365 404.909 192.523 413.618 199.083 420.353C205.644 427.088 214.24 431.474 223.544 432.833C232.847 434.192 242.339 432.448 250.552 427.871C258.764 423.293 265.24 416.137 268.977 407.51L269.103 407.636C350.571 406.659 410.283 362.692 462.242 298.417C494.656 258.326 506.297 214.504 502.188 177.205C498.078 139.906 478.194 109.073 447.607 95.1131C428.579 86.4407 411.921 82.5079 397.331 81.8776C395.692 81.8083 394.072 81.7768 392.484 81.7894V81.7515ZM150.299 63.1335C153.415 63.1335 156.461 64.0576 159.053 65.789C161.644 67.5204 163.663 69.9812 164.856 72.8604C166.048 75.7395 166.36 78.9076 165.753 81.9641C165.145 85.0206 163.644 87.8281 161.44 90.0317C159.237 92.2353 156.429 93.736 153.373 94.344C150.316 94.952 147.148 94.6399 144.269 93.4474C141.39 92.2548 138.929 90.2352 137.198 87.6441C135.466 85.0529 134.542 82.0065 134.542 78.8901C134.542 74.7112 136.202 70.7035 139.157 67.7485C142.112 64.7936 146.12 63.1335 150.299 63.1335ZM150.299 61.6461C146.889 61.6449 143.555 62.6549 140.72 64.5486C137.884 66.4422 135.673 69.1343 134.368 72.2843C133.063 75.4344 132.721 78.9008 133.386 82.2452C134.05 85.5896 135.692 88.6616 138.103 91.0727C140.515 93.4839 143.587 95.1257 146.931 95.7906C150.275 96.4556 153.742 96.1137 156.892 94.8082C160.042 93.5027 162.734 91.2924 164.628 88.4567C166.521 85.621 167.531 82.2874 167.53 78.8775C167.527 74.3085 165.71 69.9276 162.479 66.6968C159.249 63.466 154.868 61.6495 150.299 61.6461Z" fill="#F4CCC7"/>
<path d="M470.706 377.415C467.59 377.415 464.544 378.339 461.953 380.07C459.361 381.802 457.342 384.262 456.149 387.142C454.957 390.021 454.645 393.189 455.253 396.245C455.861 399.302 457.361 402.109 459.565 404.313C461.768 406.517 464.576 408.017 467.633 408.625C470.689 409.233 473.857 408.921 476.736 407.729C479.615 406.536 482.076 404.516 483.808 401.925C485.539 399.334 486.463 396.288 486.463 393.171C486.463 388.992 484.803 384.985 481.848 382.03C478.893 379.075 474.885 377.415 470.706 377.415ZM470.706 375.921C474.116 375.921 477.449 376.932 480.283 378.826C483.118 380.72 485.327 383.412 486.632 386.562C487.937 389.712 488.278 393.178 487.613 396.522C486.948 399.865 485.306 402.937 482.895 405.348C480.485 407.758 477.413 409.4 474.069 410.065C470.726 410.73 467.26 410.389 464.11 409.084C460.96 407.78 458.268 405.57 456.374 402.736C454.48 399.901 453.469 396.568 453.469 393.159C453.472 388.588 455.289 384.205 458.521 380.974C461.753 377.742 466.136 375.924 470.706 375.921Z" fill="#F4CCC7"/>
<path d="M58.4759 419.05C64.684 419.088 73.514 433.905 80.6864 456.324C84.7453 448.471 88.7349 444.519 92.0312 445.111C97.2813 446.057 100.01 458.599 99.1405 477.816C111.456 480.267 118.521 483.986 118.628 488.076C118.635 488.443 118.588 488.808 118.49 489.16H0C1.4244 486.444 5.84255 483.81 12.7565 481.541C5.82364 470.713 3.47906 462.847 6.40348 459.904C9.83842 456.444 20.0739 460.181 33.6939 469.874C31.2674 460.685 31.5699 454.666 34.5385 452.857C38.0616 450.74 45.045 454.748 53.7741 463.931C49.7278 438.878 51.2909 420.638 57.5935 419.163C57.8782 419.094 58.1703 419.06 58.4633 419.063L58.4759 419.05Z" fill="#56BB6A"/>
<path d="M52.2363 452.353C52.6019 456.072 53.1124 459.954 53.7553 463.956C53.7553 463.956 59.3835 472.307 61.8289 478.137L64.2681 483.967C64.2681 483.967 62.5475 465.381 52.2363 452.353Z" fill="black"/>
<path d="M12.7376 481.56L17.5843 489.18C14.5418 487.683 11.9948 485.342 10.248 482.436L12.7691 481.56H12.7376Z" fill="black"/>
<path d="M491.537 419.05C485.322 419.088 476.492 433.905 469.32 456.324C465.261 448.471 461.271 444.519 457.975 445.111C452.719 446.057 449.996 458.599 450.866 477.816C438.55 480.267 431.479 483.986 431.378 488.076C431.366 488.442 431.41 488.808 431.51 489.16H550C548.582 486.444 544.164 483.81 537.243 481.541C544.214 470.713 546.521 462.847 543.603 459.904C540.161 456.443 529.926 460.181 516.306 469.874C518.739 460.685 518.436 454.666 515.461 452.857C511.938 450.74 504.961 454.748 496.232 463.931C500.259 438.853 498.69 420.613 492.381 419.126C492.096 419.057 491.804 419.023 491.511 419.025L491.537 419.05Z" fill="#56BB6A"/>
<path d="M497.776 452.353C497.404 456.072 496.9 459.954 496.257 463.956C496.257 463.956 490.629 472.307 488.184 478.137L485.738 483.967C485.738 483.967 487.465 465.381 497.776 452.353Z" fill="black"/>
<path d="M537.269 481.56L532.429 489.18C535.465 487.672 538.004 485.325 539.746 482.417L537.225 481.541L537.269 481.56Z" fill="black"/>
<path d="M271.341 151.969C272.11 153.898 272.4 164.669 274.738 168.073C276.553 170.707 288.049 174.81 293.161 176.537C296.942 181.182 312.806 200.487 323.312 211.038C326.193 213.931 333 220.548 341.59 213.149C343.991 211.088 348.523 206.046 352.273 201.899C357.315 196.371 333.208 188.077 333.208 188.077L300.39 164.234C300.39 164.234 296.911 155.682 295.285 152.889C293.658 150.097 291.56 141.62 290.696 139.446C289.833 137.272 286.789 140.814 286.877 143.965C286.965 147.116 287.116 149.467 287.116 149.467C287.116 149.467 276.925 143.738 275.519 143.228C271.543 141.835 270.566 150.041 271.341 151.969Z" fill="#F9B098"/>
<path d="M382.735 167.108L352.28 201.899L333.215 188.077C333.215 188.077 340.954 163.257 344.03 153.287C351.221 129.967 397.691 148.244 382.735 167.108Z" fill="#F48032"/>
<path d="M304.083 166.913L300.396 164.234L296.06 170.587C296.06 170.587 295.228 171.747 296.69 171.621C297.894 171.52 302.363 169.018 304.064 166.913H304.083Z" fill="black"/>
<path d="M352.948 200.556C353.673 195.13 333.215 188.077 333.215 188.077C335.786 193.699 345.032 202.932 348.392 206.178L352.28 201.899C352.634 201.529 352.867 201.061 352.948 200.556Z" fill="black"/>
<path d="M333.215 188.077L352.28 201.899C352.28 201.899 362.056 204.874 362.012 200.556C361.967 196.239 350.27 188.544 343.104 186.312C335.938 184.081 333.24 188.077 333.24 188.077H333.215Z" fill="white"/>
<path d="M280.619 152.114C283.998 156.23 285.094 163.894 285.296 166.925C285.441 169.024 284.773 171.791 284.344 173.31L285.485 173.757C286.115 173.127 286.815 171.867 287.489 169.528C288.29 166.736 288.12 164.53 286.739 160.806C285.359 157.081 287.124 149.461 287.124 149.461C287.124 149.461 278.47 149.517 280.619 152.133V152.114Z" fill="black"/>
<path d="M232.019 419.208L224.38 467.738L211.012 466.194C211.012 466.194 209.808 429.695 211.29 416.8C212.771 403.905 230.645 406.93 232.019 419.201V419.208Z" fill="#F9B098"/>
<path d="M221.241 408.518C223.993 408.799 226.566 410.016 228.528 411.966C230.49 413.917 231.722 416.482 232.018 419.233C232.018 419.233 221.146 423.248 210.886 422.138C210.987 420.128 211.113 418.319 211.289 416.831C212.008 410.592 216.571 408.077 221.241 408.544V408.518Z" fill="black"/>
<path d="M228.118 443.466L224.38 467.744L211.012 466.2C211.012 466.2 210.817 454.389 210.861 441.469L228.118 443.466Z" fill="#EF9F34"/>
<path d="M119.075 478.686L74.1689 458.744L79.1228 446.265C79.1228 446.265 114.689 454.547 126.758 459.305C138.828 464.064 131.283 480.564 119.075 478.711V478.686Z" fill="#F9B098"/>
<path d="M121.742 457.521C123.173 457.988 128.354 476.127 125.026 478.112C123.124 478.805 121.076 479.003 119.076 478.686L115.352 477.034C116.763 472.169 119.259 463.931 121.742 457.496V457.521Z" fill="black"/>
<path d="M96.67 468.639L74.1885 458.744L79.1234 446.265C79.1234 446.265 90.5816 449.126 103.073 452.517L96.67 468.639Z" fill="#EF9F34"/>
<path d="M85.8798 447.954C82.4764 451.654 78.2347 457.83 76.8292 459.929L74.1758 458.763L79.1234 446.265C79.1234 446.265 81.8335 446.946 85.8798 447.986V447.954Z" fill="black"/>
<path d="M229.523 347.83C240.049 347.83 248.482 357.36 245.608 368.087C244.347 379.28 238.183 394.558 234.692 410.075C238.335 416.617 233.601 419.706 233.122 419.63H212.254C211.492 419.825 204.559 418.477 209.979 410.712C208.895 405.443 209.04 395.22 209.349 385.186L169.081 399.247C169.081 399.247 174.93 462.816 173.6 471.589C172.27 480.362 165.092 489.161 155.518 489.161C145.944 489.161 127.591 481.698 127.591 481.698C127.169 483.091 119.643 484.219 119.076 478.686C120.74 472.478 120.437 462.374 121.742 457.521C124.666 452.435 130.856 458.007 130.856 458.353L142.61 462.135L127.698 411.714C118.496 393.159 107.441 374.654 116.152 355.62L153.533 358.526C179.165 355.727 218.929 347.811 229.523 347.811V347.83Z" fill="#8A4299"/>
<path d="M210.93 459.223C215.38 461.561 222.445 464.051 224.796 464.896L224.355 467.77L210.987 466.225C210.987 466.225 210.943 463.433 210.905 459.248L210.93 459.223Z" fill="black"/>
<path d="M208.044 473.713C211.042 473.369 214.015 472.832 216.944 472.106C220.933 471.04 219.767 464.864 219.767 464.864C206.273 463.301 208.044 466.83 208.044 473.688V473.713Z" fill="white"/>
<path d="M205.624 489.161C202.63 483.98 203.972 479.511 208.044 473.713C215.67 473.02 218.55 471.646 219.767 464.889H223.158C223.158 464.889 227.677 460.748 230.034 467.946C232.391 475.144 249.389 476.41 255.988 480.16C263.444 484.396 263.438 489.18 257.835 489.18L205.624 489.161Z" fill="#8A4299"/>
<path d="M205.39 478.137C207.34 479.257 209.14 480.619 210.748 482.19C213.64 485.089 219.08 484.61 219.08 484.61H261.169C262.725 487.169 261.446 489.167 257.828 489.167H205.623C203.436 485.385 203.575 481.969 205.39 478.144V478.137Z" fill="black"/>
<path d="M227.217 468.954C225.871 468.988 224.576 469.479 223.545 470.346C222.514 471.213 221.809 472.405 221.545 473.725C221.432 474.404 221.473 475.099 221.664 475.76C221.855 476.421 222.191 477.031 222.648 477.545C223.006 478.026 223.497 478.391 224.06 478.597C224.49 478.716 224.949 478.683 225.358 478.503C226.524 477.891 227.513 476.991 228.232 475.887C229.385 474.26 230.349 472.507 231.106 470.662C230.061 469.638 228.678 469.031 227.217 468.954ZM236.993 465.803C237.497 465.802 237.999 465.878 238.48 466.03C239.133 466.228 239.728 466.582 240.214 467.062C240.699 467.542 241.06 468.133 241.266 468.784C241.682 470.108 241.127 473.133 240.226 475.018C239.795 474.89 239.383 474.703 239.003 474.463C239.835 472.717 240.264 470.108 239.98 469.188C239.832 468.748 239.585 468.348 239.257 468.02C238.929 467.692 238.529 467.444 238.089 467.297C234.774 465.923 232.631 470.618 232.612 470.656C231.739 472.763 230.638 474.769 229.329 476.637C228.345 477.967 227.217 479.158 225.856 479.707C225.166 479.986 224.404 480.028 223.688 479.826C222.865 479.552 222.145 479.036 221.62 478.345C221.047 477.679 220.625 476.896 220.384 476.05C220.144 475.205 220.09 474.317 220.228 473.448C220.536 471.805 221.41 470.322 222.696 469.255C223.983 468.188 225.602 467.605 227.274 467.606C228.91 467.638 230.486 468.227 231.742 469.276C232.175 468.344 232.838 467.537 233.668 466.932C234.498 466.327 235.469 465.943 236.488 465.816C236.66 465.806 236.833 465.806 237.005 465.816L236.993 465.803Z" fill="#A86DAE"/>
<path d="M238.196 471.28C238.284 471.289 238.369 471.315 238.448 471.356C238.526 471.398 238.595 471.455 238.651 471.523C238.707 471.592 238.749 471.671 238.775 471.756C238.801 471.84 238.809 471.929 238.801 472.017C238.792 472.106 238.766 472.191 238.724 472.269C238.683 472.347 238.626 472.417 238.557 472.473C238.489 472.529 238.41 472.571 238.325 472.597C238.241 472.622 238.152 472.631 238.063 472.622C237.837 472.596 237.608 472.618 237.391 472.686C237.173 472.754 236.973 472.868 236.803 473.02C236.596 473.215 236.435 473.455 236.334 473.721C236.232 473.988 236.192 474.273 236.217 474.557C236.226 474.651 236.215 474.745 236.186 474.835C236.156 474.924 236.108 475.006 236.045 475.076C235.982 475.145 235.905 475.201 235.819 475.239C235.733 475.277 235.64 475.297 235.545 475.297C235.451 475.297 235.358 475.277 235.272 475.239C235.186 475.201 235.109 475.145 235.046 475.076C234.983 475.006 234.935 474.924 234.905 474.835C234.876 474.745 234.865 474.651 234.874 474.557C234.86 474.089 234.944 473.622 235.121 473.188C235.297 472.754 235.564 472.361 235.902 472.036C236.216 471.76 236.585 471.551 236.984 471.424C237.383 471.297 237.804 471.255 238.221 471.299L238.196 471.28Z" fill="#A86DAE"/>
<path d="M242.633 473.826C242.811 473.844 242.975 473.931 243.088 474.07C243.201 474.208 243.255 474.386 243.238 474.564C243.22 474.742 243.133 474.905 242.994 475.019C242.856 475.132 242.678 475.186 242.5 475.169C242.275 475.143 242.046 475.164 241.829 475.231C241.612 475.298 241.411 475.41 241.24 475.56C241.037 475.76 240.88 476.001 240.78 476.268C240.68 476.534 240.639 476.82 240.66 477.104C240.66 477.283 240.589 477.454 240.463 477.581C240.336 477.707 240.165 477.778 239.986 477.778C239.807 477.778 239.635 477.707 239.509 477.581C239.382 477.454 239.311 477.283 239.311 477.104C239.296 476.635 239.38 476.168 239.557 475.734C239.734 475.3 240 474.907 240.339 474.583C240.652 474.305 241.021 474.096 241.42 473.969C241.82 473.842 242.241 473.8 242.658 473.845L242.633 473.826Z" fill="#A86DAE"/>
<path d="M209.172 401.453C211.031 403.501 213.773 406.262 215.859 407.226C219.319 408.821 217.989 410.712 217.989 410.712H209.979C209.463 407.652 209.193 404.556 209.172 401.453Z" fill="black"/>
<path d="M72.0137 443.964C72.3075 446.548 72.7665 449.11 73.3876 451.635C74.3078 455.07 79.621 454.074 79.621 454.074C80.9823 442.445 77.9382 443.99 72.0137 443.99V443.964Z" fill="white"/>
<path d="M72.0134 443.958C72.6059 450.532 73.7908 453.021 79.6207 454.042V462.337C79.6207 462.337 85.8162 466.238 79.6207 468.261C75.4988 469.61 72.4798 471.343 69.9651 477.501C71.8145 478.475 73.6054 479.557 75.3286 480.74C81.2909 485.108 80.7993 489.646 76.003 489.079L65.9188 489.009L61.7527 485.971L58.6455 478.471L58.6833 443.29C60.7821 442.086 69.3537 442.13 72.0071 443.996L72.0134 443.958Z" fill="#8A4299"/>
<path d="M68.1565 442.754C67.2218 444.531 66.0609 446.179 64.7027 447.658C63.9657 448.421 63.3993 449.332 63.0407 450.33C62.6822 451.329 62.5397 452.392 62.6228 453.45V478.976C62.7488 482.669 64.3308 484.856 66.8834 485.196L79.3374 485.108C80.4151 487.453 79.142 489.135 76.0222 489.117L65.938 489.047H65.9065C62.9127 488.638 58.5954 488.058 58.7214 480.778V443.258C60.7635 442.08 66.9149 442.162 68.1754 442.754H68.1565Z" fill="black"/>
<path d="M78.1147 466.433C78.3826 465.283 78.2283 464.075 77.6798 463.03C77.18 461.999 76.3317 461.177 75.2848 460.711C74.7404 460.476 74.1502 460.366 73.5579 460.39C72.9655 460.414 72.3861 460.571 71.8625 460.849C71.3867 461.048 70.9808 461.383 70.6965 461.813C70.5028 462.146 70.4335 462.537 70.5011 462.916C70.7817 463.996 71.3277 464.988 72.0894 465.803C73.2141 467.102 74.4828 468.269 75.871 469.282C76.9453 468.621 77.7376 467.586 78.0958 466.377L78.1147 466.433ZM78.7134 475.257C78.609 475.68 78.4434 476.086 78.2218 476.461C77.9211 476.967 77.5017 477.392 76.9999 477.699C76.498 478.007 75.9288 478.187 75.3415 478.226C74.1503 478.301 71.894 477.394 70.5011 476.253C70.652 475.876 70.8354 475.513 71.0494 475.169C72.3415 476.221 74.4339 477.116 75.2659 477.06C75.6643 477.021 76.0486 476.892 76.3895 476.683C76.7303 476.473 77.0187 476.188 77.2323 475.849C79.0601 473.328 75.5684 470.599 75.5369 470.58C73.9552 469.416 72.5054 468.083 71.2133 466.603C70.2674 465.625 69.6127 464.403 69.3225 463.074C69.2299 462.438 69.3495 461.789 69.6628 461.227C70.061 460.595 70.6411 460.099 71.3267 459.803C72.0049 459.453 72.7519 459.257 73.5144 459.229C74.2769 459.201 75.0363 459.341 75.7386 459.639C77.0508 460.234 78.1136 461.269 78.7432 462.565C79.3727 463.861 79.5294 465.337 79.1861 466.736C78.8253 468.101 78.0064 469.3 76.8668 470.133C77.5525 470.69 78.0857 471.411 78.4164 472.23C78.7471 473.049 78.8645 473.939 78.7576 474.816C78.7576 474.961 78.7071 475.106 78.6756 475.251L78.7134 475.257Z" fill="#A86DAE"/>
<path d="M74.5353 472.824C74.5193 472.976 74.4442 473.115 74.3263 473.212C74.2083 473.309 74.0569 473.355 73.905 473.341C73.829 473.335 73.755 473.313 73.6874 473.278C73.6197 473.243 73.5598 473.194 73.5111 473.136C73.4624 473.077 73.4259 473.009 73.4037 472.936C73.3815 472.863 73.3741 472.787 73.3819 472.711C73.4082 472.512 73.3914 472.31 73.3327 472.119C73.274 471.927 73.1747 471.751 73.0415 471.601C72.8704 471.425 72.6625 471.288 72.4327 471.201C72.2029 471.114 71.9568 471.079 71.7117 471.097C71.5579 471.097 71.4104 471.036 71.3017 470.927C71.1929 470.819 71.1318 470.671 71.1318 470.517C71.1318 470.364 71.1929 470.216 71.3017 470.107C71.4104 469.999 71.5579 469.937 71.7117 469.937C72.1187 469.922 72.5245 469.993 72.9024 470.145C73.2803 470.297 73.6219 470.527 73.905 470.82C74.1426 471.092 74.3212 471.411 74.4297 471.756C74.5381 472.101 74.5741 472.465 74.5353 472.824Z" fill="#A86DAE"/>
<path d="M72.8839 475.162C72.8776 475.238 72.8562 475.312 72.8209 475.38C72.7857 475.448 72.7373 475.508 72.6786 475.556C72.6199 475.605 72.5521 475.642 72.4791 475.664C72.4062 475.686 72.3295 475.693 72.2536 475.686C72.1007 475.671 71.9598 475.597 71.8618 475.479C71.7637 475.36 71.7165 475.208 71.7305 475.055C71.7568 474.857 71.7401 474.655 71.6813 474.464C71.6226 474.272 71.5233 474.096 71.3902 473.946C71.219 473.77 71.0112 473.633 70.7814 473.546C70.5515 473.459 70.3054 473.423 70.0603 473.442C69.9065 473.442 69.759 473.381 69.6503 473.272C69.5416 473.163 69.4805 473.016 69.4805 472.862C69.4805 472.708 69.5416 472.561 69.6503 472.452C69.759 472.343 69.9065 472.282 70.0603 472.282C70.4674 472.267 70.8731 472.338 71.251 472.49C71.6289 472.642 71.9705 472.872 72.2536 473.165C72.4923 473.435 72.6718 473.753 72.7803 474.097C72.8889 474.441 72.9241 474.804 72.8839 475.162Z" fill="#A86DAE"/>
<path d="M219.237 372.896C219.454 372.892 219.669 372.935 219.867 373.022C220.071 373.111 220.254 373.242 220.405 373.406C220.556 373.57 220.671 373.763 220.743 373.974C220.952 374.433 221.121 374.909 221.248 375.398C221.606 376.852 221.882 378.325 222.073 379.81C222.578 383.333 222.994 387.896 223.334 392.415C224.002 401.478 224.33 410.397 224.33 410.397C224.339 410.459 224.339 410.523 224.33 410.586L222.307 419.636H220.781L222.849 410.371C222.849 410.289 222.521 401.51 221.859 392.522C221.531 388.009 221.115 383.465 220.599 380.005C220.408 378.589 220.143 377.183 219.804 375.795C219.702 375.396 219.567 375.006 219.401 374.629C219.367 374.559 219.325 374.493 219.275 374.434C219.086 374.413 218.896 374.413 218.708 374.434C218.273 374.484 217.68 374.597 216.956 374.761C215.506 375.089 213.552 375.619 211.283 376.293C206.739 377.635 200.909 379.526 195.161 381.455C183.665 385.306 172.472 389.295 172.472 389.295C172.285 389.361 172.08 389.351 171.902 389.265C171.723 389.18 171.586 389.028 171.52 388.841C171.454 388.655 171.465 388.45 171.55 388.272C171.635 388.093 171.787 387.956 171.974 387.89C171.974 387.89 183.148 383.9 194.663 380.043C200.417 378.114 206.26 376.211 210.836 374.862C213.13 374.188 215.103 373.646 216.603 373.305C217.359 373.135 217.989 373.016 218.493 372.952C218.719 372.916 218.946 372.893 219.174 372.883L219.237 372.896ZM169.78 356.414C168.64 357.445 167.413 358.375 166.112 359.194C159.583 363.341 148.087 367.356 127.729 369.02C128.454 372.109 128.464 375.323 127.761 378.417C127.299 380.4 126.517 382.294 125.448 384.026C125.58 384.36 128.599 391.999 131.864 400.413C133.521 404.712 135.223 409.155 136.572 412.823C137.92 416.491 138.929 419.327 139.238 420.626C139.83 423.103 140.618 429.078 141.273 434.491C141.929 439.905 142.452 444.777 142.452 444.777C142.473 444.974 142.415 445.17 142.291 445.324C142.167 445.478 141.987 445.576 141.79 445.597C141.594 445.618 141.397 445.56 141.244 445.436C141.09 445.311 140.992 445.131 140.971 444.935C140.971 444.935 140.454 440.101 139.799 434.681C139.143 429.26 138.324 423.185 137.794 420.96C137.536 419.907 136.534 416.983 135.179 413.327C133.824 409.672 132.135 405.235 130.477 400.943C127.553 393.323 125.032 387.02 124.401 385.507C122.616 387.836 120.397 389.797 117.865 391.281C117.67 390.82 117.487 390.354 117.305 389.894C123.053 386.39 125.397 381.978 126.292 378.083C126.966 375.136 126.938 372.073 126.21 369.139C122.151 369.442 117.739 369.652 112.975 369.77C112.975 369.272 112.975 368.774 113.025 368.276C142.647 367.646 157.704 362.767 165.293 357.946C165.879 357.574 166.415 357.202 166.919 356.83L169.761 356.427L169.78 356.414Z" fill="#A96EAE"/>
<path d="M130.855 458.353V470.158C130.855 470.158 132.488 470.435 133.244 467.637C134 464.839 137.095 460.395 137.095 460.395L130.855 458.372V458.353Z" fill="black"/>
<path d="M169.081 399.247L166.906 382.608C175.503 390.247 191.814 388.444 209.317 385.186L169.081 399.247Z" fill="black"/>
<path d="M142.61 462.154L150.173 467.335C150.173 467.335 152.568 466.54 150.173 463.08C147.778 459.62 146.448 445.521 141.129 437.813C135.81 430.105 127.673 411.72 127.673 411.72L142.585 462.141L142.61 462.154Z" fill="black"/>
<path d="M179.493 204.243C179.493 204.243 178.232 218.248 182.644 226.504C200.72 260.154 167.001 253.732 167.001 253.732C167.001 253.732 170.31 206.279 179.468 204.243H179.493Z" fill="#C84F49"/>
<path d="M173.146 349.658C173.411 349.658 179.625 359.364 175.22 359.975C150.589 363.385 138.349 364.343 114.286 359.975C110.177 359.232 119.567 348.183 119.838 348.196L173.146 349.658Z" fill="white"/>
<path d="M148.137 258.408L108.267 273.037C108.267 273.037 123.935 315.958 122.448 335.994C120.393 346.078 114.04 350.566 118.036 353.181C140.914 356.024 149.933 357.908 175.295 353.181C180.299 341.307 177.917 340.229 179.077 332.452C179.077 332.452 193.485 277.02 194.298 273.037C190.113 270.301 170.978 259.114 170.978 259.114L148.15 258.408H148.137Z" fill="#F48032"/>
<path d="M148.137 258.408L170.965 259.114C170.965 259.114 178.163 263.331 184.73 267.232C176.102 280.984 168.18 287.4 164.291 287.968C160.402 288.535 140.038 279.075 129.803 265.133L148.137 258.408Z" fill="#F9B098"/>
<path d="M143.473 329.704C143.473 329.704 140.479 337.349 133.13 339.423C129.128 340.437 125.03 341.028 120.903 341.187C121.567 339.506 122.084 337.771 122.447 336C122.504 335.288 122.529 334.544 122.542 333.782C128.656 333.593 137.568 332.754 143.473 329.704Z" fill="black"/>
<path d="M150.809 256.297C150.809 256.297 150.003 289.228 147.028 309.195C144.053 329.162 146.832 334.922 136.944 335.824C133.1 336.228 129.236 336.407 125.372 336.359C121.307 336.221 112.716 336.901 117.242 326.01C115.313 315.422 111.626 297.415 109.647 292.285C106.937 285.27 105.235 277.159 108.298 273.037C111.361 268.915 145.547 258.629 150.835 256.297H150.809Z" fill="#EF9F34"/>
<path d="M152.045 229.971L151.326 255.812C151.326 275.123 172.125 275.041 172.125 259.139L168.343 241.057L152.057 229.996L152.045 229.971Z" fill="#F9B098"/>
<path d="M158.14 234.112L168.325 241.044L169.989 248.992C166.737 249.251 162.117 248.992 158.524 246.162C152.316 241.303 158.134 234.112 158.134 234.112H158.14Z" fill="black"/>
<path d="M177.375 207.754L175.264 233.595C175.264 233.595 173.404 243.711 165.854 243.711C160.503 243.711 152.045 233.683 151.988 228.465C151.931 223.246 151.988 214.857 151.988 206.701C151.988 198.546 178.459 194.777 177.407 207.779L177.375 207.754Z" fill="#F9B098"/>
<path d="M172.932 219.42C172.932 219.42 175.687 222.861 176.909 222.861C178.132 222.861 177.294 226.076 174.842 225.924C172.39 225.773 170.985 217.473 172.951 219.42H172.932Z" fill="black"/>
<path d="M170.789 204.067C170.789 204.067 167.733 219.723 160.535 224.128C153.337 228.534 149.291 224.847 149.291 224.847L154.15 228.899C154.15 228.899 165.123 228.446 169.535 214.952C173.947 201.458 170.165 197.865 170.165 197.865L170.796 204.067H170.789Z" fill="#C84F49"/>
<path d="M170.159 271.505C170.159 271.505 168.949 292.461 168.148 306.586C167.348 320.71 167.688 330.063 167.688 330.063C167.688 330.063 176.512 285.806 175.963 277.442C175.415 269.079 172.409 271.058 170.159 271.505Z" fill="black"/>
<path d="M170.966 259.114C170.966 259.114 194.802 269.526 195.741 271.184C196.529 272.583 188.884 309.113 184.939 323.653C184.22 326.3 186.565 327.901 185.481 330.208C182.329 336.826 170.461 334.79 168.325 334.027C166.188 333.265 166.636 329.83 167.543 325.374C168.451 320.918 175.378 273.692 174.703 270.163C174.029 266.633 170.966 259.114 170.966 259.114Z" fill="#EF9F34"/>
<path d="M150.81 256.297C150.81 256.297 158.499 261.099 165.823 261.144C172.888 261.597 170.071 255.307 170.997 253.814C170.997 253.814 175.63 251.835 179.506 254.444C183.382 257.053 179.311 259.839 180.306 261.547C181.302 263.255 184.056 269.646 170.6 275.224C157.144 280.801 144.066 275.224 140.398 269.822C136.73 264.421 138.583 258.849 139.869 256.511C141.154 254.173 151.213 254.444 151.213 254.444L150.791 256.297H150.81Z" fill="white"/>
<path d="M157.97 259.858C157.97 259.858 154.156 267.049 155.222 271.833C156.287 276.617 160.831 275.841 164.839 274.89C166.907 274.398 167.613 275.274 167.808 276.238C162.136 277.982 156.072 277.982 150.4 276.238C149.6 273.056 150.558 267.837 157.963 259.852L157.97 259.858Z" fill="#CCDEF2"/>
<path d="M160.54 260.557C160.54 260.557 153.759 260.74 151.881 272.161C150.002 283.581 153.236 292.493 151.692 296.993C150.147 301.493 150.198 300.775 150.198 300.775C147.18 301.83 143.971 302.226 140.788 301.934C135.746 301.399 133.042 298.878 133.042 298.878C133.042 298.878 136.597 296.451 136.71 289.701C136.824 282.951 136.08 271.984 139.962 263.98C143.845 255.975 151.263 253.543 155.971 255.156C160.679 256.77 165.482 261.144 165.482 261.144C163.591 261.194 162.173 260.765 160.54 260.551V260.557Z" fill="white"/>
<path d="M158.55 190.686C160.085 190.65 161.622 190.734 163.144 190.939C163.144 190.939 162.892 191.323 162.514 191.878C165.804 191.102 169.516 191.966 173.468 195.792C173.468 195.792 178.705 190.018 182.771 192.439C186.836 194.859 179.493 204.243 179.493 204.243L177.376 207.729C177.376 205.769 176.745 201.558 172.497 203.991C169.132 205.914 165.369 223.832 154.812 221.418C154.362 221.313 153.919 221.185 153.482 221.034C153.35 223.895 153.482 226.801 154.15 228.874C156.041 234.546 161.26 246.137 155.682 252.704C150.104 259.272 134.631 256.486 131.303 248.835C127.975 241.183 138.677 230.488 138.047 222.754C137.417 215.021 134.265 204.313 142.093 196.579C146.991 191.745 153.986 190.737 158.55 190.661V190.686Z" fill="#C84F49"/>
<path d="M149.113 208.208C149.113 208.208 153.336 194.972 161.977 193.365C169.03 192.041 173.492 195.792 173.492 195.792C173.492 195.792 169.912 190.037 160.559 190.579C151.206 191.121 141.103 206.059 149.113 208.227V208.208Z" fill="black"/>
<path d="M180.268 260.211C180.182 260.424 180.14 260.653 180.147 260.883C180.153 261.113 180.208 261.339 180.306 261.547C180.666 262.158 180.927 262.822 181.081 263.513C180.52 263.927 179.915 264.28 179.279 264.566C176.487 265.776 171.501 265.266 176.726 262.719C178.058 262.114 179.26 261.258 180.268 260.198V260.211Z" fill="black"/>
<path d="M141.38 307.821C141.349 307.939 141.345 308.062 141.37 308.181C141.395 308.301 141.447 308.413 141.523 308.508C141.6 308.603 141.697 308.679 141.808 308.729C141.919 308.78 142.04 308.803 142.162 308.798C142.438 308.787 142.704 308.685 142.917 308.509C143.129 308.332 143.278 308.091 143.341 307.821C143.374 307.703 143.378 307.579 143.354 307.459C143.33 307.338 143.277 307.226 143.201 307.13C143.125 307.034 143.027 306.957 142.915 306.907C142.803 306.856 142.681 306.832 142.559 306.838C142.282 306.849 142.016 306.952 141.803 307.129C141.59 307.307 141.441 307.55 141.38 307.821Z" fill="black"/>
<path d="M140.637 317.741C140.605 317.859 140.602 317.982 140.627 318.102C140.651 318.221 140.704 318.333 140.78 318.428C140.856 318.523 140.954 318.599 141.065 318.649C141.176 318.7 141.297 318.723 141.419 318.718C141.695 318.707 141.96 318.606 142.173 318.429C142.386 318.253 142.535 318.011 142.597 317.741C142.629 317.624 142.633 317.5 142.608 317.381C142.583 317.262 142.531 317.15 142.454 317.055C142.378 316.959 142.281 316.884 142.17 316.833C142.059 316.783 141.938 316.759 141.816 316.764C141.539 316.775 141.274 316.877 141.061 317.053C140.848 317.23 140.699 317.472 140.637 317.741Z" fill="black"/>
<path d="M139.559 328.046C139.526 328.163 139.521 328.287 139.545 328.406C139.569 328.526 139.621 328.638 139.697 328.733C139.773 328.828 139.87 328.904 139.981 328.955C140.092 329.005 140.213 329.029 140.334 329.023C140.612 329.014 140.879 328.913 141.093 328.736C141.307 328.559 141.457 328.317 141.519 328.046C141.551 327.929 141.555 327.805 141.53 327.686C141.505 327.566 141.452 327.455 141.376 327.36C141.3 327.264 141.203 327.189 141.092 327.138C140.981 327.088 140.86 327.064 140.738 327.069C140.461 327.08 140.196 327.182 139.983 327.358C139.77 327.535 139.621 327.777 139.559 328.046Z" fill="black"/>
<path d="M197.513 338.105C197.287 337.847 196.988 337.664 196.656 337.582C194.5 336.882 182.159 331.279 177.325 331.821C175.97 332 174.628 332.261 173.304 332.603C173.766 331.971 174.188 331.31 174.565 330.624C177.042 326.111 174.281 325.242 173.342 326.376C172.403 327.51 160.863 335.553 160.863 335.553L139.018 332.868L136.528 349.74C144.071 349.398 151.571 348.415 158.947 346.803C158.947 346.803 170.752 350.484 176.594 350.238C180.376 350.08 183.086 350.294 183.344 348.24C183.483 347.118 184.359 347.124 186.653 346.916C189.95 346.607 189.256 341.42 189.256 341.42C189.256 341.42 190.889 342.088 194.179 341.257C196.857 340.582 198.263 339.038 197.538 338.105H197.513Z" fill="#F9B098"/>
<path d="M185.096 338.137C185.096 338.137 190.825 338.357 194.014 341.288C191.808 342.328 189.999 341.521 189.224 341.42L185.096 338.137Z" fill="black"/>
<path d="M108.266 273.037L108.601 272.722C119.529 262.877 137.876 272.627 132.443 291.957C129.393 302.798 118.023 330.29 118.023 330.29L134.939 332.37C133.956 332.861 132.878 333.864 131.788 335.748C129.431 339.889 127.672 345.7 127.565 350.049C122.296 350.187 117.241 350.232 113.157 350.099C109.25 349.979 100.18 349.545 99.7327 338.704C99.6066 335.679 100.174 329.25 100.621 323.893L105.033 279.881C105.319 277.31 106.444 274.904 108.235 273.037H108.266Z" fill="#EF9F34"/>
<path d="M156.608 334.992L160.856 335.553L159.243 342.731C159.243 342.731 158.978 344.061 158.096 342.952C157.377 342.044 156.261 337.563 156.608 334.992Z" fill="black"/>
<path d="M139.012 332.868L136.522 349.752C136.522 349.752 131.65 358.23 128.845 355.16C126.041 352.091 128.247 342.007 131.808 335.748C135.369 329.489 139.012 332.868 139.012 332.868Z" fill="white"/>
<path d="M118.023 330.296L110.586 332.269C110.586 332.269 109.817 332.351 110.353 331.008C110.889 329.666 120.437 324.384 120.437 324.384L118.042 330.271L118.023 330.296Z" fill="black"/>
<path d="M139.011 332.868L141.053 349.482L136.521 349.74L139.011 332.868Z" fill="black"/>
<path d="M282.995 288.201C282.829 288.16 282.656 288.157 282.488 288.19C282.32 288.224 282.162 288.294 282.024 288.396C280.512 289.298 264.201 297.585 264.201 297.585C264.183 295.933 264.284 294.282 264.503 292.644C264.875 289.65 262.701 287.602 261.673 289.569C260.646 291.535 258.1 297.188 256.291 299.722C254.482 302.256 250.795 307.789 250.795 307.789L230.481 316.248L236.645 332.149C246.912 324.586 253.127 319.033 253.31 319.418C258.352 318.252 269.696 315.882 271.65 313.537C273.018 311.918 275.293 305.306 275.779 300.151L281.968 292.858C283.859 290.64 283.915 288.516 283.001 288.201H282.995Z" fill="#F9B098"/>
<path d="M174.192 279.409L174.325 278.98C178.97 265.013 199.737 264.434 204.577 283.921C207.281 294.85 210.975 324.378 210.975 324.378L226.731 317.823C226.101 318.737 225.685 320.149 225.679 322.311C225.679 327.076 227.021 333.025 229.069 336.807C224.563 339.53 220.189 342.063 216.571 343.973C213.111 345.794 205.012 349.891 199.271 340.689C197.67 338.124 194.972 332.231 192.722 327.372L174.823 286.947C173.798 284.56 173.587 281.902 174.224 279.383L174.192 279.409Z" fill="#EF9F34"/>
<path d="M230.475 316.248L236.652 332.187C236.652 332.187 236.601 341.962 232.656 340.677C228.71 339.391 225.628 329.54 225.635 322.336C225.641 315.132 230.475 316.273 230.475 316.273V316.248Z" fill="white"/>
<path d="M210.955 324.378L205.466 329.767C205.466 329.767 204.835 330.214 204.646 328.802C204.457 327.391 210.13 318.088 210.13 318.088L210.955 324.391V324.378Z" fill="black"/>
<path d="M230.481 316.248L240.616 329.263L236.652 332.149L230.481 316.248Z" fill="black"/>
<path d="M250.795 307.79L251.122 313.222C251.122 313.222 250.851 313.853 249.906 312.876C248.961 311.899 246.257 309.724 246.257 309.724L250.795 307.771V307.79Z" fill="black"/>
<path d="M264.2 297.585C264.2 297.585 263.028 302.218 260.791 304.115C258.553 306.012 256.883 313.279 258.427 315.17C259.971 317.061 261.2 316.846 261.37 316.569C261.541 316.292 261.074 309.8 262.757 306.825C264.257 304.338 265.985 301.996 267.919 299.829C268.908 298.663 264.2 297.592 264.2 297.592V297.585Z" fill="black"/>
<path d="M266.173 99.5376C265.693 99.6355 265.244 99.8521 264.869 100.168C262.845 101.838 259.826 104.479 259.385 105.557C258.787 107.101 259.272 111.462 259.505 113.12C259.719 114.658 260.766 121.351 261.736 122.574C262.707 123.796 269.388 126.664 270.919 127.282C271.663 127.584 273.699 128.372 275.709 129.04L281.823 189.086C283.083 197.909 294.289 196.252 293.054 187.611L283.795 128.101C285.875 126.721 288.125 125.026 288.882 124.433C290.111 123.475 295.386 119.221 295.947 117.777C296.539 116.233 295.657 109.105 295.43 107.466C295.216 105.929 294.567 101.996 293.59 100.792C292.915 99.9536 289.909 98.3716 287.413 97.3695C285.428 96.5754 283.184 97.8611 283.537 100.307C284.205 105.008 284.577 108.828 284.451 109.345C284.211 110.284 280.209 114.948 278.344 115.25C276.478 115.553 271.411 112.099 270.862 111.204C270.591 110.769 269.854 106.742 269.167 101.933C268.909 100.117 267.528 99.2855 266.173 99.5376Z" fill="#56BB6A"/>
<path d="M293.06 187.573C292.065 187.155 290.984 186.982 289.909 187.069L288.087 187.214C288.087 187.214 287.52 186.987 288.27 186.079C289.02 185.172 290.659 172.44 290.659 172.44L293.085 187.567L293.06 187.573Z" fill="black"/>
<path d="M283.796 128.101L280.752 130.503C280.752 130.503 280.121 131.171 281.224 131.725C282.327 132.28 284.678 133.78 284.678 133.78L283.796 128.108V128.101Z" fill="black"/>
<path d="M259.392 330.183H206.128C205.184 330.222 204.292 330.625 203.638 331.306C202.983 331.988 202.618 332.897 202.618 333.841C202.618 334.786 202.983 335.695 203.638 336.376C204.292 337.058 205.184 337.461 206.128 337.5H259.392C260.336 337.461 261.228 337.058 261.882 336.376C262.536 335.695 262.902 334.786 262.902 333.841C262.902 332.897 262.536 331.988 261.882 331.306C261.228 330.625 260.336 330.222 259.392 330.183Z" fill="black"/>
<path d="M326.225 281.362H251.393C247.706 281.362 245.784 284.482 244.738 288.012L232.082 330.87C231.036 334.399 233.053 337.519 236.733 337.519H310.21C313.897 337.519 317.483 334.399 318.523 330.87L331.185 288.012C332.231 284.482 329.924 281.362 326.225 281.362Z" fill="#4F469C"/>
<path d="M286.322 303.447C287.133 303.453 287.935 303.605 288.692 303.894C288.177 304.764 287.858 305.735 287.757 306.741C287.657 307.746 287.778 308.762 288.111 309.716C288.444 310.67 288.982 311.54 289.686 312.264C290.391 312.988 291.246 313.55 292.19 313.909C291.572 314.955 290.689 315.82 289.631 316.417C288.572 317.015 287.376 317.323 286.161 317.312C284.946 317.302 283.755 316.971 282.707 316.355C281.66 315.739 280.793 314.858 280.193 313.801C279.594 312.745 279.282 311.549 279.29 310.334C279.298 309.118 279.626 307.927 280.239 306.878C280.853 305.829 281.732 304.96 282.787 304.358C283.843 303.756 285.038 303.442 286.253 303.447H286.322Z" fill="white"/>
<path d="M195.621 100.338C198.182 100.328 200.72 100.824 203.089 101.797C205.458 102.769 207.612 104.2 209.427 106.007C211.242 107.814 212.683 109.962 213.667 112.326C214.65 114.691 215.157 117.227 215.159 119.788C215.163 123.636 214.026 127.4 211.892 130.602C209.758 133.805 206.723 136.303 203.17 137.782C199.616 139.26 195.705 139.652 191.929 138.909C188.153 138.165 184.682 136.32 181.955 133.605C179.227 130.889 177.366 127.427 176.605 123.654C175.845 119.882 176.219 115.969 177.682 112.409C179.144 108.849 181.629 105.803 184.821 103.654C188.014 101.506 191.772 100.352 195.621 100.338ZM192.217 67.1421C189.923 67.1421 188.436 69.0329 188.083 71.2766L185.681 86.882C183.514 87.547 181.419 88.4297 179.429 89.5165L166.692 80.1507C164.839 78.7957 162.456 78.5309 160.836 80.1507L156.009 84.9785C154.389 86.6046 154.654 88.987 156.009 90.8337L165.526 103.811C164.549 105.724 163.753 107.724 163.15 109.786L147.135 112.225C144.872 112.572 143 114.072 143 116.366V123.191C143 125.486 144.891 126.973 147.135 127.332L163.521 129.853C164.144 131.734 164.931 133.556 165.872 135.299L156.009 148.78C154.654 150.627 154.389 153.009 156.009 154.635L160.836 159.463C162.456 161.083 164.839 160.818 166.692 159.463L180.349 149.41C182.013 150.255 183.743 150.959 185.524 151.516L188.108 168.306C188.455 170.568 189.948 172.44 192.243 172.44H199.075C201.369 172.44 202.856 170.55 203.215 168.306L205.793 151.516C207.573 150.956 209.303 150.252 210.968 149.41L224.613 159.457C226.46 160.812 228.842 161.077 230.462 159.457L235.29 154.629C236.916 153.003 236.651 150.621 235.29 148.774L225.426 135.324C226.371 133.581 227.158 131.756 227.777 129.872L244.164 127.351C246.433 127.005 248.305 125.505 248.305 123.21V116.385C248.305 114.097 246.414 112.603 244.164 112.25L228.149 109.786C227.55 107.722 226.755 105.722 225.773 103.811L235.327 90.8337C236.689 88.9807 236.953 86.5983 235.327 84.9785L230.5 80.1507C228.88 78.5309 226.497 78.7957 224.651 80.1507L211.863 89.5354C209.874 88.4459 207.779 87.5632 205.61 86.9009L203.215 71.2577C202.862 68.9951 201.369 67.1232 199.075 67.1232L192.217 67.1421Z" fill="#5F95CF"/>
<path d="M186.559 145.118L180.351 149.41C181.507 149.995 182.696 150.513 183.912 150.961L186.559 145.093V145.118Z" fill="black"/>
<path d="M204.76 145.118L210.968 149.436C209.812 150.022 208.623 150.539 207.407 150.986L204.76 145.118Z" fill="black"/>
<path d="M185.663 93.8273L179.455 89.5353C180.569 88.9249 181.718 88.3819 182.896 87.9092L185.663 93.8463V93.8273Z" fill="black"/>
<path d="M205.661 93.8273L211.863 89.5163C210.749 88.8842 209.591 88.3344 208.396 87.8713L205.661 93.8273Z" fill="black"/>
<path d="M164.417 106.199C163.934 107.372 163.513 108.569 163.156 109.786L170.53 108.147L164.423 106.199H164.417Z" fill="black"/>
<path d="M163.522 129.872C163.919 131.081 164.386 132.266 164.922 133.421L170.897 131.53L163.522 129.872Z" fill="black"/>
<path d="M226.901 106.199C227.389 107.37 227.81 108.567 228.161 109.786L220.787 108.147L226.894 106.199H226.901Z" fill="black"/>
<path d="M227.803 129.872C227.402 131.081 226.933 132.265 226.398 133.421L220.423 131.53L227.803 129.872Z" fill="black"/>
<path d="M176.209 120.494C175.887 121.87 175.724 123.278 175.724 124.691C175.724 135.286 184.648 143.877 195.659 143.877C206.67 143.877 215.594 135.286 215.594 124.691C215.596 123.281 215.435 121.874 215.115 120.5C214.958 125.555 212.839 130.349 209.208 133.869C205.577 137.388 200.719 139.356 195.662 139.356C190.605 139.356 185.747 137.388 182.116 133.869C178.485 130.349 176.367 125.555 176.209 120.5V120.494Z" fill="black"/>
<path d="M307.928 33.196C313.089 33.1977 318.039 35.2487 321.688 38.8983C325.338 42.5479 327.389 47.4973 327.391 52.6586C327.392 56.5091 326.251 60.2736 324.113 63.4759C321.975 66.6783 318.935 69.1746 315.378 70.6493C311.821 72.124 307.907 72.5108 304.13 71.7609C300.353 71.0109 296.883 69.1578 294.16 66.4359C291.436 63.714 289.581 60.2456 288.828 56.4692C288.076 52.6929 288.46 48.7782 289.933 45.2203C291.405 41.6623 293.899 38.6209 297.1 36.4806C300.301 34.3403 304.065 33.1973 307.916 33.196H307.928ZM304.531 0C302.237 0 300.749 1.89079 300.39 4.14083L297.995 19.7399C295.828 20.4065 293.734 21.2891 291.743 22.3744L278.974 13.0087C277.127 11.6536 274.745 11.3889 273.125 13.0087L268.291 17.8428C266.671 19.4626 266.936 21.845 268.291 23.6916L277.814 36.6688C276.832 38.5816 276.036 40.5846 275.438 42.65L259.423 45.108C257.154 45.4609 255.282 46.9547 255.282 49.2488V56.0809C255.282 58.3688 257.173 59.8625 259.423 60.2154L275.81 62.7365C276.434 64.6164 277.221 66.4385 278.161 68.182L268.291 81.6318C266.936 83.4848 266.671 85.8672 268.291 87.487L273.125 92.3148C274.745 93.9346 277.127 93.6699 278.974 92.3148L292.638 82.2936C294.299 83.1382 296.028 83.8424 297.806 84.3987L300.39 101.189C300.737 103.452 302.237 105.323 304.531 105.323H311.363C313.651 105.323 315.145 103.433 315.498 101.189L318.082 84.3987C319.86 83.8424 321.589 83.1382 323.25 82.2936L336.914 92.3148C338.761 93.6699 341.143 93.9346 342.769 92.3148L347.597 87.487C349.217 85.8672 348.952 83.4785 347.597 81.6318L337.733 68.182C338.674 66.4385 339.46 64.6164 340.084 62.7365L356.471 60.2154C358.734 59.8688 360.606 58.3688 360.606 56.0746V49.2488C360.606 46.9547 358.715 45.4672 356.471 45.108L340.45 42.6437C339.851 40.5815 339.057 38.5808 338.08 36.6688L347.597 23.6916C348.952 21.845 349.217 19.4626 347.597 17.8428L342.769 13.0087C341.143 11.3889 338.761 11.6536 336.914 13.0087L324.151 22.3744C322.16 21.2902 320.066 20.4076 317.899 19.7399L315.498 4.13453C315.151 1.87188 313.651 0 311.363 0H304.531Z" fill="#F48032"/>
<path d="M298.84 77.9825L292.638 82.2935C293.791 82.8797 294.978 83.3974 296.192 83.844L298.84 77.9825Z" fill="black"/>
<path d="M317.048 77.9825L323.25 82.2935C322.096 82.8797 320.909 83.3974 319.695 83.844L317.048 77.9825Z" fill="black"/>
<path d="M297.945 26.6854L291.743 22.3744C292.855 21.7652 294.002 21.2222 295.178 20.7483L297.945 26.6854Z" fill="black"/>
<path d="M317.943 26.6854L324.151 22.3744C323.035 21.7422 321.875 21.1924 320.679 20.7294L317.943 26.6854Z" fill="black"/>
<path d="M276.705 39.0575C276.217 40.2278 275.796 41.4252 275.444 42.6437L282.818 41.005L276.711 39.0575H276.705Z" fill="black"/>
<path d="M275.804 62.7366C276.207 63.9414 276.674 65.1238 277.203 66.2787L283.178 64.3879L275.804 62.7492V62.7366Z" fill="black"/>
<path d="M339.189 39.0575C339.674 40.2289 340.095 41.4261 340.449 42.6437L333.075 41.005L339.189 39.0575Z" fill="black"/>
<path d="M340.085 62.7366C339.686 63.9422 339.221 65.1248 338.692 66.2787L332.717 64.3879L340.091 62.7492L340.085 62.7366Z" fill="black"/>
<path d="M288.491 53.3518C288.17 54.7279 288.007 56.1362 288.006 57.5494C288.006 68.1441 296.937 76.7346 307.947 76.7346C318.958 76.7346 327.883 68.1441 327.883 57.5494C327.882 56.1383 327.719 54.732 327.397 53.3581C327.24 58.4124 325.121 63.207 321.49 66.7265C317.859 70.246 313.001 72.2141 307.944 72.2141C302.888 72.2141 298.029 70.246 294.398 66.7265C290.767 63.207 288.649 58.4124 288.491 53.3581V53.3518Z" fill="black"/>
<path d="M219.243 346.589H232.12L207.3 489.161H200.814L219.243 346.589Z" fill="black"/>
<path d="M311.709 346.589H298.833L323.647 489.161H330.138L311.709 346.589Z" fill="black"/>
<path d="M208.322 337.5H319.248C322.86 337.5 325.765 340.242 325.765 343.639C325.765 347.036 322.86 349.784 319.248 349.784H208.322C204.71 349.784 201.805 347.042 201.805 343.639C201.805 340.235 204.71 337.5 208.322 337.5Z" fill="#F5933D"/>
<path d="M264.018 417.689L319.437 468.261H208.599L264.018 417.689ZM222.893 378.196H305.143L264.018 415.729L222.893 378.196ZM221.04 376.501L220.744 376.791H220.309V377.213L220 377.509L220.309 377.793V378.196H220.75L262.946 416.706L204.918 469.648H320.975L321.296 469.944L321.599 469.648H322.021V469.232L322.305 468.954L321.996 468.677V468.267H321.555L265.064 416.718L308.798 376.803H221.355L221.04 376.514V376.501Z" fill="black"/>
<path d="M489.041 435.55L494.921 446.649C491.877 452.712 485.032 457.786 479.656 459.021L469.074 444.343L476.07 436.149L489.041 435.576V435.55Z" fill="#F9B098"/>
<path d="M476.089 436.111L469.093 444.305C469.093 444.305 485.517 445.635 491.536 440.183L489.041 435.55L476.07 436.124L476.089 436.111Z" fill="black"/>
<path d="M503.871 451.307C501.211 453.005 498.442 454.528 495.583 455.864C491.65 457.622 488.53 451.849 488.53 451.849C498.457 441.695 499.346 445.723 503.871 451.307Z" fill="white"/>
<path d="M503.871 451.307C497.222 455.763 493.976 456.544 488.53 451.849L480.715 458.183C480.715 458.183 472.307 455.315 475.137 462.715C476.398 466.093 474.79 471.009 472.408 476.051C469.577 477.121 466.808 478.348 464.114 479.726C456.317 484.137 456.33 489.18 462.185 489.18L482.303 488.121L511.875 464.902C510.892 458.725 507.589 452.725 503.858 451.294L503.871 451.307Z" fill="#4F469C"/>
<path d="M480.381 463.559C481.602 462.811 483.05 462.523 484.465 462.746C485.842 462.926 487.113 463.581 488.057 464.599C488.537 465.135 488.89 465.772 489.092 466.462C489.294 467.152 489.339 467.879 489.223 468.589C489.181 469.214 488.95 469.812 488.562 470.303C488.252 470.648 487.83 470.871 487.37 470.933C486.356 471.135 484.849 470.82 483.368 470.234C481.434 469.449 479.6 468.437 477.904 467.221C478.253 465.733 479.134 464.424 480.381 463.54V463.559ZM470.013 466.288C469.562 466.568 469.158 466.917 468.816 467.322C468.353 467.863 468.029 468.508 467.87 469.201C467.71 469.895 467.721 470.617 467.902 471.305C468.273 472.704 470.423 475.087 472.313 476.24C472.594 475.864 472.795 475.435 472.906 474.98C471.192 473.902 469.528 471.942 469.269 470.965C469.157 470.492 469.155 470 469.265 469.527C469.374 469.053 469.591 468.611 469.9 468.236C472.061 465.16 476.587 468.116 476.618 468.141C478.567 469.512 480.659 470.666 482.858 471.583C484.478 472.213 486.148 472.641 487.641 472.352C488.41 472.218 489.111 471.827 489.627 471.242C490.197 470.54 490.546 469.685 490.629 468.784C490.762 467.874 490.695 466.947 490.434 466.065C490.173 465.184 489.723 464.37 489.116 463.679C487.953 462.407 486.377 461.587 484.667 461.366C482.91 461.112 481.12 461.499 479.625 462.456C478.195 463.401 477.132 464.807 476.612 466.44C475.709 465.858 474.673 465.515 473.602 465.444C472.53 465.372 471.458 465.574 470.486 466.03C470.322 466.112 470.171 466.206 470.019 466.301L470.013 466.288Z" fill="#837AB9"/>
<path d="M508.308 455.322C507.186 457.383 505.919 459.885 505.742 461.58C505.654 462.77 505.275 463.921 504.638 464.93C504.002 465.94 503.128 466.778 502.093 467.372L481.131 484.396H458.706C457.073 487.068 458.41 489.161 462.198 489.161H478.515C481.036 489.161 483.078 488.764 484.704 487.566L511.888 464.877C511.361 461.478 510.142 458.224 508.308 455.315V455.322Z" fill="black"/>
<path d="M471.766 472.106C471.618 472.22 471.521 472.389 471.498 472.574C471.474 472.76 471.525 472.947 471.64 473.095C471.755 473.242 471.924 473.337 472.109 473.36C472.294 473.384 472.48 473.334 472.629 473.221C472.816 473.065 473.034 472.95 473.269 472.886C473.504 472.822 473.75 472.809 473.99 472.849C474.281 472.91 474.555 473.034 474.793 473.213C475.03 473.392 475.225 473.62 475.364 473.883C475.464 474.041 475.622 474.152 475.804 474.193C475.986 474.235 476.177 474.202 476.335 474.104C476.493 474.003 476.605 473.843 476.646 473.66C476.687 473.478 476.655 473.286 476.556 473.127C476.306 472.7 475.969 472.331 475.567 472.044C475.165 471.756 474.708 471.556 474.224 471.456C473.793 471.385 473.352 471.405 472.928 471.513C472.505 471.622 472.109 471.817 471.766 472.087V472.106Z" fill="#837AB9"/>
<path d="M468.658 476.202C468.585 476.258 468.524 476.329 468.478 476.409C468.432 476.489 468.403 476.577 468.392 476.669C468.381 476.76 468.388 476.853 468.413 476.942C468.438 477.031 468.481 477.113 468.539 477.186C468.595 477.258 468.666 477.319 468.746 477.364C468.826 477.409 468.914 477.438 469.005 477.449C469.097 477.46 469.189 477.453 469.278 477.429C469.366 477.404 469.449 477.362 469.522 477.305C469.709 477.151 469.926 477.038 470.159 476.974C470.393 476.91 470.637 476.896 470.877 476.933C471.169 476.995 471.444 477.12 471.682 477.3C471.921 477.48 472.117 477.71 472.257 477.973C472.358 478.13 472.516 478.24 472.697 478.281C472.879 478.323 473.069 478.291 473.228 478.194C473.386 478.093 473.497 477.934 473.539 477.751C473.58 477.568 473.547 477.376 473.448 477.217C473.199 476.79 472.862 476.421 472.46 476.133C472.058 475.846 471.601 475.646 471.116 475.547C470.685 475.476 470.244 475.495 469.821 475.604C469.398 475.712 469.002 475.907 468.658 476.177V476.202Z" fill="#837AB9"/>
<path d="M370.116 230.715C370.116 230.715 363.939 336.599 363.183 347.162C362.616 355.129 365.893 411.046 365.326 437.441C357.92 446.347 367.488 451.483 368.042 451.452H389.868C393.253 448.061 400.16 448.093 396.41 434.113C401.282 419.718 406.438 396.234 401.736 349.305L408.039 304.38C412.199 325.33 419.428 349.078 420.77 352.828C423.461 360.354 447.638 409.552 457.748 433.924C454.552 445.061 469.092 444.33 469.092 444.33L489.04 435.55C490.78 431.082 495.519 429.399 486.456 418.111C486.286 405.978 475.742 369.448 455.907 342.706L453.216 304.392C451.533 281.703 449.63 258.257 448.54 253.165C446.283 242.633 443.233 230.727 443.233 230.727L370.116 230.715Z" fill="#4F469C"/>
<path d="M389.862 451.452L387.435 463.767C381.259 466.559 372.744 466.194 367.79 463.767L368.042 451.452L378.65 449.473L389.862 451.452Z" fill="#F9B098"/>
<path d="M378.65 449.473L368.043 451.452C368.043 451.452 380.73 457.08 388.842 456.633L389.863 451.452L378.65 449.473Z" fill="black"/>
<path d="M391.47 473.013C388.34 472.654 385.237 472.094 382.179 471.337C378.013 470.221 379.23 463.773 379.23 463.773C393.335 462.141 391.482 465.834 391.482 473.019L391.47 473.013Z" fill="white"/>
<path d="M394.003 489.161C397.155 483.747 395.724 479.076 391.482 473.013C383.51 472.282 380.497 470.845 379.23 463.767H369.146C369.146 463.767 364.425 456.248 361.961 463.767C359.497 471.286 341.723 475.812 334.859 479.726C327.063 484.137 327.069 489.18 332.925 489.18L394.003 489.161Z" fill="#4F469C"/>
<path d="M369.196 246.333C369.196 246.679 369.139 247.385 369.114 247.751C387.721 251.231 406.655 252.654 425.573 251.992C427.4 255.644 429.827 258.963 432.752 261.812C435.605 264.643 439.163 266.66 443.057 267.654L454.313 341.546C454.313 341.546 456.204 346.872 455.908 342.694L444.525 267.932C446.428 268.221 448.364 268.221 450.267 267.932C450.229 267.484 450.185 266.974 450.147 266.545C443.069 267.68 437.649 264.56 433.716 260.816C431.066 258.224 428.84 255.231 427.117 251.948C433.817 251.652 440.769 251.047 447.853 250.057C447.752 249.597 447.651 249.143 447.544 248.677C414.462 253.322 384.266 249.225 369.196 246.364V246.333Z" fill="#837AB9"/>
<path d="M362.22 467.366C363.653 467.386 365.033 467.918 366.108 468.866C367.175 469.754 367.898 470.987 368.15 472.351C368.269 473.061 368.228 473.788 368.03 474.479C367.831 475.171 367.481 475.809 367.003 476.347C366.63 476.852 366.114 477.234 365.522 477.444C365.073 477.569 364.595 477.536 364.167 477.349C363.203 476.978 362.113 475.912 361.161 474.62C359.952 472.92 358.945 471.084 358.161 469.15C359.251 468.08 360.694 467.445 362.22 467.366ZM352.003 464.12C351.475 464.118 350.95 464.196 350.446 464.353C349.764 464.562 349.143 464.933 348.636 465.435C348.129 465.937 347.751 466.554 347.535 467.234C347.1 468.614 347.673 471.778 348.619 473.757C349.062 473.616 349.486 473.419 349.879 473.171C349.016 471.349 348.556 468.627 348.858 467.656C349.017 467.198 349.279 466.783 349.625 466.443C349.97 466.103 350.389 465.847 350.85 465.696C354.316 464.259 356.56 469.169 356.572 469.206C357.486 471.407 358.638 473.502 360.007 475.452C361.035 476.845 362.22 478.112 363.638 478.667C364.359 478.958 365.157 479.002 365.907 478.793C366.765 478.502 367.518 477.962 368.068 477.242C368.679 476.548 369.13 475.728 369.39 474.841C369.651 473.953 369.714 473.02 369.575 472.106C369.249 470.39 368.335 468.842 366.99 467.728C365.645 466.614 363.953 466.005 362.207 466.005C360.495 466.036 358.846 466.654 357.537 467.757C357.084 466.781 356.39 465.937 355.522 465.303C354.653 464.669 353.637 464.267 352.57 464.133C352.392 464.123 352.213 464.123 352.035 464.133L352.003 464.12Z" fill="#837AB9"/>
<path d="M399.757 319.115C399.599 319.118 399.446 319.174 399.323 319.275C399.201 319.375 399.116 319.515 399.083 319.67C399.083 319.67 397.306 327.712 395.522 335.969C394.627 340.091 393.719 344.263 393.001 347.509C392.282 350.755 391.822 352.973 391.74 353.49C391.709 353.679 391.671 354.032 391.596 354.706C391.52 355.381 391.419 356.314 391.293 357.486C391.041 359.818 390.701 363.07 390.291 366.94C389.484 374.648 388.432 384.77 387.385 394.848C385.287 415.016 383.226 434.945 383.226 434.945V451.477H384.631V435.034C384.631 435.034 386.692 415.098 388.785 394.968C389.837 384.883 390.89 374.768 391.703 367.066C392.106 363.209 392.446 359.963 392.698 357.612C392.825 356.446 392.925 355.507 393.001 354.832C393.077 354.158 393.133 353.704 393.133 353.698C393.184 353.414 393.688 351.019 394.394 347.78C395.1 344.54 396.001 340.362 396.915 336.24C398.711 327.996 400.47 319.954 400.47 319.954C400.49 319.863 400.492 319.77 400.476 319.679C400.46 319.588 400.427 319.501 400.377 319.423C400.327 319.345 400.262 319.277 400.186 319.225C400.11 319.172 400.024 319.135 399.934 319.115H399.77H399.757Z" fill="#837AB9"/>
<path d="M398.85 270.049C398.85 270.049 395.005 271.745 395.005 278.136C395.005 284.526 395.566 320.269 400.047 329.861C401.389 332.71 402.568 334.847 403.507 336.466L408.02 304.38L398.824 270.049H398.85Z" fill="black"/>
<path d="M394.242 477.639C392.212 478.808 390.338 480.229 388.664 481.868C385.639 484.894 379.954 484.39 379.954 484.39H329.407C327.781 487.062 329.117 489.154 332.905 489.154H394.003C396.291 485.19 396.146 481.629 394.242 477.633V477.639Z" fill="black"/>
<path d="M350.742 469.824C350.651 469.832 350.561 469.858 350.48 469.901C350.398 469.944 350.326 470.002 350.267 470.073C350.209 470.144 350.165 470.226 350.138 470.314C350.111 470.402 350.103 470.495 350.112 470.587C350.131 470.772 350.223 470.942 350.367 471.06C350.511 471.178 350.696 471.235 350.881 471.217C351.122 471.187 351.366 471.209 351.599 471.279C351.831 471.35 352.046 471.468 352.23 471.627C352.446 471.834 352.614 472.085 352.723 472.364C352.832 472.643 352.878 472.942 352.86 473.24C352.86 473.427 352.934 473.607 353.067 473.739C353.199 473.872 353.379 473.946 353.566 473.946C353.753 473.946 353.933 473.872 354.065 473.739C354.198 473.607 354.272 473.427 354.272 473.24C354.29 472.747 354.202 472.256 354.015 471.8C353.828 471.343 353.546 470.932 353.188 470.593C352.859 470.303 352.473 470.085 352.056 469.953C351.638 469.82 351.197 469.776 350.761 469.824H350.742Z" fill="#837AB9"/>
<path d="M346.103 472.478C345.918 472.497 345.748 472.588 345.63 472.732C345.512 472.876 345.455 473.061 345.473 473.246C345.492 473.432 345.584 473.602 345.728 473.72C345.872 473.838 346.056 473.894 346.242 473.877C346.483 473.846 346.728 473.868 346.961 473.939C347.194 474.011 347.408 474.132 347.591 474.293C347.808 474.499 347.977 474.75 348.086 475.029C348.195 475.308 348.241 475.607 348.221 475.906C348.237 476.081 348.319 476.243 348.449 476.362C348.579 476.48 348.748 476.545 348.924 476.545C349.099 476.545 349.269 476.48 349.399 476.362C349.529 476.243 349.61 476.081 349.626 475.906C349.645 475.411 349.56 474.918 349.375 474.459C349.191 473.999 348.911 473.584 348.555 473.24C348.225 472.952 347.839 472.735 347.422 472.603C347.004 472.47 346.564 472.426 346.128 472.471L346.103 472.478Z" fill="#837AB9"/>
<path d="M402.228 407.894C396.934 419.813 384.581 434.926 387.934 434.592C391.923 434.189 396.411 434.12 396.411 434.12C399.266 425.607 401.216 416.816 402.228 407.894Z" fill="black"/>
<path d="M442.357 399.625C448.213 412.231 453.967 424.836 457.755 433.943L469.163 428.34C469.163 428.34 471.98 425.145 467.089 424.956C463.938 424.836 451.087 410.088 442.357 399.625Z" fill="black"/>
<path d="M371.811 222.635C371.528 222.635 366.246 233.349 370.847 234.011C396.549 237.578 422.1 239.519 447.317 234.95C451.622 234.168 441.96 222.635 441.645 222.635H371.811Z" fill="white"/>
<path d="M400.608 128.769L442.055 144.06C442.055 144.06 437.013 193.989 440.479 209.884C447.513 214.926 449.996 225.111 445.786 227.847C421.836 230.822 397.558 232.788 371.112 227.847C364.652 227.28 361.954 218.393 364.753 209.367C364.753 209.367 352.91 148.232 352.147 144.06C356.559 141.204 376.728 129.507 376.728 129.507L400.602 128.769H400.608Z" fill="#F48032"/>
<path d="M396.392 99.0396L397.142 126.028C397.142 146.196 375.417 146.127 375.417 129.507L379.369 110.599L396.386 99.0333L396.392 99.0396Z" fill="#F9B098"/>
<path d="M390.02 103.401L379.369 110.637L377.636 118.95C381.033 119.221 385.861 118.95 389.611 115.994C396.096 110.914 390.014 103.389 390.014 103.389L390.02 103.401Z" fill="black"/>
<path d="M371.377 75.8145V102.802C371.377 102.802 370.904 112.395 381.953 113.378C393.001 114.361 396.392 102.897 396.487 97.4388C396.581 91.9808 396.487 83.2201 396.487 74.6863C396.487 66.1525 371.377 62.1756 371.377 75.8145Z" fill="#F9B098"/>
<path d="M374.548 88.0164C374.548 88.0164 371.674 91.6089 370.394 91.6089C369.115 91.6089 369.991 94.9682 372.55 94.8106C375.108 94.6531 376.59 85.9869 374.548 88.0164Z" fill="black"/>
<path d="M391.697 144.646L397.445 140.914C397.445 140.914 395.409 136.61 393.291 137.171C391.173 137.732 389.913 142.32 391.697 144.646Z" fill="black"/>
<path d="M384.568 144.778L377.402 141.047C377.402 141.047 377.799 136.742 380.138 137.309C382.476 137.877 385.47 142.459 384.55 144.778H384.568Z" fill="black"/>
<path d="M403.956 129.998C403.779 133.887 402.922 139.314 400.269 146.152C400.269 146.152 413.662 139.736 417.286 134.914L403.968 129.998H403.956Z" fill="black"/>
<path d="M388.797 149.681C388.669 149.677 388.544 149.717 388.443 149.795C388.341 149.874 388.271 149.985 388.243 150.11C385.722 160.976 386.932 175.667 388.671 187.749C389.535 193.794 390.562 199.182 391.262 203.096C391.621 205.05 391.923 206.638 392.1 207.741C392.188 208.296 392.245 208.731 392.27 209.002C392.275 209.077 392.275 209.153 392.27 209.229C387.858 213.01 386.736 219.477 388.262 224.758C388.934 226.66 389.708 228.524 390.581 230.343L392.144 230.45C391.171 228.564 390.328 226.614 389.623 224.614C388.23 219.798 389.27 213.609 393.442 210.199C393.533 210.138 393.604 210.052 393.647 209.951C393.691 209.851 393.705 209.74 393.688 209.632C393.701 209.475 393.701 209.317 393.688 209.159C393.688 208.806 393.594 208.346 393.505 207.779C393.323 206.638 393.026 205.05 392.661 203.09C391.936 199.182 390.94 193.819 390.077 187.806C388.35 175.793 387.165 161.203 389.636 150.652C389.663 150.459 389.624 150.262 389.524 150.095C389.425 149.927 389.27 149.799 389.087 149.732C389.005 149.698 388.918 149.679 388.829 149.675L388.797 149.681Z" fill="black"/>
<path d="M376.721 123.034C366.29 125.977 374.005 147.078 377.591 146.48C380.156 146.057 377.062 137.807 380.194 138.204C382.873 138.545 384.158 143.076 384.48 144.393C384.48 144.494 384.568 144.778 384.568 144.778C385.072 147.425 385.123 154.232 388.299 154.427C390.82 154.597 390.587 138.475 393.574 138.072C396.562 137.669 396.656 145.288 399.322 146.347C401.989 147.406 407.516 137.171 405.965 131.252C404.415 125.334 397.041 123.059 397.041 123.059C397.085 123.305 397.589 130.187 391.841 133.918C389.73 135.286 388.892 138.154 388.948 140.599C387.891 140.866 386.785 140.866 385.728 140.599C384.718 137.875 382.826 135.567 380.352 134.045C376.57 131.908 376.721 123.034 376.721 123.034Z" fill="white"/>
<path d="M393.335 163.144C393.368 163.268 393.371 163.398 393.344 163.523C393.317 163.648 393.262 163.766 393.181 163.866C393.101 163.966 392.998 164.045 392.882 164.098C392.765 164.151 392.637 164.176 392.509 164.171C392.221 164.16 391.945 164.053 391.724 163.867C391.504 163.681 391.352 163.426 391.293 163.144C391.261 163.02 391.259 162.891 391.286 162.767C391.314 162.642 391.37 162.525 391.45 162.426C391.53 162.327 391.632 162.248 391.748 162.195C391.864 162.143 391.991 162.118 392.119 162.123C392.406 162.133 392.682 162.239 392.902 162.424C393.123 162.609 393.275 162.863 393.335 163.144Z" fill="black"/>
<path d="M393.998 176.959C394.029 177.084 394.031 177.214 394.003 177.339C393.976 177.464 393.919 177.581 393.839 177.681C393.758 177.781 393.655 177.86 393.538 177.913C393.421 177.966 393.294 177.991 393.166 177.987C392.877 177.976 392.601 177.869 392.38 177.682C392.16 177.496 392.008 177.242 391.949 176.959C391.918 176.836 391.916 176.706 391.943 176.582C391.97 176.457 392.026 176.341 392.106 176.242C392.186 176.143 392.288 176.064 392.405 176.011C392.521 175.958 392.647 175.933 392.775 175.938C393.063 175.947 393.341 176.053 393.562 176.238C393.784 176.423 393.937 176.677 393.998 176.959Z" fill="black"/>
<path d="M395.416 191.884C395.447 192.008 395.449 192.137 395.422 192.262C395.394 192.387 395.339 192.504 395.259 192.603C395.179 192.703 395.077 192.782 394.961 192.836C394.844 192.889 394.718 192.915 394.59 192.911C394.301 192.901 394.023 192.794 393.802 192.608C393.58 192.422 393.427 192.167 393.367 191.884C393.336 191.76 393.333 191.63 393.361 191.505C393.389 191.38 393.445 191.263 393.526 191.164C393.607 191.065 393.71 190.986 393.827 190.933C393.944 190.881 394.071 190.857 394.199 190.863C394.488 190.868 394.767 190.972 394.988 191.158C395.21 191.344 395.361 191.6 395.416 191.884Z" fill="black"/>
<path d="M398.616 205.428C398.647 205.552 398.648 205.682 398.62 205.806C398.592 205.93 398.535 206.047 398.454 206.146C398.374 206.245 398.271 206.324 398.155 206.376C398.039 206.429 397.912 206.454 397.784 206.449C397.497 206.439 397.221 206.333 397.001 206.148C396.781 205.963 396.628 205.71 396.568 205.428C396.537 205.304 396.535 205.175 396.562 205.05C396.589 204.925 396.645 204.809 396.725 204.709C396.805 204.609 396.907 204.53 397.023 204.476C397.139 204.423 397.266 204.397 397.394 204.401C397.683 204.412 397.959 204.52 398.181 204.706C398.402 204.892 398.555 205.146 398.616 205.428Z" fill="black"/>
<path d="M394.155 99.065C394.155 99.065 394.287 105.847 392.359 109.237C390.43 112.628 385.508 115.54 376.867 114.759C368.226 113.977 366.959 109.773 367.293 106.111C367.627 102.45 371.213 102.191 371.15 100.439C371.087 98.6869 372.077 97.0482 373.873 96.9789C375.669 96.9095 376.602 98.3087 375.669 98.5104C374.737 98.7121 373.741 97.3759 373.741 99.5755C373.741 101.775 375.537 104.561 378.783 103.987C382.029 103.414 383.636 97.9368 381.972 98.2709C380.308 98.6049 378.449 99.3991 378.449 98.5356C378.449 97.6721 381.046 96.2099 386.497 95.8759C391.949 95.5418 391.88 101.662 392.283 100.395C392.433 100.019 392.688 99.6933 393.018 99.4575C393.348 99.2218 393.738 99.0856 394.142 99.065H394.155Z" fill="#C84F49"/>
<path d="M374.761 73.8669C375.095 70.8732 378.486 66.2155 380.547 70.5391C382.608 74.8628 380.811 81.8839 385.267 84.1024C389.723 86.321 392.32 85.7537 392.32 85.7537C392.32 85.7537 393.114 91.9366 394.513 92.737C395.912 93.5375 402.291 89.2769 402.291 89.2769C402.291 89.2769 406.419 84.9596 407.15 79.6402C407.881 74.3207 404.207 68.6483 399.284 63.7197C388.11 52.5451 375.164 63.2155 375.164 63.2155C375.164 63.2155 371.307 60.5494 368.78 64.6084C366.252 68.6673 367.645 77.0435 368.843 80.3019C369.524 82.1925 370.416 84.0002 371.502 85.6907L371.376 75.8018C371.376 73.6653 373.374 73.8543 374.761 73.8543V73.8669Z" fill="#C84F49"/>
<path d="M401.088 95.2077C402.216 97.0985 403.249 98.6868 404.749 99.3486C406.25 100.01 400.457 107.813 397.262 104.523C394.067 101.233 397.016 96.2161 401.044 95.1825L401.088 95.2077Z" fill="#C84F49"/>
<path d="M403.394 95.3212C401.995 98.4725 398.919 100.118 396.518 99.0461C394.117 97.9746 393.316 94.5712 394.716 91.4388C396.115 88.3064 399.197 86.6362 401.592 87.7076C403.987 88.7791 404.793 92.1888 403.394 95.3212Z" fill="#F9B098"/>
<path d="M397.168 95.6048C397.168 95.4409 396.884 92.6678 398.226 91.3064C399.569 89.945 401.378 91.0669 401.163 91.6089C400.949 92.1509 399.563 92.1257 399.903 92.9766C400.243 93.8274 400.413 97.4767 397.18 95.6048H397.168Z" fill="black"/>
<path d="M379.501 68.85C379.501 68.85 382.967 70.6211 382.362 76.8859C381.757 83.1507 384.738 90.0332 392.125 87.3042C399.512 84.5751 398.232 81.1717 398.232 81.1717C398.232 81.1717 394.06 87.0584 388.621 86.6172C383.182 86.176 383.125 77.3586 384.209 74.2703C385.293 71.182 381.946 67.6777 379.488 68.85H379.501Z" fill="#C84F49"/>
<path d="M476.524 179.562C471.185 178.302 462.217 198.016 462.217 198.016L435.349 228.414L443.082 239.362L443.857 238.845C443.857 238.845 471.085 220.775 484.125 210.067C487.276 207.47 494.518 201.325 487.976 192.06C486.154 189.476 481.566 184.497 477.797 180.356C477.466 179.971 477.027 179.694 476.536 179.562H476.524Z" fill="#F9B098"/>
<path d="M446.069 146.719L477.796 180.356L462.216 198.004C462.216 198.004 438.266 187.92 428.617 183.917C406.066 174.533 428.718 130.024 446.069 146.732V146.719Z" fill="#F48032"/>
<path d="M438.368 224.992L435.349 228.414L441.261 233.33C441.261 233.33 442.332 234.269 442.351 232.788C442.351 231.578 440.303 226.901 438.368 224.992Z" fill="black"/>
<path d="M476.524 179.562C471.185 178.302 462.217 198.016 462.217 198.016C468.059 195.993 478.131 187.667 481.686 184.642C480.381 183.193 479.051 181.737 477.797 180.356C477.466 179.971 477.027 179.694 476.536 179.562H476.524Z" fill="black"/>
<path d="M462.223 198.016L477.803 180.369C477.803 180.369 481.717 170.915 477.393 170.562C473.069 170.209 464.315 181.1 461.41 188.039C458.504 194.979 462.223 198.016 462.223 198.016Z" fill="white"/>
<path d="M435.348 228.414C435.348 228.414 419.453 234.887 414.405 238.334C409.356 241.782 402.102 257.274 400.602 259.713C399.102 262.152 402.184 263.091 406.016 261.181C409.848 259.272 410.869 257.299 410.869 257.299C410.869 257.299 414.461 262.833 417.871 260.45C420.241 258.78 421.073 258.049 422.125 259.007C424.06 260.772 426.487 258.333 430.231 255.389C436.004 250.851 443.082 239.387 443.082 239.387C445.13 229.801 438.04 231.906 435.348 228.439V228.414Z" fill="#F9B098"/>
<path d="M435.349 228.414C435.349 228.414 415.59 230.172 413.756 229.857C411.922 229.542 409.974 232.637 416.069 234.931C422.164 237.225 426.399 236.084 427.71 235.498C429.021 234.912 435.349 228.414 435.349 228.414Z" fill="#F9B098"/>
<path d="M412.13 250.763C412.13 250.763 406.823 255.679 406.174 261.106C409.142 260.293 410.214 258.036 410.869 257.324L412.13 250.788V250.763Z" fill="black"/>
</svg>
