<svg width="550" height="455" viewBox="0 0 550 455" fill="none" xmlns="http://www.w3.org/2000/svg">
<path d="M184.84 34.4459C195.55 34.4459 206.02 37.622 214.926 43.5725C223.832 49.5231 230.773 57.9807 234.871 67.8761C238.97 77.7714 240.043 88.66 237.953 99.1648C235.863 109.67 230.706 119.319 223.132 126.893C215.559 134.466 205.909 139.624 195.405 141.713C184.9 143.803 174.011 142.73 164.116 138.632C154.22 134.533 145.763 127.592 139.812 118.686C133.862 109.781 130.686 99.3106 130.686 88.5999C130.684 81.4878 132.083 74.445 134.804 67.8739C137.525 61.3028 141.514 55.3322 146.543 50.3032C151.572 45.2742 157.543 41.2853 164.114 38.5644C170.685 35.8436 177.727 34.4441 184.84 34.4459ZM184.84 32.8053C173.804 32.804 163.016 36.0751 153.84 42.205C144.664 48.335 137.511 57.0484 133.287 67.2434C129.063 77.4384 127.957 88.6571 130.109 99.4807C132.261 110.304 137.575 120.246 145.377 128.05C153.18 135.854 163.122 141.169 173.945 143.322C184.768 145.475 195.987 144.371 206.183 140.148C216.378 135.925 225.093 128.774 231.224 119.598C237.355 110.423 240.627 99.6353 240.627 88.5999C240.624 73.8046 234.745 59.6162 224.284 49.1537C213.823 38.6912 199.635 32.8109 184.84 32.8053ZM459.343 13.8619C465.476 13.9618 471.518 15.3621 477.069 17.9703C500.087 28.6621 519.565 60.932 519.565 120.912C519.565 226.682 432.669 361.692 278.695 404.737C201.767 426.245 123.053 409.923 71.6794 374.42C45.9927 356.673 27.1535 334.135 18.7211 309.185C10.2886 284.236 12.2421 256.853 28.231 229.178C58.7144 176.379 94.0848 164.951 135.322 162.949C176.56 160.947 223.609 168.58 276.672 154.05C382.338 125.117 411.73 45.0612 411.953 44.4634C423.465 24.5328 441.421 13.5768 459.377 13.8758L459.343 13.8619ZM459.405 12.2421C440.802 11.971 422.234 23.3162 410.479 43.6778C410.452 43.719 410.431 43.7634 410.416 43.8099C410.416 43.8099 381.622 123.623 276.206 152.486C223.519 166.911 176.706 159.306 135.204 161.322C93.7024 163.338 57.4839 175.184 26.7573 228.378C10.5806 256.394 8.57155 284.34 17.143 309.714C25.7145 335.087 44.8109 357.868 70.727 375.755C122.552 411.57 201.698 427.942 279.112 406.301C433.823 363.075 521.199 227.579 521.199 120.912C521.199 60.5775 501.595 27.5568 477.765 16.4827C472.013 13.7877 465.756 12.3424 459.405 12.2421ZM382.394 1.64768C384.291 1.64768 386.146 2.21033 387.724 3.26447C389.301 4.3186 390.531 5.81687 391.257 7.56984C391.983 9.3228 392.173 11.2517 391.803 13.1126C391.433 14.9736 390.519 16.683 389.177 18.0246C387.836 19.3663 386.126 20.28 384.265 20.6501C382.404 21.0203 380.476 20.8303 378.723 20.1042C376.97 19.3781 375.471 18.1485 374.417 16.5709C373.363 14.9932 372.8 13.1385 372.8 11.2411C372.799 9.98074 373.046 8.73242 373.527 7.56767C374.008 6.40292 374.715 5.34463 375.606 4.45344C376.497 3.56225 377.556 2.85567 378.72 2.37421C379.885 1.89275 381.134 1.64585 382.394 1.64768ZM382.394 0.000124221C380.17 -0.00125088 377.996 0.656852 376.147 1.89119C374.297 3.12552 372.855 4.88064 372.004 6.93453C371.152 8.98843 370.928 11.2488 371.361 13.4298C371.794 15.6108 372.864 17.6144 374.436 19.1872C376.008 20.7599 378.011 21.8312 380.191 22.2655C382.372 22.6998 384.633 22.4776 386.687 21.627C388.741 20.7764 390.497 19.3356 391.733 17.4869C392.968 15.6382 393.628 13.4646 393.628 11.2411C393.626 8.26155 392.442 5.4045 390.336 3.29701C388.23 1.18952 385.373 0.00380662 382.394 0.000124221Z" fill="#F4CCC7"/>
<path d="M42.927 3.94145H232.084C234.509 3.93595 236.913 4.40982 239.155 5.33585C241.397 6.26188 243.434 7.62182 245.149 9.33753C246.864 11.0532 248.223 13.0909 249.149 15.3335C250.074 17.5761 250.547 19.9793 250.54 22.4052V331.097C250.546 333.522 250.072 335.925 249.147 338.166C248.221 340.408 246.862 342.445 245.147 344.16C243.432 345.875 241.395 347.234 239.153 348.16C236.911 349.086 234.509 349.559 232.084 349.554H42.927C40.5015 349.558 38.0991 349.084 35.8574 348.158C33.6156 347.232 31.5787 345.873 29.8633 344.158C28.148 342.444 26.788 340.407 25.8613 338.166C24.9346 335.924 24.4595 333.522 24.4632 331.097V22.3774C24.4613 19.9535 24.9379 17.5531 25.8654 15.3137C26.793 13.0743 28.1534 11.04 29.8687 9.32729C31.5839 7.61463 33.6203 6.25729 35.8611 5.33308C38.1019 4.40887 40.503 3.93596 42.927 3.94145Z" fill="white"/>
<path d="M42.927 3.94145C40.5007 3.93595 38.0973 4.40978 35.8547 5.33572C33.6121 6.26167 31.5745 7.62149 29.8588 9.33711C28.1432 11.0527 26.7834 13.0904 25.8575 15.333C24.9315 17.5756 24.4577 19.979 24.4632 22.4052V40.8899H250.54V22.3774C250.543 19.9539 250.067 17.5536 249.141 15.3142C248.214 13.0749 246.854 11.0405 245.139 9.32772C243.425 7.61496 241.389 6.25751 239.148 5.33322C236.908 4.40893 234.507 3.93596 232.084 3.94145H42.927Z" fill="#4F469C"/>
<path d="M192.5 20.5077C192.502 21.4113 192.235 22.2951 191.734 23.0471C191.233 23.7991 190.52 24.3855 189.686 24.7323C188.851 25.079 187.933 25.1705 187.046 24.995C186.16 24.8196 185.345 24.3852 184.706 23.7467C184.066 23.1082 183.631 22.2944 183.454 21.4083C183.277 20.5221 183.367 19.6034 183.713 18.7685C184.058 17.9335 184.644 17.2198 185.395 16.7176C186.146 16.2154 187.029 15.9474 187.933 15.9474C189.143 15.9474 190.304 16.4276 191.16 17.2826C192.016 18.1377 192.498 19.2976 192.5 20.5077Z" fill="white"/>
<path d="M210.756 20.5077C210.757 21.4113 210.49 22.2951 209.989 23.0471C209.488 23.7991 208.775 24.3855 207.941 24.7323C207.107 25.079 206.188 25.1705 205.302 24.995C204.415 24.8196 203.601 24.3852 202.961 23.7467C202.322 23.1082 201.886 22.2944 201.709 21.4083C201.533 20.5221 201.623 19.6034 201.968 18.7685C202.314 17.9335 202.899 17.2198 203.65 16.7176C204.401 16.2154 205.285 15.9474 206.188 15.9474C207.398 15.9474 208.559 16.4276 209.415 17.2826C210.272 18.1377 210.754 19.2976 210.756 20.5077Z" fill="white"/>
<path d="M229.866 20.5077C229.867 21.4113 229.601 22.2951 229.1 23.0471C228.599 23.7991 227.886 24.3855 227.051 24.7323C226.217 25.079 225.298 25.1705 224.412 24.995C223.525 24.8196 222.711 24.3852 222.072 23.7467C221.432 23.1082 220.996 22.2944 220.82 21.4083C220.643 20.5221 220.733 19.6034 221.078 18.7685C221.424 17.9335 222.009 17.2198 222.76 16.7176C223.512 16.2154 224.395 15.9474 225.299 15.9474C226.509 15.9474 227.669 16.4276 228.526 17.2826C229.382 18.1377 229.864 19.2976 229.866 20.5077Z" fill="white"/>
<path d="M375.185 296.922H389.387L362.011 454.185H354.858L375.185 296.922Z" fill="black"/>
<path d="M477.174 296.922H462.971L490.34 454.185H497.5L477.174 296.922Z" fill="black"/>
<path d="M363.138 286.877H485.488C489.471 286.877 492.676 289.894 492.676 293.648C492.676 297.402 489.471 300.419 485.488 300.419H363.138C359.154 300.419 355.949 297.402 355.949 293.648C355.949 289.894 359.133 286.877 363.138 286.877Z" fill="#F5933D"/>
<path d="M424.57 375.352L485.696 431.132H363.443L424.57 375.352ZM379.21 331.799H469.93L424.57 373.197L379.21 331.799ZM377.166 329.929L376.839 330.249H376.36V330.708L376.026 331.042L376.36 331.354V331.799H376.846L423.388 374.274L359.384 432.669H487.393L487.747 432.989L488.081 432.669H488.554V432.21L488.887 431.876L488.554 431.564V431.119H488.06L425.752 374.26L473.99 330.235H377.514L377.166 329.915V329.929Z" fill="black"/>
<path d="M301.01 376.895L303.228 431.042H318.07C318.07 431.042 324.013 391.202 324.027 376.895C324.041 362.588 304.069 363.617 301.01 376.895Z" fill="#F9B098"/>
<path d="M314.177 366.544C311.129 366.502 308.159 367.507 305.763 369.391C303.367 371.275 301.689 373.924 301.01 376.895C301.01 376.895 312.411 382.672 323.798 382.755C323.944 380.538 324.027 378.543 324.027 376.895C324.027 369.943 319.356 366.627 314.177 366.544Z" fill="black"/>
<path d="M302.213 403.965L303.228 431.077H318.07C318.07 431.077 319.78 418.161 321.372 403.965H302.213Z" fill="#EF9F34"/>
<path d="M355.449 377.291L366.898 431.042H381.733C381.733 431.042 381.156 391.598 378.466 377.291C375.776 362.985 355.991 364.014 355.449 377.291Z" fill="#F9B098"/>
<path d="M366.655 366.94C361.094 366.857 355.727 370.416 355.442 377.291C355.442 377.291 367.955 383.068 379.335 383.152C379.064 380.934 378.772 378.939 378.466 377.291C377.159 370.34 371.848 367.024 366.648 366.94H366.655Z" fill="black"/>
<path d="M361.156 403.965L366.899 431.077H381.734C381.734 431.077 381.9 418.161 380.809 403.965H361.156Z" fill="#EF9F34"/>
<path d="M381.608 421.282C379.995 422.804 376.964 424.445 372.988 425.363L365.974 426.968L366.898 431.042H381.733C381.878 427.798 381.836 424.549 381.608 421.31V421.282Z" fill="black"/>
<path d="M385.745 436.875C384.097 427.935 383.172 426.162 376.624 427.392C376.624 427.392 377.889 436.43 381.066 437.611C384.243 438.793 385.745 436.875 385.745 436.875Z" fill="white"/>
<path d="M363.304 427.462C364 434.149 351.188 445.495 349.992 447.038C346.62 451.404 349.199 454.177 349.199 454.177H388.977C390.423 447.281 389.054 438.779 385.759 436.874C379.801 438.473 376.638 427.392 376.638 427.392H372.272C371.368 424.007 363.291 422.297 363.291 427.462H363.304Z" fill="#8A4299"/>
<path d="M388.755 442.248L381.858 449.151H354.587C353.676 450.792 352.814 452.453 352.07 454.177H388.963C389.776 450.284 390.506 445.682 388.755 442.248Z" fill="black"/>
<path d="M348.706 449.151C347.413 452.28 349.172 454.178 349.172 454.178H371.097C371.097 454.178 374.073 454.178 371.202 450.41C370.8 449.926 370.332 449.503 369.811 449.151H348.706Z" fill="black"/>
<path d="M371.292 430.82C371.71 430.836 372.12 430.939 372.497 431.12C372.873 431.302 373.209 431.559 373.482 431.876C374.816 433.336 375.067 435.971 374.601 437.91C374.463 438.666 374.119 439.368 373.607 439.94C373.504 440.053 373.362 440.122 373.211 440.135C373.027 440.125 372.854 440.042 372.731 439.905C370.499 437.994 367.246 433.607 366.53 432.641C367.214 432.07 367.987 431.615 368.817 431.292C369.598 430.957 370.442 430.795 371.292 430.82ZM371.389 429.332C370.319 429.292 369.253 429.489 368.268 429.909C367.079 430.402 365.965 431.059 364.959 431.862C364.814 431.983 364.721 432.155 364.697 432.342C364.674 432.529 364.723 432.718 364.834 432.87C364.834 432.87 368.921 438.599 371.785 441.032C372.185 441.402 372.707 441.613 373.252 441.623C373.77 441.614 374.265 441.413 374.643 441.059C375.397 440.3 375.906 439.331 376.102 438.279C376.659 435.957 376.464 432.912 374.629 430.903C373.812 429.994 372.671 429.44 371.452 429.36L371.389 429.332Z" fill="#A86DAE"/>
<path d="M359.578 430.819C360.428 430.795 361.272 430.957 362.053 431.292C362.884 431.613 363.657 432.068 364.34 432.641C363.645 433.614 360.371 437.994 358.139 439.905C358.016 440.042 357.844 440.125 357.66 440.135C357.508 440.122 357.366 440.053 357.263 439.94C356.751 439.368 356.407 438.665 356.269 437.91C355.803 435.971 356.061 433.336 357.395 431.876C357.667 431.56 358.001 431.302 358.377 431.121C358.752 430.939 359.161 430.836 359.578 430.819ZM359.481 429.332C358.26 429.415 357.118 429.968 356.297 430.875C354.462 432.884 354.267 435.936 354.823 438.251C355.02 439.303 355.528 440.272 356.283 441.032C356.661 441.385 357.156 441.586 357.673 441.595C358.217 441.586 358.737 441.375 359.133 441.004C361.984 438.571 366.085 432.842 366.085 432.842C366.196 432.69 366.245 432.501 366.221 432.314C366.198 432.127 366.105 431.955 365.96 431.834C364.957 431.03 363.845 430.373 362.658 429.881C361.67 429.461 360.602 429.264 359.53 429.304L359.481 429.332Z" fill="#A86DAE"/>
<path d="M362.686 438.147C362.551 438.291 362.479 438.484 362.487 438.681C362.494 438.879 362.579 439.065 362.724 439.2C362.869 439.334 363.061 439.406 363.258 439.399C363.456 439.392 363.642 439.306 363.777 439.162C363.95 438.964 364.164 438.807 364.404 438.7C364.644 438.593 364.905 438.54 365.167 438.543C365.481 438.558 365.788 438.643 366.066 438.791C366.344 438.939 366.585 439.146 366.773 439.398C366.837 439.474 366.916 439.536 367.004 439.582C367.093 439.627 367.189 439.654 367.288 439.661C367.387 439.668 367.487 439.656 367.581 439.624C367.675 439.592 367.762 439.541 367.836 439.475C367.91 439.41 367.971 439.329 368.014 439.24C368.056 439.15 368.081 439.053 368.085 438.954C368.09 438.854 368.075 438.755 368.04 438.662C368.006 438.569 367.953 438.483 367.885 438.411C367.558 438.002 367.148 437.666 366.682 437.427C366.216 437.187 365.705 437.049 365.181 437.021C364.719 437.02 364.261 437.117 363.838 437.305C363.415 437.493 363.037 437.768 362.727 438.112L362.686 438.147Z" fill="#A86DAE"/>
<path d="M360.232 442.846C360.11 442.992 360.048 443.179 360.06 443.369C360.072 443.558 360.155 443.736 360.294 443.866C360.433 443.996 360.616 444.068 360.806 444.067C360.996 444.066 361.179 443.992 361.316 443.861C361.49 443.664 361.704 443.507 361.944 443.4C362.184 443.294 362.444 443.24 362.707 443.242C363.021 443.258 363.327 443.343 363.605 443.49C363.883 443.638 364.124 443.846 364.312 444.098C364.445 444.239 364.627 444.323 364.821 444.332C365.015 444.341 365.204 444.274 365.349 444.146C365.494 444.017 365.583 443.837 365.597 443.643C365.611 443.45 365.549 443.259 365.425 443.11C365.095 442.707 364.683 442.379 364.217 442.146C363.751 441.914 363.241 441.783 362.72 441.762C362.258 441.759 361.8 441.854 361.377 442.041C360.954 442.228 360.576 442.502 360.266 442.846H360.232Z" fill="#A86DAE"/>
<path d="M389.526 241.517C389.526 241.517 315.616 279.23 304.409 285.834C293.203 292.438 295.685 309.276 295.685 309.276C296.109 321.622 298.514 351.048 299.856 366.975C295.282 374.191 300.231 377.597 300.767 377.507H323.791C324.611 377.729 332.376 376.235 327.065 367.677C330.026 357.215 334.191 338.077 336.102 309.282C336.422 310.513 345.737 356.234 350.339 368.504C347.663 377.604 352.953 377.201 355.421 377.298L378.626 376.269C380.781 376.269 383.291 370.979 378.327 367.121C379.092 356.186 377.715 337.701 373.273 309.533V309.282C373.273 309.282 432.363 297.312 448.63 287.941C458.272 282.379 458.946 275.984 459.141 268.476C459.426 257.61 453.58 245.48 446.746 241.51L389.526 241.517Z" fill="#8A4299"/>
<path d="M319.05 423.416C313.871 425.404 305.841 427.247 303.109 427.837L303.234 431.042H318.069C318.069 431.042 318.473 427.99 319.05 423.395V423.416Z" fill="black"/>
<path d="M321.281 437.146C317.974 436.768 314.695 436.176 311.465 435.373C307.072 434.198 308.351 427.392 308.351 427.392C323.235 425.668 321.281 429.561 321.281 437.125V437.146Z" fill="white"/>
<path d="M323.951 454.184C327.253 448.47 325.772 443.534 321.281 437.146C312.869 436.381 309.693 434.858 308.351 427.413H304.611C304.611 427.413 299.626 422.846 297.026 430.785C294.426 438.724 275.712 440.1 268.399 444.229C260.175 448.901 260.182 454.184 266.362 454.184H323.951Z" fill="#8A4299"/>
<path d="M324.208 442.026C322.066 443.258 320.09 444.758 318.327 446.489C315.129 449.687 309.129 449.158 309.129 449.158H262.678C260.961 451.981 262.372 454.184 266.362 454.184H323.951C326.37 450.013 326.217 446.246 324.208 442.026Z" fill="black"/>
<path d="M300.134 431.876C301.618 431.913 303.046 432.454 304.183 433.408C305.319 434.363 306.098 435.676 306.391 437.132C306.515 437.88 306.471 438.647 306.26 439.376C306.05 440.105 305.679 440.778 305.174 441.344C304.784 441.877 304.244 442.281 303.624 442.505C303.148 442.645 302.638 442.611 302.185 442.408C300.902 441.731 299.814 440.738 299.022 439.523C297.742 437.731 296.678 435.794 295.852 433.753C297.003 432.626 298.525 431.957 300.134 431.869V431.876ZM289.352 428.449C288.796 428.448 288.243 428.53 287.711 428.692C286.99 428.912 286.334 429.304 285.798 429.834C285.263 430.365 284.865 431.018 284.639 431.737C284.18 433.19 284.792 436.527 285.786 438.612C286.261 438.471 286.715 438.266 287.134 438.001C286.217 436.075 285.744 433.204 286.057 432.182C286.222 431.698 286.496 431.258 286.857 430.897C287.219 430.535 287.658 430.262 288.142 430.097C291.806 428.574 294.17 433.76 294.183 433.802C295.146 436.124 296.361 438.334 297.805 440.392C298.89 441.866 300.134 443.173 301.636 443.778C302.395 444.091 303.237 444.14 304.027 443.917C304.931 443.608 305.724 443.039 306.307 442.283C306.94 441.548 307.405 440.684 307.67 439.751C307.935 438.819 307.994 437.839 307.844 436.881C307.523 435.092 306.583 433.473 305.188 432.307C303.761 431.091 301.946 430.425 300.072 430.43C298.266 430.47 296.528 431.122 295.143 432.279C294.666 431.251 293.935 430.361 293.02 429.693C292.104 429.026 291.033 428.602 289.908 428.463C289.718 428.452 289.528 428.452 289.338 428.463L289.352 428.449Z" fill="#A86DAE"/>
<path d="M288.024 434.462C287.924 434.468 287.827 434.494 287.738 434.539C287.648 434.583 287.569 434.646 287.504 434.721C287.439 434.797 287.39 434.886 287.36 434.981C287.33 435.076 287.319 435.176 287.329 435.276C287.336 435.375 287.363 435.472 287.407 435.561C287.452 435.65 287.514 435.729 287.59 435.794C287.666 435.858 287.754 435.907 287.848 435.938C287.943 435.968 288.043 435.979 288.142 435.971C288.397 435.939 288.655 435.96 288.901 436.035C289.146 436.109 289.373 436.234 289.567 436.402C289.791 436.622 289.964 436.889 290.074 437.183C290.185 437.477 290.23 437.792 290.207 438.105C290.197 438.208 290.209 438.312 290.241 438.411C290.274 438.509 290.327 438.6 290.397 438.677C290.466 438.754 290.551 438.815 290.646 438.857C290.741 438.899 290.844 438.921 290.947 438.921C291.051 438.921 291.154 438.899 291.249 438.857C291.343 438.815 291.428 438.754 291.498 438.677C291.568 438.6 291.621 438.509 291.653 438.411C291.686 438.312 291.698 438.208 291.688 438.105C291.703 437.589 291.611 437.075 291.417 436.596C291.223 436.117 290.932 435.684 290.561 435.324C290.214 435.018 289.806 434.787 289.365 434.647C288.923 434.507 288.457 434.461 287.996 434.511L288.024 434.462Z" fill="#A86DAE"/>
<path d="M283.137 437.271C283.037 437.277 282.94 437.303 282.851 437.347C282.761 437.392 282.682 437.454 282.617 437.53C282.552 437.606 282.503 437.694 282.473 437.789C282.443 437.884 282.432 437.985 282.442 438.084C282.448 438.183 282.474 438.28 282.518 438.369C282.562 438.458 282.623 438.537 282.699 438.602C282.774 438.666 282.861 438.715 282.955 438.746C283.05 438.776 283.149 438.788 283.248 438.779C283.497 438.75 283.75 438.774 283.989 438.848C284.228 438.922 284.45 439.046 284.639 439.21C284.865 439.429 285.041 439.695 285.153 439.989C285.264 440.284 285.31 440.599 285.285 440.913C285.284 441.011 285.303 441.107 285.339 441.198C285.376 441.288 285.43 441.37 285.498 441.439C285.567 441.508 285.649 441.563 285.738 441.601C285.828 441.638 285.925 441.657 286.022 441.657C286.12 441.657 286.216 441.638 286.307 441.601C286.397 441.563 286.479 441.508 286.548 441.439C286.617 441.37 286.672 441.288 286.709 441.198C286.747 441.108 286.766 441.011 286.766 440.913C286.782 440.396 286.69 439.882 286.495 439.403C286.3 438.924 286.006 438.491 285.633 438.133C285.288 437.827 284.883 437.596 284.443 437.456C284.004 437.316 283.54 437.269 283.081 437.319L283.137 437.271Z" fill="#A86DAE"/>
<path d="M332.717 312.689C332.596 312.69 332.476 312.719 332.368 312.773C332.26 312.827 332.165 312.906 332.091 313.002C330.124 315.511 327.621 318.799 325.459 321.928C323.297 325.056 321.476 327.948 320.85 329.985C319.974 332.849 318.139 341.803 316.484 350.249C314.83 358.695 313.377 366.398 313.377 366.398C313.356 366.501 313.356 366.608 313.377 366.711L315.574 377.486H317.249L315.018 366.544C315.018 366.398 316.45 358.897 318.09 350.555C319.731 342.213 321.643 332.995 322.421 330.458C322.901 328.9 324.681 325.939 326.808 322.852C328.935 319.766 331.431 316.499 333.391 314.003C333.487 313.883 333.547 313.738 333.564 313.586C333.581 313.433 333.554 313.279 333.488 313.141C333.421 313.003 333.316 312.886 333.186 312.805C333.056 312.724 332.905 312.681 332.752 312.682L332.717 312.689ZM374.775 249.046L372.946 249.984C378.139 252.765 386.398 257.172 389.346 258.326C401.878 263.083 415.266 265.164 428.651 264.437C434.351 264.117 439.273 263.617 443.534 263.047C445.62 265.097 447.434 267.072 449.499 268.712C446.239 269.762 418.578 283.707 403.909 288.761C395.567 291.639 387.058 294.663 380.35 297.256C376.992 298.549 374.093 299.738 371.862 300.732C369.63 301.726 368.15 302.491 367.343 303.29C366.537 304.09 366.349 305.563 366.474 307.232C366.684 309.269 367.084 311.283 367.67 313.245C369.269 318.605 371.16 323.873 373.336 329.026C374.608 332.126 375.915 335.15 377.152 337.938C376.967 336.158 376.761 334.304 376.534 332.376C375.97 331.062 375.407 329.721 374.858 328.372C372.705 323.282 370.834 318.076 369.255 312.779C368.699 310.919 368.318 309.01 368.115 307.079C368.004 305.598 368.268 304.667 368.504 304.423C369.763 303.532 371.118 302.783 372.543 302.192C374.719 301.205 377.604 300.023 380.941 298.716C387.615 296.137 396.103 293.12 404.445 290.242C420.816 284.597 450.562 270.019 451.153 269.832C451.411 269.998 451.675 270.158 451.953 270.318C454.108 271.523 456.489 272.269 458.946 272.508C458.995 271.973 459.03 271.43 459.064 270.881C456.85 270.657 454.706 269.978 452.766 268.886C450.145 267.391 448.081 265.181 445.564 262.678C449.849 262.039 454.085 261.109 458.244 259.898C458.126 259.362 457.987 258.834 457.841 258.306C451.876 260.085 442.589 261.934 428.56 262.72C415.422 263.412 402.283 261.355 389.985 256.679C387.594 255.768 379.724 251.583 374.837 248.969L374.775 249.046Z" fill="#A96EAE"/>
<path d="M336.123 309.276C336.123 309.276 334.517 301.024 334.663 297.36C334.729 296.256 335.024 295.177 335.529 294.192C336.034 293.207 336.738 292.338 337.597 291.639C337.597 291.639 327.475 293.982 328.65 305.723C329.825 317.465 334.378 328.664 334.378 328.664L336.123 309.248V309.276Z" fill="black"/>
<path d="M327.065 367.656H318.236C318.236 367.656 316.769 365.571 320.586 363.805C324.402 362.039 330.242 354.809 330.242 354.809L327.065 367.656Z" fill="black"/>
<path d="M378.348 367.114H368.254C368.254 367.114 366.641 365.126 371.487 363.075C376.332 361.024 378.23 351.486 378.23 351.486C378.23 351.486 379.62 363.965 378.348 367.114Z" fill="black"/>
<path d="M211.875 149.595C211.923 154.648 221.253 164.923 224.221 166.279C227.189 167.634 239.723 164.735 245.292 163.547C245.292 163.074 258.875 166.07 272.661 168.781L266.592 149.671L242.344 150.776C242.344 150.776 236.088 146.974 233.078 145.298C230.068 143.623 224.895 139.181 222.935 137.686C220.975 136.192 219.779 139.271 221.545 142.087C222.532 143.616 223.408 145.214 224.165 146.869C224.165 146.869 217.075 146.807 215.497 146.807C212.869 146.807 211.847 147.912 211.868 149.588L211.875 149.595Z" fill="#F9B098"/>
<path d="M266.592 149.685L263.491 166.869L272.661 168.795L266.592 149.685Z" fill="black"/>
<path d="M242.344 150.776L244.569 156.338C244.569 156.338 245.125 156.831 245.619 155.427C246.112 154.023 247.795 150.561 247.795 150.561L242.344 150.741V150.776Z" fill="black"/>
<path d="M224.179 146.869C224.179 146.869 227.523 150.95 230.645 151.791C233.766 152.632 238.868 159.083 238.173 161.746C237.478 164.408 236.192 164.728 235.893 164.527C235.594 164.325 233.015 157.631 229.935 155.448C227.27 153.655 224.442 152.116 221.489 150.853C219.953 150.157 224.152 146.869 224.152 146.869H224.179Z" fill="black"/>
<path d="M361.497 144.707C362.415 144.707 363.27 144.707 364.041 144.756C386.176 145.541 390.249 168.1 376.235 176.268C376.089 176.358 375.943 176.435 375.797 176.511C373.228 177.764 370.319 178.138 367.517 177.575C367.517 177.575 284.096 169.65 278.278 169.233C278.382 164.436 276.755 157.936 274.378 153.244C273.3 151.11 272.167 149.942 271.104 149.351L289.873 147.961C289.873 147.961 351.917 144.665 361.476 144.714L361.497 144.707Z" fill="#EF9F34"/>
<path d="M266.592 149.685L268.448 168.455C268.448 168.455 273.363 178.055 276.609 174.822C279.856 171.59 278 160.363 274.378 153.272C270.756 146.181 266.592 149.713 266.592 149.713V149.685Z" fill="white"/>
<path d="M378.119 72.0686C378.119 72.0686 379.509 87.5153 374.643 96.6291C354.705 133.744 391.904 126.654 391.904 126.654C391.904 126.654 388.254 74.314 378.153 72.0686H378.119Z" fill="#C84F49"/>
<path d="M385.119 232.445C384.82 232.445 377.966 243.158 382.825 243.825C409.999 247.593 423.499 248.643 450.041 243.825C454.574 243.005 444.209 230.825 443.917 230.832L385.119 232.445Z" fill="white"/>
<path d="M412.696 131.798L456.673 147.933C456.673 147.933 439.398 195.274 441.032 217.381C443.305 228.504 450.312 233.453 445.898 236.331C420.67 239.473 410.722 241.552 382.741 236.331C377.222 223.241 379.856 222.052 378.57 213.474C378.57 213.474 362.679 152.299 361.789 147.933C366.398 144.916 387.51 132.584 387.51 132.584L412.689 131.798H412.696Z" fill="#F48032"/>
<path d="M412.696 131.798L387.517 132.584C387.517 132.584 379.578 137.227 372.335 141.537C381.859 156.699 390.597 163.783 394.886 164.402C399.175 165.02 421.629 154.593 432.919 139.222L412.696 131.798Z" fill="#F9B098"/>
<path d="M417.841 210.443C417.841 210.443 421.15 218.875 429.249 221.155C433.663 222.276 438.184 222.931 442.735 223.109C442.002 221.253 441.432 219.336 441.032 217.381C440.976 216.595 440.948 215.782 440.934 214.934C434.184 214.732 424.362 213.807 417.841 210.443Z" fill="black"/>
<path d="M409.749 129.476C409.749 129.476 410.646 165.792 413.92 187.822C417.194 209.852 414.142 216.199 425.043 217.186C429.282 217.638 433.544 217.837 437.806 217.784C442.297 217.624 451.765 218.375 446.774 206.362C448.908 194.69 452.975 174.822 455.158 169.171C458.147 161.426 460.024 152.486 456.645 147.933C453.267 143.38 415.554 132.048 409.721 129.476H409.749Z" fill="#EF9F34"/>
<path d="M408.386 100.432L409.179 128.934C409.179 150.227 386.238 150.137 386.238 132.604L390.409 112.66L408.365 100.453L408.386 100.432Z" fill="#F9B098"/>
<path d="M401.671 104.999L390.43 112.646L388.595 121.426C392.189 121.718 397.278 121.426 401.247 118.305C408.094 112.952 401.671 105.013 401.671 105.013V104.999Z" fill="black"/>
<path d="M380.454 75.9338L382.769 104.401C382.769 104.401 384.813 115.566 393.141 115.566C399.05 115.566 408.373 104.505 408.435 98.7494C408.498 92.9933 408.435 83.7406 408.435 74.7381C408.435 65.7356 379.238 61.5924 380.406 75.9338H380.454Z" fill="#F9B098"/>
<path d="M385.341 88.8015C385.341 88.8015 382.31 92.5972 380.955 92.5972C379.599 92.5972 380.538 96.1426 383.235 95.9688C385.932 95.795 387.496 86.6535 385.32 88.8015H385.341Z" fill="black"/>
<path d="M387.712 71.8671C387.712 71.8671 391.083 89.1283 399.022 93.9945C406.961 98.8607 411.424 94.787 411.424 94.787L406.064 99.25C406.064 99.25 393.961 98.7564 389.102 83.8728C384.243 68.9891 388.407 65.0197 388.407 65.0197L387.712 71.8671Z" fill="#C84F49"/>
<path d="M388.414 146.251C388.414 146.251 389.721 169.393 390.632 184.944C391.542 200.495 391.139 210.839 391.139 210.839C391.139 210.839 381.407 162.024 382.004 152.799C382.602 143.574 385.932 145.75 388.414 146.251Z" fill="black"/>
<path d="M387.517 132.584C387.517 132.584 361.226 144.068 360.197 145.889C359.321 147.432 367.76 187.725 372.105 203.762C372.898 206.682 370.312 208.455 371.514 210.999C374.99 218.298 388.08 216.046 390.43 215.17C392.78 214.294 392.3 210.54 391.299 205.632C390.298 200.724 382.651 148.663 383.395 144.735C384.139 140.807 387.517 132.549 387.517 132.549V132.584Z" fill="#EF9F34"/>
<path d="M409.749 129.476C409.749 129.476 401.275 134.766 393.197 134.822C385.397 135.315 388.504 128.378 387.482 126.73C387.482 126.73 382.38 124.547 378.098 127.425C373.815 130.303 378.32 133.383 377.215 135.267C376.109 137.151 373.044 144.193 387.92 150.345C402.797 156.497 417.187 150.345 421.24 144.394C425.293 138.444 423.242 132.291 421.824 129.712C420.406 127.133 409.311 127.425 409.311 127.425L409.77 129.476H409.749Z" fill="white"/>
<path d="M401.852 133.404C401.852 133.404 406.023 141.329 404.883 146.612C403.743 151.895 398.702 151.033 394.274 149.984C391.994 149.441 391.222 150.408 391 151.471C397.259 153.39 403.949 153.39 410.208 151.471C411.084 147.954 410.034 142.205 401.866 133.397L401.852 133.404Z" fill="#CCDEF2"/>
<path d="M399.015 134.176C399.015 134.176 406.502 134.377 408.567 146.974C410.632 159.57 407.079 169.4 408.782 174.357C410.486 179.313 410.423 178.528 410.423 178.528C413.75 179.697 417.29 180.138 420.802 179.821C426.363 179.223 429.346 176.449 429.346 176.449C429.346 176.449 425.425 173.766 425.3 166.327C425.175 158.889 425.995 146.779 421.713 137.95C417.43 129.122 409.248 126.445 404.055 128.218C398.862 129.991 393.565 134.822 393.565 134.822C395.651 134.878 397.215 134.398 399.015 134.169V134.176Z" fill="white"/>
<path d="M401.219 57.1085C399.523 57.0681 397.826 57.1587 396.144 57.3796L396.839 58.4224C393.218 57.5604 389.116 58.5197 384.764 62.7394C384.764 62.7394 378.987 56.3716 374.497 59.0411C370.006 61.7106 378.118 72.0686 378.118 72.0686L380.454 75.9199C380.454 73.751 381.149 69.1072 385.835 71.7906C389.54 73.9178 393.69 93.6816 405.335 91.0121C405.83 90.8984 406.32 90.7592 406.801 90.595C406.954 93.7441 406.801 96.9558 406.064 99.236C403.979 105.493 398.23 118.277 404.382 125.521C410.534 132.764 427.601 129.692 431.264 121.252C434.928 112.813 423.131 101.023 423.826 92.4859C424.521 83.9491 427.997 72.1521 419.363 63.6153C413.969 58.2834 406.245 57.178 401.219 57.0946V57.1085Z" fill="#C84F49"/>
<path d="M411.626 76.4273C411.626 76.4273 406.961 61.8287 397.437 60.063C389.658 58.6031 384.737 62.7394 384.737 62.7394C384.737 62.7394 388.678 56.3924 398.995 56.9903C409.311 57.5881 420.455 74.0637 411.626 76.4551V76.4273Z" fill="black"/>
<path d="M377.257 133.793C377.352 134.028 377.398 134.281 377.391 134.534C377.384 134.788 377.324 135.037 377.215 135.267C376.821 135.939 376.535 136.668 376.367 137.429C376.984 137.891 377.65 138.283 378.355 138.597C381.428 139.924 386.926 139.368 381.136 136.56C379.67 135.887 378.345 134.943 377.229 133.779L377.257 133.793Z" fill="black"/>
<path d="M420.149 186.3C420.183 186.43 420.187 186.566 420.16 186.698C420.132 186.83 420.074 186.954 419.991 187.059C419.907 187.165 419.8 187.249 419.677 187.305C419.555 187.362 419.421 187.389 419.287 187.384C418.981 187.372 418.688 187.259 418.452 187.063C418.217 186.867 418.054 186.598 417.987 186.3C417.951 186.17 417.947 186.034 417.975 185.902C418.002 185.771 418.06 185.647 418.144 185.542C418.228 185.437 418.336 185.354 418.458 185.298C418.581 185.242 418.714 185.216 418.849 185.222C419.153 185.234 419.446 185.346 419.681 185.541C419.916 185.736 420.08 186.002 420.149 186.3Z" fill="black"/>
<path d="M421.004 197.242C421.038 197.372 421.042 197.508 421.015 197.64C420.988 197.772 420.93 197.895 420.846 198.001C420.762 198.106 420.655 198.191 420.532 198.247C420.41 198.304 420.276 198.331 420.142 198.326C419.836 198.314 419.543 198.201 419.308 198.004C419.073 197.808 418.909 197.54 418.842 197.242C418.807 197.112 418.803 196.976 418.83 196.844C418.857 196.712 418.915 196.589 418.999 196.484C419.083 196.379 419.191 196.296 419.313 196.24C419.436 196.184 419.569 196.158 419.704 196.164C420.009 196.176 420.301 196.288 420.536 196.483C420.771 196.678 420.935 196.944 421.004 197.242Z" fill="black"/>
<path d="M422.165 208.608C422.199 208.738 422.203 208.874 422.176 209.006C422.149 209.138 422.091 209.262 422.007 209.367C421.923 209.472 421.816 209.557 421.693 209.613C421.571 209.67 421.437 209.697 421.303 209.692C420.997 209.68 420.704 209.567 420.469 209.371C420.234 209.174 420.07 208.906 420.003 208.608C419.968 208.478 419.964 208.342 419.991 208.21C420.018 208.079 420.076 207.955 420.16 207.85C420.244 207.745 420.352 207.662 420.474 207.606C420.597 207.55 420.73 207.524 420.865 207.53C421.17 207.542 421.462 207.654 421.697 207.849C421.932 208.044 422.096 208.31 422.165 208.608Z" fill="black"/>
<path d="M430.639 240.892C430.625 240.818 430.625 240.743 430.639 240.669C430.694 240.349 430.931 240.12 431.404 240.03C433.552 239.633 441.699 239.258 444.612 238.278C447.525 237.298 455.985 235.671 455.985 235.671L471.411 216.901L486.225 228.497C475.797 237.638 466.433 244.131 465.961 244.534C463.437 248.914 457.57 258.723 454.838 259.905C451.285 261.427 441.338 259.724 439.426 260.078C437.514 260.433 430.159 258.035 432.161 254.642C432.856 253.433 439.996 245.118 439.996 245.118C439.996 245.118 437.813 244.833 434.9 244.333C432.766 243.971 430.729 242.032 430.674 240.857L430.639 240.892Z" fill="#F9B098"/>
<path d="M450.514 145.757C450.347 145.757 450.18 145.757 450.013 145.757C433.788 146.188 426.53 167.933 445.564 179.25C456.235 185.604 486.225 198.938 486.225 198.938L474.275 213.46C475.436 213.105 477.056 213.091 479.35 213.78C484.376 215.295 490.201 218.611 493.594 222.003C497.904 218.11 501.978 214.308 505.147 211.096C508.178 208.03 515.102 200.794 507.233 191.791C505.029 189.275 499.683 184.547 495.269 180.62L458.293 148.795C456.105 146.954 453.37 145.886 450.514 145.757Z" fill="#EF9F34"/>
<path d="M458.939 232L455.971 235.671L462.714 240.189C462.714 240.189 463.944 241.051 463.805 239.494C463.687 238.222 461.178 233.794 458.939 232Z" fill="black"/>
<path d="M471.397 216.929L486.218 228.538C486.218 228.538 496.555 231.611 496.465 227.03C496.375 222.449 486.955 216.053 479.35 213.759C471.745 211.465 471.397 216.929 471.397 216.929Z" fill="white"/>
<path d="M486.225 198.917L493.67 194.85C493.67 194.85 494.365 194.329 492.913 193.682C491.46 193.036 479.829 196.039 479.829 196.039L486.225 198.917Z" fill="black"/>
<path d="M471.397 216.929L482.388 231.764L486.211 228.531L471.397 216.929Z" fill="black"/>
<path d="M435.484 244.43C436.951 244.802 438.45 245.035 439.961 245.125C440.893 241.587 438.571 243.804 435.484 244.43Z" fill="black"/>
<path d="M205.458 129.768C206.334 129.142 214.294 132.653 216.067 135.128L218.152 138.04C219.925 140.515 210.978 146.925 209.205 144.443L207.12 141.537C205.347 139.055 204.582 130.414 205.458 129.768Z" fill="#F9B098"/>
<path d="M207.224 141.641L234.565 179.82C235.414 181.007 236.7 181.807 238.139 182.046C239.579 182.284 241.054 181.942 242.24 181.093C243.427 180.243 244.227 178.958 244.466 177.519C244.704 176.079 244.361 174.604 243.512 173.418L216.171 135.232L212.883 135.343L211.917 138.367L208.441 138.478L207.238 141.634L207.224 141.641Z" fill="#EF9F34"/>
<path d="M230.679 174.405L234.565 179.827C235.414 181.014 236.7 181.814 238.139 182.053C239.579 182.291 241.054 181.948 242.24 181.099C243.426 180.25 244.227 178.965 244.466 177.526C244.704 176.086 244.361 174.611 243.512 173.425L239.626 168.002L230.679 174.412V174.405Z" fill="#C84F49"/>
<path d="M205.458 129.768C205.014 130.088 204.993 132.507 205.319 135.121L210.575 131.36C208.204 130.213 205.91 129.448 205.458 129.768Z" fill="black"/>
<path d="M230.679 174.405L232.674 177.186L241.621 170.783L239.626 167.996L230.679 174.405Z" fill="white"/>
<path d="M229.755 173.112L230.679 174.405L239.626 167.995L237.631 165.215L229.755 173.112Z" fill="black"/>
<path d="M478.453 418.96C477.924 418.956 477.403 419.078 476.93 419.315C473.663 420.962 472.627 428.171 474.115 438.779C470.861 435.262 467.963 433.406 465.717 433.413C465.108 433.406 464.508 433.562 463.979 433.865C460.934 435.637 460.246 442.45 462.116 452.398H501.095C494.205 433.211 484.529 418.96 478.453 418.96Z" fill="#43AD67"/>
<path d="M517.035 386.023C510.632 386.12 501.345 402.922 495.992 424.118C493.357 434.546 492.037 444.716 492.322 452.391H541.137C543.695 446.586 544.154 442.325 542.444 440.316C542.024 439.872 541.51 439.526 540.94 439.305C540.37 439.084 539.758 438.992 539.148 439.037C536.931 439.037 533.955 440.072 530.431 442.04C539.162 427.24 542.04 415.408 537.508 412.954C536.883 412.633 536.187 412.478 535.485 412.502C532.009 412.502 526.621 415.651 520.42 421.31C524.494 401.782 523.257 386.773 517.529 386.05C517.364 386.04 517.199 386.04 517.035 386.05V386.023Z" fill="#56BB6A"/>
<path d="M520.414 421.31C520.414 421.31 516.479 426.322 514.79 431.605L513.107 436.882C513.162 432.147 513.825 427.439 515.082 422.874C516.21 418.694 518.622 414.974 521.978 412.238C521.978 412.238 520.9 419.593 520.414 421.275V421.31Z" fill="black"/>
<path d="M64.4842 375.06C71.3317 375.102 81.0641 391.445 88.9891 416.179C93.466 407.524 97.8665 403.159 101.502 403.812C107.3 404.862 110.31 418.689 109.351 439.885C122.934 442.589 130.727 446.697 130.845 451.202C130.853 451.606 130.801 452.009 130.693 452.398H0C1.57109 449.409 6.43731 446.496 14.0703 443.993C6.4234 432.05 3.83736 423.374 7.06296 420.128C10.8517 416.311 22.1413 420.434 37.164 431.126C34.4875 420.99 34.8143 414.351 38.0955 412.356C41.9815 410.027 49.6771 414.441 59.3052 424.57C54.8631 396.909 56.594 376.791 63.5527 375.15C63.8669 375.075 64.189 375.037 64.5121 375.039L64.4842 375.06Z" fill="#56BB6A"/>
<path d="M57.6021 411.793C58.0122 415.894 58.5753 420.183 59.2774 424.591C59.2774 424.591 65.4853 433.802 68.1826 440.232L70.8799 446.663C70.8799 446.663 68.982 426.169 57.6021 411.793Z" fill="black"/>
<path d="M14.0424 443.986L19.3883 452.391C16.033 450.737 13.2224 448.155 11.2896 444.953L14.0702 443.986H14.0424Z" fill="black"/>
<path d="M465.988 20.5078H542.527C543.509 20.506 544.481 20.698 545.389 21.0729C546.296 21.4479 547.121 21.9983 547.815 22.6926C548.51 23.3869 549.06 24.2114 549.435 25.1189C549.81 26.0264 550.002 26.999 550 27.9809V91.2417C550.002 92.2232 549.81 93.1955 549.435 94.1026C549.06 95.0097 548.509 95.8338 547.815 96.5276C547.12 97.2213 546.296 97.7711 545.388 98.1452C544.481 98.5194 543.508 98.7106 542.527 98.7078H465.988C465.008 98.7069 464.037 98.5126 463.132 98.1359C462.227 97.7593 461.405 97.2077 460.713 96.5128C460.022 95.818 459.474 94.9935 459.102 94.0865C458.729 93.1796 458.539 92.2082 458.543 91.2278V27.967C458.54 26.9855 458.731 26.013 459.106 25.1055C459.48 24.1981 460.029 23.3735 460.723 22.6791C461.417 21.9847 462.241 21.4342 463.148 21.0592C464.055 20.6842 465.028 20.4921 466.009 20.4939L465.988 20.5078Z" fill="black"/>
<path d="M459.342 13.8618H535.874C536.855 13.86 537.827 14.0515 538.734 14.4255C539.641 14.7994 540.465 15.3485 541.16 16.0412C541.855 16.734 542.406 17.5568 542.782 18.4628C543.159 19.3687 543.353 20.34 543.354 21.321V84.5818C543.355 85.5637 543.162 86.5361 542.786 87.4432C542.411 88.3504 541.859 89.1744 541.164 89.8681C540.47 90.5618 539.644 91.1114 538.737 91.4855C537.829 91.8595 536.856 92.0507 535.874 92.0479H459.342C458.361 92.0498 457.39 91.8579 456.483 91.4833C455.576 91.1088 454.753 90.5589 454.059 89.8652C453.365 89.1716 452.815 88.3478 452.441 87.4411C452.066 86.5344 451.874 85.5628 451.876 84.5818V21.321C451.874 20.3395 452.065 19.367 452.439 18.4595C452.813 17.5521 453.363 16.7275 454.057 16.0331C454.75 15.3387 455.574 14.7882 456.481 14.4132C457.389 14.0382 458.361 13.8461 459.342 13.8479V13.8618Z" fill="white"/>
<path d="M459.343 13.8618C458.362 13.86 457.391 14.0516 456.485 14.4258C455.579 14.7999 454.755 15.3491 454.062 16.0421C453.368 16.735 452.818 17.558 452.443 18.4638C452.068 19.3697 451.876 20.3406 451.876 21.321V28.0642H543.354V21.321C543.355 20.3388 543.162 19.366 542.787 18.4585C542.411 17.5509 541.86 16.7264 541.165 16.0322C540.47 15.338 539.645 14.7877 538.737 14.4129C537.829 14.0381 536.856 13.8461 535.874 13.8479L459.343 13.8618Z" fill="#C84F49"/>
<path d="M476.263 13.8617C476.264 12.4161 475.837 11.0025 475.034 9.79993C474.232 8.59735 473.091 7.65981 471.756 7.10595C470.421 6.5521 468.951 6.40682 467.533 6.68851C466.115 6.97021 464.813 7.6662 463.79 8.68842C462.768 9.71064 462.072 11.0131 461.79 12.4311C461.509 13.849 461.654 15.3186 462.208 16.6539C462.762 17.9893 463.699 19.1303 464.902 19.9326C466.104 20.7349 467.518 21.1624 468.964 21.161V13.8617H476.263Z" fill="#F48032"/>
<path d="M525.37 13.8619V21.1613C526.253 17.6854 528.464 15.1132 532.669 13.8619H525.37Z" fill="black"/>
<path d="M532.669 13.8617C532.671 12.4161 532.243 11.0025 531.441 9.79993C530.639 8.59735 529.498 7.65981 528.162 7.10595C526.827 6.5521 525.357 6.40682 523.94 6.68851C522.522 6.97021 521.219 7.6662 520.197 8.68842C519.175 9.71064 518.479 11.0131 518.197 12.4311C517.915 13.849 518.061 15.3186 518.614 16.6539C519.168 17.9893 520.106 19.1303 521.308 19.9326C522.511 20.7349 523.924 21.1624 525.37 21.161V13.8617H532.669Z" fill="#F48032"/>
<path d="M468.971 13.8619V21.1613C469.854 17.6854 472.057 15.1132 476.27 13.8619H468.971Z" fill="black"/>
<path d="M479.211 47.0426C479.211 48.6925 478.721 50.3053 477.805 51.6772C476.888 53.049 475.585 54.1183 474.061 54.7497C472.537 55.3811 470.859 55.5462 469.241 55.2244C467.623 54.9025 466.136 54.108 464.97 52.9413C463.803 51.7747 463.009 50.2882 462.687 48.67C462.365 47.0518 462.53 45.3745 463.161 43.8502C463.793 42.3259 464.862 41.023 466.234 40.1064C467.606 39.1898 469.219 38.7005 470.868 38.7005C471.965 38.6959 473.052 38.9086 474.066 39.3262C475.08 39.7438 476.002 40.358 476.777 41.1336C477.553 41.9091 478.167 42.8306 478.585 43.8448C479.002 44.859 479.215 45.9458 479.211 47.0426Z" fill="black"/>
<path d="M477.904 44.957C477.904 46.5986 477.417 48.2034 476.506 49.5687C475.595 50.9341 474.299 51.9989 472.783 52.6286C471.268 53.2584 469.599 53.4249 467.988 53.1072C466.378 52.7895 464.898 52.0017 463.734 50.8434C462.571 49.6851 461.777 48.2081 461.453 46.5989C461.128 44.9898 461.288 43.3205 461.911 41.802C462.535 40.2834 463.594 38.9836 464.956 38.0666C466.317 37.1496 467.92 36.6566 469.562 36.6497C470.655 36.6452 471.739 36.8567 472.751 37.2721C473.763 37.6875 474.683 38.2987 475.458 39.0706C476.233 39.8424 476.848 40.7598 477.268 41.7699C477.688 42.7801 477.904 43.8632 477.904 44.957Z" fill="#56BB6A"/>
<path d="M505.398 47.0426C505.398 48.694 504.908 50.3082 503.989 51.6808C503.071 53.0534 501.766 54.1226 500.24 54.7529C498.714 55.3833 497.035 55.5464 495.415 55.2217C493.796 54.897 492.31 54.0991 491.145 52.9289C489.979 51.7588 489.188 50.2691 488.87 48.6486C488.552 47.0281 488.722 45.3498 489.359 43.8261C489.995 42.3024 491.07 41.0019 492.446 40.0895C493.823 39.177 495.439 38.6936 497.09 38.7005C498.185 38.6996 499.268 38.915 500.279 39.3343C501.289 39.7536 502.207 40.3686 502.979 41.1439C503.751 41.9192 504.362 42.8394 504.777 43.8518C505.192 44.8641 505.403 45.9485 505.398 47.0426Z" fill="black"/>
<path d="M504.098 44.957C504.105 46.6083 503.621 48.2246 502.709 49.601C501.797 50.9774 500.496 52.0521 498.972 52.6888C497.449 53.3255 495.77 53.4957 494.15 53.1777C492.529 52.8598 491.04 52.068 489.87 50.9028C488.699 49.7375 487.901 48.2512 487.577 46.632C487.252 45.0129 487.415 43.3338 488.045 41.8074C488.676 40.2811 489.745 38.9762 491.118 38.058C492.49 37.1398 494.104 36.6497 495.756 36.6497C497.962 36.6496 500.079 37.5238 501.642 39.0807C503.206 40.6376 504.089 42.7505 504.098 44.957Z" fill="#56BB6A"/>
<path d="M532.092 47.0426C532.092 48.694 531.602 50.3082 530.684 51.6808C529.766 53.0534 528.461 54.1226 526.935 54.7529C525.408 55.3833 523.729 55.5464 522.11 55.2217C520.491 54.897 519.004 54.0991 517.839 52.9289C516.674 51.7588 515.882 50.2691 515.564 48.6486C515.246 47.0281 515.416 45.3498 516.053 43.8261C516.69 42.3024 517.765 41.0019 519.141 40.0895C520.517 39.177 522.134 38.6936 523.785 38.7005C524.879 38.7005 525.962 38.9165 526.972 39.3362C527.982 39.7558 528.9 40.3709 529.672 41.1459C530.443 41.921 531.055 42.8409 531.47 43.8528C531.885 44.8647 532.097 45.9487 532.092 47.0426Z" fill="black"/>
<path d="M530.792 44.9571C530.792 46.6091 530.302 48.2238 529.383 49.5967C528.464 50.9696 527.159 52.0388 525.631 52.6687C524.104 53.2986 522.424 53.461 520.805 53.1351C519.185 52.8093 517.699 52.0099 516.534 50.8384C515.37 49.6669 514.579 48.1759 514.263 46.5545C513.946 44.9331 514.118 43.2543 514.757 41.7308C515.396 40.2074 516.473 38.9079 517.851 37.9972C519.229 37.0864 520.847 36.6054 522.499 36.615C524.705 36.615 526.822 37.4891 528.386 39.046C529.949 40.603 530.832 42.7159 530.841 44.9223L530.792 44.9571Z" fill="#56BB6A"/>
<path d="M479.211 70.5187C479.211 72.1686 478.721 73.7814 477.805 75.1533C476.888 76.5251 475.585 77.5944 474.061 78.2258C472.537 78.8571 470.859 79.0223 469.241 78.7005C467.623 78.3786 466.136 77.5841 464.97 76.4174C463.803 75.2507 463.009 73.7643 462.687 72.1461C462.365 70.5279 462.53 68.8506 463.161 67.3263C463.793 65.802 464.862 64.4991 466.234 63.5825C467.606 62.6658 469.219 62.1766 470.868 62.1766C471.965 62.172 473.052 62.3846 474.066 62.8022C475.08 63.2198 476.002 63.8341 476.777 64.6097C477.553 65.3852 478.167 66.3067 478.585 67.3209C479.002 68.335 479.215 69.4219 479.211 70.5187Z" fill="black"/>
<path d="M477.904 68.4398C477.904 70.0897 477.414 71.7026 476.498 73.0744C475.581 74.4463 474.278 75.5155 472.754 76.1469C471.23 76.7783 469.552 76.9435 467.934 76.6216C466.316 76.2997 464.83 75.5052 463.663 74.3386C462.496 73.1719 461.702 71.6855 461.38 70.0673C461.058 68.4491 461.223 66.7718 461.854 65.2474C462.486 63.7231 463.555 62.4203 464.927 61.5036C466.299 60.587 467.912 60.0977 469.562 60.0977C470.658 60.0931 471.745 60.3058 472.759 60.7234C473.774 61.141 474.695 61.7553 475.471 62.5308C476.246 63.3064 476.86 64.2278 477.278 65.242C477.696 66.2562 477.908 67.343 477.904 68.4398Z" fill="#56BB6A"/>
<path d="M505.398 70.5187C505.398 72.17 504.908 73.7843 503.989 75.1569C503.071 76.5295 501.766 77.5987 500.24 78.229C498.714 78.8594 497.035 79.0225 495.415 78.6978C493.796 78.3731 492.31 77.5752 491.145 76.405C489.979 75.2349 489.188 73.7452 488.87 72.1247C488.552 70.5042 488.722 68.8258 489.359 67.3021C489.995 65.7784 491.07 64.478 492.446 63.5656C493.823 62.6531 495.439 62.1697 497.09 62.1766C498.185 62.1757 499.268 62.3911 500.279 62.8104C501.289 63.2297 502.207 63.8447 502.979 64.62C503.751 65.3953 504.362 66.3155 504.777 67.3278C505.192 68.3402 505.403 69.4246 505.398 70.5187Z" fill="black"/>
<path d="M504.098 68.4397C504.098 70.0896 503.608 71.7025 502.692 73.0743C501.775 74.4462 500.472 75.5154 498.948 76.1468C497.424 76.7782 495.746 76.9434 494.128 76.6215C492.51 76.2997 491.024 75.5051 489.857 74.3385C488.69 73.1718 487.896 71.6854 487.574 70.0672C487.252 68.449 487.417 66.7717 488.049 65.2474C488.68 63.723 489.749 62.4202 491.121 61.5036C492.493 60.5869 494.106 60.0977 495.756 60.0977C497.968 60.0977 500.09 60.9765 501.654 62.541C503.219 64.1054 504.098 66.2273 504.098 68.4397Z" fill="#56BB6A"/>
<path d="M532.092 70.5187C532.092 72.17 531.602 73.7843 530.684 75.1569C529.766 76.5295 528.461 77.5987 526.935 78.229C525.408 78.8594 523.729 79.0225 522.11 78.6978C520.491 78.3731 519.004 77.5752 517.839 76.405C516.674 75.2349 515.882 73.7452 515.564 72.1247C515.246 70.5042 515.416 68.8258 516.053 67.3021C516.69 65.7784 517.765 64.478 519.141 63.5656C520.517 62.6531 522.134 62.1697 523.785 62.1766C524.879 62.1766 525.962 62.3926 526.972 62.8123C527.982 63.2319 528.9 63.8469 529.672 64.622C530.443 65.3971 531.055 66.317 531.47 67.3289C531.885 68.3408 532.097 69.4248 532.092 70.5187Z" fill="black"/>
<path d="M530.792 68.4397C530.792 70.0896 530.303 71.7025 529.387 73.0743C528.47 74.4462 527.167 75.5154 525.643 76.1468C524.118 76.7782 522.441 76.9434 520.823 76.6215C519.205 76.2997 517.718 75.5051 516.552 74.3385C515.385 73.1718 514.59 71.6854 514.269 70.0672C513.947 68.449 514.112 66.7717 514.743 65.2474C515.375 63.723 516.444 62.4202 517.816 61.5036C519.188 60.5869 520.8 60.0977 522.45 60.0977C524.663 60.0977 526.785 60.9765 528.349 62.541C529.914 64.1054 530.792 66.2273 530.792 68.4397Z" fill="#56BB6A"/>
<path d="M451.876 28.0781H543.354V31.116L451.876 28.0781Z" fill="black"/>
<path d="M179.501 108.419C179.501 119.557 175.076 130.239 167.2 138.115C159.325 145.99 148.643 150.415 137.505 150.415C126.367 150.415 115.684 145.991 107.807 138.115C99.9307 130.24 95.5047 119.558 95.5028 108.419C95.5028 97.2798 99.928 86.5963 107.805 78.7193C115.682 70.8424 126.365 66.4171 137.505 66.4171C143.021 66.4171 148.482 67.5036 153.578 69.6145C158.673 71.7254 163.303 74.8194 167.203 78.7197C171.103 82.6201 174.196 87.2505 176.306 92.3464C178.416 97.4423 179.501 102.904 179.501 108.419Z" fill="black"/>
<path d="M179.501 102.726C179.501 108.241 178.416 113.703 176.306 118.799C174.196 123.895 171.103 128.525 167.203 132.426C163.303 136.326 158.673 139.42 153.578 141.531C148.482 143.642 143.021 144.728 137.505 144.728C126.365 144.728 115.682 140.303 107.805 132.426C99.928 124.549 95.5028 113.866 95.5028 102.726C95.5028 91.5863 99.928 80.9028 107.805 73.0258C115.682 65.1489 126.365 60.7236 137.505 60.7236C143.021 60.7236 148.482 61.8101 153.578 63.921C158.673 66.0319 163.303 69.1259 167.203 73.0263C171.103 76.9266 174.196 81.557 176.306 86.6529C178.416 91.7488 179.501 97.2105 179.501 102.726Z" fill="#EBBF38"/>
<path d="M150.665 88.4191C150.663 91.9087 149.276 95.2549 146.808 97.7224C144.341 100.19 140.995 101.577 137.505 101.579C134.015 101.579 130.668 100.192 128.2 97.7244C125.732 95.2565 124.346 91.9093 124.346 88.4191C124.345 86.6907 124.684 84.9791 125.345 83.3821C126.006 81.7851 126.976 80.334 128.198 79.1118C129.42 77.8897 130.871 76.9204 132.468 76.2594C134.065 75.5984 135.777 75.2586 137.505 75.2595C140.995 75.2595 144.343 76.646 146.81 79.1139C149.278 81.5818 150.665 84.929 150.665 88.4191Z" fill="#F48032"/>
<path d="M137.505 110.825C120.821 110.825 107.14 119.862 106.612 131.179C110.545 135.451 115.321 138.86 120.638 141.192C125.956 143.524 131.699 144.728 137.505 144.728C143.312 144.728 149.055 143.524 154.372 141.192C159.69 138.86 164.466 135.451 168.399 131.179C167.87 119.834 154.196 110.825 137.505 110.825Z" fill="#F48032"/>
<path d="M73.1947 207.349H201.802C204.725 207.422 207.503 208.635 209.545 210.728C211.586 212.82 212.729 215.628 212.729 218.552C212.729 221.476 211.586 224.284 209.545 226.377C207.503 228.47 204.725 229.682 201.802 229.755H73.1947C70.2718 229.682 67.4932 228.47 65.4517 226.377C63.4102 224.284 62.2676 221.476 62.2676 218.552C62.2676 215.628 63.4102 212.82 65.4517 210.728C67.4932 208.635 70.2718 207.422 73.1947 207.349Z" fill="#DAD5E3"/>
<path d="M73.591 244.527H202.198C205.121 244.6 207.9 245.812 209.941 247.905C211.982 249.998 213.125 252.806 213.125 255.73C213.125 258.654 211.982 261.462 209.941 263.555C207.9 265.648 205.121 266.86 202.198 266.933H73.591C70.6682 266.86 67.8896 265.648 65.8481 263.555C63.8066 261.462 62.6639 258.654 62.6639 255.73C62.6639 252.806 63.8066 249.998 65.8481 247.905C67.8896 245.812 70.6682 244.6 73.591 244.527Z" fill="#DAD5E3"/>
<path d="M88.1897 260.738C87.71 261.093 85.2143 259.772 84.6234 259.772C84.0325 259.772 81.5577 261.162 81.0781 260.794C80.5984 260.425 81.0781 257.666 80.8973 257.109C80.7166 256.553 78.6519 254.614 78.8118 254.051C78.9717 253.488 81.7802 253.091 82.2877 252.737C82.7951 252.382 83.963 249.831 84.5539 249.831C85.1448 249.831 86.3892 252.361 86.8689 252.702C87.3485 253.043 90.1501 253.397 90.3447 253.96C90.5394 254.523 88.5025 256.491 88.3287 257.054C88.1549 257.617 88.6763 260.391 88.2036 260.738H88.1897Z" fill="black"/>
<path d="M114.85 260.738C114.37 261.093 111.874 259.772 111.283 259.772C110.692 259.772 108.218 261.162 107.738 260.794C107.258 260.425 107.738 257.666 107.557 257.109C107.376 256.553 105.312 254.614 105.472 254.051C105.632 253.488 108.447 253.091 108.948 252.737C109.448 252.382 110.623 249.831 111.214 249.831C111.805 249.831 113.049 252.361 113.529 252.702C114.008 253.043 116.81 253.397 117.005 253.96C117.199 254.523 115.162 256.491 114.989 257.054C114.815 257.617 115.336 260.391 114.864 260.738H114.85Z" fill="black"/>
<path d="M141.544 260.738C141.064 261.093 138.569 259.772 137.978 259.772C137.387 259.772 134.912 261.162 134.433 260.794C133.953 260.425 134.433 257.666 134.252 257.109C134.071 256.553 132.006 254.614 132.166 254.051C132.326 253.488 135.142 253.091 135.642 252.737C136.143 252.382 137.318 249.831 137.908 249.831C138.499 249.831 139.744 252.361 140.223 252.702C140.703 253.043 143.505 253.397 143.699 253.96C143.894 254.523 141.857 256.491 141.683 257.054C141.509 257.617 142.031 260.391 141.558 260.738H141.544Z" fill="black"/>
<path d="M168.169 260.738C167.69 261.093 165.194 259.772 164.603 259.772C164.012 259.772 161.537 261.162 161.058 260.794C160.578 260.425 161.058 257.666 160.877 257.109C160.696 256.553 158.632 254.614 158.792 254.051C158.951 253.488 161.767 253.091 162.267 252.737C162.768 252.382 163.95 249.831 164.541 249.831C165.132 249.831 166.369 252.361 166.849 252.702C167.328 253.043 170.13 253.397 170.324 253.96C170.519 254.523 168.482 256.491 168.308 257.054C168.135 257.617 168.656 260.391 168.183 260.738H168.169Z" fill="black"/>
<path d="M194.829 260.738C194.356 261.093 191.854 259.772 191.27 259.772C190.686 259.772 188.197 261.162 187.718 260.794C187.238 260.425 187.718 257.666 187.537 257.109C187.356 256.553 185.291 254.614 185.451 254.051C185.611 253.488 188.427 253.091 188.927 252.737C189.428 252.382 190.61 249.831 191.2 249.831C191.791 249.831 193.029 252.361 193.508 252.702C193.988 253.043 196.79 253.397 196.984 253.96C197.179 254.523 195.149 256.491 194.968 257.054C194.788 257.617 195.316 260.391 194.843 260.738H194.829Z" fill="black"/>
<path d="M101.182 293.558H173.828C175.3 293.555 176.759 293.843 178.12 294.405C179.48 294.968 180.717 295.793 181.758 296.834C182.799 297.875 183.624 299.112 184.187 300.472C184.749 301.833 185.037 303.292 185.034 304.764V311.716C185.037 313.188 184.749 314.646 184.186 316.006C183.624 317.367 182.799 318.603 181.758 319.643C180.716 320.684 179.48 321.509 178.119 322.07C176.758 322.632 175.3 322.919 173.828 322.915H101.182C99.7102 322.919 98.2519 322.632 96.8911 322.07C95.5303 321.509 94.2938 320.684 93.2526 319.643C92.2114 318.603 91.3859 317.367 90.8236 316.006C90.2614 314.646 89.9733 313.188 89.9761 311.716V304.764C89.9733 303.292 90.2613 301.833 90.8235 300.472C91.3857 299.112 92.211 297.875 93.2522 296.834C94.2933 295.793 95.5298 294.968 96.8906 294.405C98.2514 293.843 99.7099 293.555 101.182 293.558Z" fill="#56BB6A"/>
<path d="M105.395 307.301C105.178 307.301 104.969 307.388 104.815 307.542C104.661 307.695 104.575 307.904 104.575 308.122C104.573 308.23 104.593 308.337 104.633 308.438C104.674 308.538 104.734 308.629 104.811 308.706C104.887 308.782 104.979 308.843 105.079 308.883C105.179 308.924 105.287 308.944 105.395 308.942H169.629C169.847 308.942 170.055 308.856 170.209 308.702C170.363 308.548 170.449 308.339 170.449 308.122C170.449 307.904 170.363 307.695 170.209 307.542C170.055 307.388 169.847 307.301 169.629 307.301H105.395Z" fill="black"/>
<path d="M80.7374 218.118C80.5199 218.118 80.3112 218.204 80.1574 218.358C80.0035 218.512 79.9171 218.72 79.9171 218.938C79.9171 219.155 80.0035 219.364 80.1574 219.518C80.3112 219.672 80.5199 219.758 80.7374 219.758H194.273C194.491 219.758 194.699 219.672 194.853 219.518C195.007 219.364 195.093 219.155 195.093 218.938C195.093 218.72 195.007 218.512 194.853 218.358C194.699 218.204 194.491 218.118 194.273 218.118H80.7374Z" fill="black"/>
<path d="M117.7 181.621C117.482 181.621 117.273 181.534 117.12 181.38C116.966 181.227 116.879 181.018 116.879 180.8C116.879 180.583 116.966 180.374 117.12 180.22C117.273 180.067 117.482 179.98 117.7 179.98H157.325C157.542 179.98 157.751 180.067 157.905 180.22C158.058 180.374 158.145 180.583 158.145 180.8C158.145 181.018 158.058 181.227 157.905 181.38C157.751 181.534 157.542 181.621 157.325 181.621H117.7Z" fill="black"/>
<path d="M84.8458 166.953C84.6283 166.953 84.4196 166.867 84.2658 166.713C84.1119 166.559 84.0255 166.35 84.0255 166.133C84.0255 165.915 84.1119 165.707 84.2658 165.553C84.4196 165.399 84.6283 165.312 84.8458 165.312H190.165C190.382 165.312 190.591 165.399 190.745 165.553C190.898 165.707 190.985 165.915 190.985 166.133C190.985 166.35 190.898 166.559 190.745 166.713C190.591 166.867 190.382 166.953 190.165 166.953H84.8458Z" fill="black"/>
</svg>
