<svg width="550" height="449" viewBox="0 0 550 449" fill="none" xmlns="http://www.w3.org/2000/svg">
<path d="M488.227 416.432C487.725 416.428 487.229 416.544 486.78 416.769C483.682 418.335 482.684 425.186 484.137 435.268C481.046 431.925 478.284 430.161 476.157 430.167C475.577 430.159 475.005 430.31 474.505 430.603C471.611 432.282 470.957 438.763 472.734 448.21H509.745C503.191 429.982 494.001 416.406 488.227 416.432Z" fill="#43AD67"/>
<path d="M524.894 385.143C518.803 385.236 509.983 401.204 504.896 421.341C502.392 431.251 501.136 440.923 501.407 448.21H547.793C550.224 442.694 550.66 438.644 549.035 436.741C548.636 436.313 548.146 435.98 547.6 435.768C547.054 435.556 546.467 435.471 545.884 435.519C543.769 435.519 540.942 436.497 537.592 438.367C545.923 424.288 548.658 413.056 544.351 410.737C543.754 410.434 543.091 410.284 542.422 410.301C539.118 410.301 533.998 413.294 528.105 418.672C531.977 400.12 530.807 385.85 525.357 385.169C525.203 385.159 525.048 385.159 524.894 385.169V385.143Z" fill="#56BB6A"/>
<path d="M528.105 418.672C528.105 418.672 524.366 423.442 522.76 428.456L521.161 433.471C521.217 428.973 521.85 424.501 523.044 420.165C524.117 416.192 526.409 412.657 529.598 410.057C529.598 410.057 528.567 417.047 528.105 418.645V418.672Z" fill="black"/>
<path d="M69.6147 357.639C72.8814 357.639 76.0747 358.608 78.7909 360.423C81.507 362.238 83.624 364.817 84.8741 367.835C86.1242 370.853 86.4513 374.174 85.814 377.378C85.1767 380.582 83.6036 383.525 81.2937 385.835C78.9838 388.145 76.0409 389.718 72.8369 390.355C69.633 390.993 66.312 390.666 63.294 389.415C60.276 388.165 57.6964 386.048 55.8815 383.332C54.0667 380.616 53.098 377.423 53.098 374.156C53.098 369.775 54.8381 365.574 57.9356 362.477C61.0331 359.379 65.2342 357.639 69.6147 357.639ZM69.6147 356.08C66.0406 356.079 62.5465 357.137 59.5741 359.122C56.6018 361.107 54.2848 363.928 52.9161 367.23C51.5475 370.532 51.1887 374.165 51.8852 377.67C52.5817 381.176 54.3021 384.396 56.8288 386.924C59.3556 389.452 62.5752 391.173 66.0805 391.871C69.5858 392.569 73.2192 392.211 76.5214 390.844C79.8235 389.476 82.6459 387.16 84.6317 384.189C86.6174 381.217 87.6773 377.723 87.6773 374.149C87.6756 369.359 85.7722 364.765 82.3854 361.377C78.9985 357.989 74.4053 356.084 69.6147 356.08ZM322.036 328.088H322.188C333.637 328.108 344.61 332.673 352.695 340.779C360.781 348.886 365.317 359.871 365.306 371.32C365.296 382.769 360.741 393.746 352.642 401.839C344.542 409.931 333.561 414.476 322.112 414.476C310.663 414.476 299.682 409.931 291.582 401.839C283.483 393.746 278.928 382.769 278.918 371.32C278.908 359.871 283.443 348.886 291.529 340.779C299.614 332.673 310.587 328.108 322.036 328.088ZM151.035 49.2857C157.889 49.2717 164.722 50.0341 171.404 51.5584C191.508 56.1831 206.571 67.2361 217.935 78.5996C223.511 84.1756 229.027 93.9931 235.158 105.773C241.289 117.553 248.041 131.294 256.26 144.785C272.697 171.78 295.021 197.791 329.845 204.853C364.669 211.916 405.65 196.549 439.906 187.385C457.03 182.807 472.483 179.787 484.521 181.756C496.558 183.725 505.239 190.484 509.342 205.963C524.927 264.763 474.445 343.138 366.876 375.028C366.975 373.819 367.028 372.597 367.028 371.361C367.029 359.47 362.308 348.064 353.902 339.653C345.496 331.242 334.093 326.514 322.201 326.509H322.036C314.75 326.54 307.582 328.345 301.15 331.769C294.719 335.193 289.218 340.131 285.123 346.158C281.029 352.184 278.464 359.118 277.65 366.358C276.837 373.598 277.799 380.928 280.454 387.713C195.888 386.524 133.911 340.878 79.7031 273.827C45.9562 232.093 33.9056 186.579 38.1669 147.93C42.4282 109.281 62.9684 77.5227 94.4756 63.1532C116.238 53.2431 134.942 49.2791 151.035 49.2791V49.2857ZM151.597 47.7332C149.932 47.7332 148.239 47.764 146.516 47.8257C131.229 48.4863 113.767 52.6287 93.8281 61.6997C61.7659 76.3203 40.9219 108.607 36.6143 147.725C32.3068 186.843 44.5423 232.753 78.4874 274.778C132.966 342.193 195.531 388.281 280.916 389.305C280.978 389.312 281.04 389.312 281.101 389.305C285.036 398.327 291.83 405.804 300.435 410.581C309.041 415.358 318.979 417.171 328.717 415.74C338.455 414.308 347.451 409.712 354.318 402.66C361.184 395.608 365.539 386.492 366.71 376.719H366.763C475.258 344.743 526.764 265.575 510.868 205.56C506.646 189.651 497.285 182.258 484.785 180.217C472.285 178.175 456.693 181.281 439.516 185.879C405.161 195.075 364.358 210.251 330.175 203.32C295.992 196.39 273.946 170.816 257.608 143.999C249.435 130.588 242.69 116.912 236.552 105.079C230.415 93.2466 224.898 83.3828 219.038 77.5227C207.542 66.0271 192.221 54.7759 171.761 50.0653C165.145 48.5553 158.383 47.782 151.597 47.7596V47.7332ZM405.445 28.2038C408.712 28.2038 411.905 29.1725 414.621 30.9874C417.338 32.8023 419.455 35.3818 420.705 38.3999C421.955 41.4179 422.282 44.7388 421.645 47.9428C421.007 51.1467 419.434 54.0897 417.124 56.3996C414.814 58.7095 411.871 60.2826 408.668 60.9199C405.464 61.5572 402.143 61.2301 399.125 59.98C396.107 58.7299 393.527 56.6129 391.712 53.8967C389.897 51.1806 388.929 47.9872 388.929 44.7205C388.929 40.34 390.669 36.1389 393.766 33.0415C396.864 29.944 401.065 28.2038 405.445 28.2038ZM405.445 26.6447C401.871 26.6447 398.378 27.7046 395.406 29.6903C392.434 31.6761 390.118 34.4985 388.751 37.8006C387.383 41.1028 387.026 44.7362 387.724 48.2415C388.421 51.7468 390.143 54.9664 392.671 57.4932C395.198 60.0199 398.419 61.7403 401.924 62.4368C405.43 63.1333 409.063 62.7745 412.365 61.4058C415.666 60.0372 418.488 57.7202 420.473 54.7479C422.457 51.7755 423.516 48.2814 423.515 44.7073C423.513 39.9162 421.608 35.3219 418.22 31.9347C414.831 28.5475 410.236 26.6447 405.445 26.6447Z" fill="#F4CCC7"/>
<path d="M61.3298 374.737C67.8374 374.777 77.0934 390.303 84.6118 413.803C88.8665 405.571 93.0485 401.428 96.4707 402.049C101.981 403.047 104.835 416.188 103.923 436.325C116.833 438.895 124.239 442.793 124.351 447.081C124.358 447.464 124.309 447.847 124.206 448.217H0C1.49311 445.363 6.11779 442.601 13.3851 440.223C6.08475 428.873 3.6601 420.634 6.7256 417.542C10.3262 413.915 21.0555 417.833 35.3325 427.994C32.789 418.368 33.0995 412.052 36.2112 410.156C39.9044 407.936 47.2246 412.138 56.3748 421.764C52.1465 395.476 53.7916 376.356 60.4115 374.797C60.7074 374.724 61.0118 374.69 61.3166 374.698L61.3298 374.737Z" fill="#56BB6A"/>
<path d="M54.7891 409.634C55.1723 413.525 55.7074 417.602 56.3813 421.797C56.3813 421.797 62.281 430.544 64.8378 436.662L67.4012 442.766C67.4012 442.766 65.5976 423.29 54.7891 409.634Z" fill="black"/>
<path d="M13.385 440.223L18.459 448.21C15.2697 446.642 12.5999 444.187 10.7688 441.141L13.4115 440.223H13.385Z" fill="black"/>
<path d="M176.9 374.738L174.786 426.197H160.714C160.714 426.197 155.065 388.341 155.052 374.738C155.039 361.134 173.993 362.185 176.9 374.738Z" fill="#F9B098"/>
<path d="M164.388 364.933C167.279 364.892 170.098 365.842 172.375 367.626C174.652 369.41 176.249 371.92 176.901 374.737C176.901 374.737 166.066 380.227 155.251 380.313C155.105 378.206 155.026 376.31 155.026 374.737C155.026 368.131 159.472 364.986 164.388 364.907V364.933Z" fill="black"/>
<path d="M175.757 400.504L174.786 426.237H160.714C160.714 426.237 159.089 413.968 157.582 400.504H175.757Z" fill="#EF9F34"/>
<path d="M105.363 375.14L94.4822 426.223H80.3835C80.3835 426.223 80.9319 388.744 83.4887 375.14C86.0455 361.537 104.848 362.528 105.363 375.14Z" fill="#F9B098"/>
<path d="M94.7132 365.31C99.9985 365.23 105.099 368.613 105.363 375.14C105.363 375.14 93.4711 380.631 82.6626 380.716C82.9203 378.609 83.1977 376.713 83.4884 375.14C84.7305 368.534 89.778 365.389 94.7198 365.31H94.7132Z" fill="black"/>
<path d="M99.9325 400.504L94.4754 426.237H80.3834C80.3834 426.237 80.2314 413.968 81.2621 400.504H99.9325Z" fill="#EF9F34"/>
<path d="M80.5024 416.948C82.0351 418.394 84.9156 419.954 88.6947 420.826L95.3608 422.352L94.4821 426.223H80.3835C80.246 423.14 80.2857 420.052 80.5024 416.974V416.948Z" fill="black"/>
<path d="M76.5713 431.766C78.1371 423.27 79.0224 421.585 85.2393 422.755C85.2393 422.755 84.0369 431.343 81.0242 432.467C78.0116 433.59 76.5713 431.766 76.5713 431.766Z" fill="white"/>
<path d="M97.9108 422.821C97.2502 429.17 109.426 439.959 110.556 441.425C113.767 445.574 111.316 448.21 111.316 448.21H73.5058C72.1316 441.656 73.4331 433.577 76.5647 431.766C82.2266 433.279 85.2326 422.755 85.2326 422.755H89.3618C90.2207 419.537 97.8976 417.912 97.8976 422.821H97.9108Z" fill="#8A4299"/>
<path d="M73.7109 436.84L80.2648 443.407H106.183C107.042 444.967 107.867 446.546 108.574 448.184H73.5061C72.7332 444.484 72.0395 440.111 73.7043 436.84H73.7109Z" fill="black"/>
<path d="M111.752 443.447C112.987 446.42 111.316 448.224 111.316 448.224H90.4785C90.4785 448.224 87.6509 448.224 90.3794 444.643C90.7624 444.185 91.2071 443.783 91.7008 443.447H111.752Z" fill="black"/>
<path d="M90.3068 426.005C89.9104 426.024 89.5221 426.123 89.1654 426.297C88.8088 426.471 88.4912 426.716 88.2323 427.016C86.9572 428.404 86.7193 430.908 87.162 432.744C87.2922 433.464 87.6192 434.134 88.1067 434.68C88.2079 434.783 88.3402 434.851 88.4833 434.872C88.658 434.856 88.8207 434.776 88.9392 434.647C91.0599 432.83 94.1518 428.661 94.8323 427.736C94.1796 427.199 93.446 426.769 92.6587 426.461C91.9172 426.14 91.1146 425.985 90.3068 426.005ZM90.2143 424.598C91.2314 424.56 92.2444 424.747 93.1807 425.147C94.3122 425.612 95.3712 426.237 96.3254 427.003C96.4625 427.117 96.5511 427.278 96.5732 427.455C96.5953 427.632 96.5492 427.81 96.4444 427.954C96.4444 427.954 92.5596 433.398 89.8377 435.717C89.4555 436.065 88.9602 436.262 88.4437 436.272C87.9645 436.258 87.5068 436.07 87.1554 435.744C86.4381 435.022 85.9546 434.101 85.768 433.101C85.2394 430.894 85.4244 428.001 87.1686 426.091C87.9452 425.227 89.0286 424.701 90.1878 424.625L90.2143 424.598Z" fill="#A86DAE"/>
<path d="M101.439 426.005C100.631 425.988 99.8294 426.143 99.0869 426.461C98.2968 426.766 97.5624 427.199 96.9133 427.743C97.574 428.661 100.686 432.83 102.806 434.647C102.864 434.712 102.934 434.766 103.012 434.805C103.09 434.843 103.175 434.866 103.262 434.871C103.407 434.855 103.541 434.787 103.639 434.68C104.113 434.129 104.43 433.46 104.557 432.744C105 430.907 104.755 428.403 103.487 427.016C103.228 426.715 102.91 426.471 102.554 426.297C102.197 426.123 101.809 426.024 101.412 426.005H101.439ZM101.531 424.598C102.691 424.673 103.775 425.199 104.551 426.065C106.301 427.974 106.48 430.868 105.958 433.074C105.771 434.075 105.288 434.995 104.57 435.717C104.208 436.046 103.739 436.234 103.249 436.246C102.733 436.241 102.238 436.043 101.862 435.691C99.153 433.372 95.255 427.934 95.255 427.934C95.1497 427.789 95.1034 427.61 95.1255 427.432C95.1476 427.254 95.2364 427.091 95.3739 426.976C96.3251 426.21 97.3821 425.584 98.5121 425.12C99.4507 424.721 100.466 424.533 101.485 424.572L101.531 424.598Z" fill="#A86DAE"/>
<path d="M98.479 432.975C98.5428 433.042 98.5927 433.121 98.6256 433.207C98.6586 433.293 98.674 433.385 98.6709 433.478C98.6678 433.57 98.6463 433.661 98.6077 433.745C98.5691 433.829 98.5141 433.904 98.446 433.966C98.3808 434.032 98.3032 434.085 98.2175 434.121C98.1319 434.157 98.04 434.175 97.9472 434.175C97.8543 434.175 97.7624 434.157 97.6768 434.121C97.5912 434.085 97.5135 434.032 97.4484 433.966C97.2847 433.777 97.0815 433.627 96.8531 433.525C96.6248 433.424 96.3769 433.373 96.127 433.378C95.8291 433.393 95.538 433.472 95.2743 433.611C95.0105 433.751 94.7806 433.946 94.6009 434.184C94.5425 434.263 94.4686 434.328 94.3836 434.377C94.2987 434.425 94.2046 434.455 94.1074 434.466C94.0101 434.476 93.9118 434.466 93.8187 434.436C93.7255 434.406 93.6396 434.358 93.5662 434.293C93.4928 434.228 93.4337 434.149 93.3925 434.06C93.3513 433.972 93.3289 433.876 93.3268 433.778C93.3247 433.68 93.3429 433.583 93.3803 433.492C93.4176 433.402 93.4733 433.321 93.5438 433.253C93.858 432.87 94.2492 432.557 94.6919 432.335C95.1347 432.114 95.6191 431.987 96.1138 431.964C96.5536 431.964 96.9885 432.056 97.3904 432.235C97.7922 432.413 98.1519 432.675 98.446 433.002L98.479 432.975Z" fill="#A86DAE"/>
<path d="M100.818 437.441C100.881 437.509 100.93 437.588 100.962 437.675C100.994 437.762 101.009 437.854 101.006 437.946C101.002 438.038 100.981 438.129 100.942 438.213C100.904 438.297 100.849 438.373 100.782 438.436C100.714 438.499 100.635 438.548 100.548 438.58C100.461 438.612 100.369 438.627 100.277 438.623C100.185 438.62 100.094 438.599 100.01 438.56C99.9259 438.522 99.8503 438.467 99.7874 438.399C99.6256 438.217 99.4273 438.071 99.2053 437.971C98.9833 437.871 98.7426 437.819 98.4991 437.818C98.2009 437.831 97.9093 437.91 97.6453 438.049C97.3814 438.189 97.1517 438.385 96.9729 438.624C96.9146 438.702 96.8406 438.768 96.7557 438.816C96.6707 438.865 96.5767 438.895 96.4794 438.905C96.3822 438.915 96.2839 438.905 96.1907 438.876C96.0976 438.846 96.0116 438.797 95.9383 438.733C95.8649 438.668 95.8058 438.589 95.7646 438.5C95.7234 438.411 95.701 438.315 95.6989 438.217C95.6968 438.12 95.715 438.023 95.7523 437.932C95.7897 437.842 95.8454 437.76 95.9159 437.692C96.2274 437.309 96.6172 436.996 97.0593 436.775C97.5013 436.554 97.9854 436.43 98.4793 436.411C98.9198 436.408 99.356 436.498 99.7591 436.675C100.162 436.853 100.523 437.114 100.818 437.441Z" fill="#A86DAE"/>
<path d="M173.181 189.09C173.181 189.09 181.241 295.279 181.994 305.836C182.417 311.782 179.497 347.544 177.991 365.297C182.338 372.148 177.627 375.392 177.125 375.306H155.25C154.464 375.51 147.085 374.097 152.139 365.957C149.232 355.71 145.096 336.776 143.345 307.964L137.016 262.926C137.016 262.926 128.771 291.533 122.726 314.115C119.178 333.551 114.573 355.076 110.173 366.757C112.717 375.411 107.689 375.022 105.337 375.114H85.398C82.4646 375.9 78.2826 374.533 83.4887 366.525C82.7619 356.133 84.1493 337.456 88.3908 310.712C88.3908 310.712 92.4606 284.186 94.3368 258.81C90.756 214.658 110.18 194.289 117.969 189.09H173.181Z" fill="#8A4299"/>
<path d="M144.858 266.143L143.325 266.421L143.464 267.187C143.464 267.187 147.018 287.007 150.685 307.237C152.522 317.345 154.378 327.546 155.832 335.414C156.558 339.345 157.193 342.682 157.662 345.153C158.131 347.624 158.415 349.117 158.573 349.632C158.718 350.304 158.824 350.983 158.891 351.667C159.003 352.684 159.128 353.986 159.247 355.466C159.492 358.426 159.73 362.072 159.948 365.686C160.166 369.3 160.351 372.742 160.483 375.332H162.035C161.897 372.722 161.712 369.234 161.494 365.594C161.276 361.954 161.031 358.326 160.787 355.34C160.668 353.847 160.549 352.539 160.423 351.489C160.359 350.719 160.238 349.954 160.06 349.203C160 348.985 159.65 347.32 159.181 344.862C158.712 342.404 158.071 339.061 157.351 335.13C155.891 327.268 154.048 317.068 152.205 306.96C148.538 286.75 144.977 266.91 144.977 266.91L144.838 266.143H144.858ZM106.916 200.658C106.625 201.088 106.328 201.524 106.037 201.979C109.611 203.496 113.318 204.677 117.11 205.507C115.933 206.88 114.527 208.037 112.954 208.93C110.279 210.482 106.348 211.823 100.891 211.572C100.673 212.068 100.454 212.583 100.23 213.098C102.414 213.24 104.607 213.123 106.764 212.748L94.2112 256.557C94.264 257.304 94.3169 258.057 94.3763 258.817C94.3763 259.213 94.3103 259.609 94.2839 260.012L95.0701 259.226L108.521 212.398C110.353 211.933 112.113 211.222 113.754 210.284C115.726 209.177 117.447 207.672 118.808 205.864C122.374 206.582 125.978 207.098 129.603 207.41C145.393 208.804 162.491 206.3 174.337 203.876C174.337 203.506 174.238 202.62 174.218 202.29C162.445 204.715 145.38 207.238 129.742 205.858C119.482 204.952 112.122 202.878 106.929 200.658H106.916Z" fill="#A96EAE"/>
<path d="M146.239 228.532C146.239 228.532 150.097 230.23 150.097 236.638C150.097 243.047 149.529 278.881 145.01 288.494C143.689 291.355 142.506 293.495 141.541 295.101L137.016 262.933L146.265 228.512L146.239 228.532Z" fill="black"/>
<path d="M159.762 419.002C164.678 420.898 172.315 422.649 174.905 423.211L174.786 426.256H160.714C160.714 426.256 160.331 423.356 159.789 418.989L159.762 419.002Z" fill="black"/>
<path d="M157.635 432.024C160.778 431.665 163.894 431.102 166.964 430.339C171.139 429.223 169.924 422.755 169.924 422.755C155.779 421.116 157.635 424.816 157.635 432.004V432.024Z" fill="white"/>
<path d="M155.098 448.21C151.96 442.786 153.367 438.096 157.635 432.024C165.629 431.297 168.649 429.85 169.924 422.775H173.478C173.478 422.775 178.215 418.434 180.686 425.979C183.157 433.524 200.975 434.858 207.886 438.756C215.701 443.196 215.695 448.21 209.822 448.21H155.098Z" fill="#8A4299"/>
<path d="M154.854 436.662C156.89 437.832 158.771 439.255 160.45 440.897C163.482 443.936 169.177 443.434 169.177 443.434H213.33C214.962 446.116 213.614 448.21 209.822 448.21H155.098C152.806 444.246 152.951 440.666 154.854 436.662Z" fill="black"/>
<path d="M177.733 427.009C176.296 427.032 174.914 427.566 173.835 428.516C172.764 429.405 172.04 430.642 171.787 432.011C171.669 432.723 171.711 433.452 171.91 434.145C172.109 434.839 172.46 435.48 172.937 436.021C173.313 436.522 173.827 436.903 174.417 437.118C174.867 437.244 175.348 437.212 175.778 437.025C177 436.384 178.037 435.44 178.79 434.283C180.006 432.58 181.017 430.74 181.803 428.8C180.71 427.726 179.263 427.09 177.733 427.009ZM187.973 423.759C188.504 423.758 189.032 423.836 189.539 423.99C190.223 424.2 190.846 424.572 191.354 425.075C191.863 425.577 192.242 426.196 192.459 426.877C192.889 428.265 192.314 431.436 191.369 433.418C190.917 433.279 190.484 433.084 190.081 432.837C190.953 431.006 191.402 428.271 191.112 427.307C190.956 426.846 190.696 426.428 190.353 426.084C190.009 425.74 189.59 425.48 189.13 425.325C185.655 423.878 183.408 428.806 183.395 428.846C182.479 431.054 181.323 433.155 179.946 435.109C178.922 436.51 177.733 437.752 176.313 438.327C175.591 438.622 174.791 438.668 174.04 438.459C173.181 438.165 172.427 437.625 171.873 436.906C171.272 436.206 170.83 435.384 170.578 434.497C170.326 433.609 170.269 432.678 170.413 431.766C170.737 430.044 171.652 428.489 173.001 427.371C174.35 426.253 176.047 425.641 177.799 425.642C179.515 425.679 181.166 426.299 182.483 427.399C182.935 426.421 183.629 425.575 184.5 424.94C185.371 424.305 186.389 423.903 187.458 423.772C187.637 423.772 187.815 423.772 187.993 423.772L187.973 423.759Z" fill="#A86DAE"/>
<path d="M189.235 429.474C189.33 429.479 189.422 429.504 189.507 429.547C189.592 429.589 189.668 429.648 189.73 429.72C189.791 429.792 189.838 429.876 189.866 429.966C189.895 430.057 189.905 430.152 189.896 430.247C189.89 430.341 189.865 430.433 189.824 430.517C189.782 430.602 189.723 430.677 189.652 430.738C189.58 430.8 189.497 430.847 189.408 430.876C189.318 430.905 189.223 430.915 189.129 430.907C188.888 430.876 188.642 430.896 188.408 430.967C188.175 431.037 187.959 431.157 187.775 431.317C187.563 431.527 187.398 431.78 187.293 432.059C187.188 432.339 187.145 432.638 187.167 432.936C187.167 433.123 187.093 433.303 186.96 433.435C186.828 433.568 186.648 433.643 186.46 433.643C186.273 433.643 186.093 433.568 185.961 433.435C185.828 433.303 185.753 433.123 185.753 432.936C185.738 432.444 185.826 431.955 186.011 431.5C186.197 431.045 186.476 430.633 186.83 430.293C187.16 430.002 187.546 429.783 187.964 429.65C188.383 429.517 188.825 429.473 189.262 429.52L189.235 429.474Z" fill="#A86DAE"/>
<path d="M193.886 432.143C193.981 432.147 194.074 432.17 194.159 432.211C194.245 432.253 194.321 432.311 194.383 432.383C194.445 432.455 194.491 432.539 194.519 432.629C194.548 432.72 194.557 432.815 194.547 432.909C194.542 433.004 194.518 433.096 194.477 433.181C194.435 433.266 194.377 433.341 194.305 433.403C194.233 433.465 194.15 433.512 194.06 433.54C193.97 433.569 193.875 433.579 193.781 433.57C193.538 433.541 193.293 433.563 193.059 433.634C192.826 433.706 192.61 433.826 192.426 433.986C192.213 434.195 192.048 434.448 191.943 434.728C191.838 435.008 191.796 435.307 191.819 435.605C191.819 435.792 191.744 435.972 191.611 436.105C191.479 436.237 191.299 436.312 191.112 436.312C190.924 436.312 190.744 436.237 190.612 436.105C190.479 435.972 190.405 435.792 190.405 435.605C190.391 435.114 190.48 434.625 190.665 434.17C190.851 433.715 191.129 433.304 191.482 432.962C191.812 432.673 192.198 432.456 192.617 432.324C193.035 432.192 193.477 432.148 193.913 432.196L193.886 432.143Z" fill="#A86DAE"/>
<path d="M110.199 366.809H100.95C100.95 366.809 99.6286 365.937 101.915 364.748C104.2 363.559 114.058 353.86 114.058 353.86C114.058 353.86 112.076 365.211 110.166 366.809H110.199Z" fill="black"/>
<path d="M152.125 365.984H157.133C157.133 365.984 158.104 365.158 155.627 363.341C153.149 361.524 149.483 355.578 149.483 355.578L152.125 366.004V365.984Z" fill="black"/>
<path d="M296.904 58.4691C298.14 63.0938 292.174 74.8735 289.802 76.8753C287.43 78.8771 275.201 79.366 269.804 79.6699C269.685 79.2405 257.991 85.4045 246.02 91.3637L246.766 72.3233L269.229 67.2163C269.229 67.2163 274.019 62.1556 276.344 59.8631C278.67 57.5706 282.29 52.1993 283.717 50.3363C285.145 48.4732 287.021 50.9969 286.089 54.0228C285.58 55.6753 285.189 57.3621 284.92 59.0703C284.92 59.0703 291.401 57.227 292.848 56.824C295.259 56.1633 296.468 56.9231 296.878 58.4691H296.904Z" fill="#F9B098"/>
<path d="M246.792 72.3234L253.96 87.2875L246.046 91.3638L246.792 72.3234Z" fill="black"/>
<path d="M269.282 67.2164L268.621 72.8784C268.621 72.8784 268.231 73.473 267.432 72.3102C266.632 71.1474 264.221 68.4254 264.221 68.4254L269.255 67.2164H269.282Z" fill="black"/>
<path d="M284.919 59.0702C284.919 59.0702 282.885 63.642 280.235 65.2012C277.586 66.7604 274.567 73.9484 275.822 76.1947C277.077 78.441 278.392 78.4211 278.61 78.1767C278.828 77.9322 279.515 71.134 281.781 68.3592C283.784 66.0588 285.996 63.9488 288.388 62.0564C289.623 61.0324 284.946 59.0834 284.946 59.0834L284.919 59.0702Z" fill="black"/>
<path d="M158.58 91.6545C157.734 91.8857 156.955 92.117 156.254 92.3152C136.17 98.6113 138.113 120.308 153.017 124.265L153.48 124.377C156.147 124.877 158.904 124.487 161.328 123.267C161.328 123.267 235.806 94.9975 241.005 93.141C239.684 88.774 239.551 82.4118 240.549 77.5228C241.005 75.2964 241.752 73.942 242.571 73.1294L225.043 76.5715C225.043 76.5715 167.354 89.1704 158.58 91.6281V91.6545Z" fill="#EF9F34"/>
<path d="M246.792 72.3232L249.812 89.9895C249.812 89.9895 247.717 100.025 243.932 97.8779C240.146 95.7307 239.043 84.9684 240.549 77.5755C242.055 70.1827 246.792 72.3563 246.792 72.3563V72.3232Z" fill="white"/>
<path d="M156.334 33.0137C156.334 33.0137 155.013 47.6937 159.637 56.3485C178.585 91.6215 143.24 84.8827 143.24 84.8827C143.24 84.8827 146.708 35.1476 156.307 33.0137H156.334Z" fill="#C84F49"/>
<path d="M170.188 185.403C170.466 185.403 179.048 195.578 174.562 196.219C149.456 199.793 136.844 200.797 110.688 196.219C106.222 195.439 113.721 183.864 113.992 183.871L170.148 185.403H170.188Z" fill="white"/>
<path d="M124.516 89.7583L85.8472 105.092C85.8472 105.092 111.415 150.077 114.137 171.087C114.137 181.657 108.429 186.355 113.172 189.096C137.756 192.076 147.606 194.051 173.181 189.096C175.903 176.656 173.181 175.526 172.738 167.374C172.738 167.374 176.042 109.268 176.042 105.092C171.073 102.225 148.617 90.5049 148.617 90.5049L124.542 89.7583H124.516Z" fill="#F48032"/>
<path d="M124.516 89.7583L148.591 90.4982C148.591 90.4982 157.034 94.9181 164.758 99.0143C158.64 113.423 151.696 120.156 147.745 120.744C143.795 121.332 120.414 111.422 106.731 96.8076L124.516 89.7583Z" fill="#F9B098"/>
<path d="M134.829 164.493C134.829 164.493 133.323 172.507 126.062 174.674C122.098 175.863 117.229 176.332 113.622 176.524C113.963 174.731 114.136 172.911 114.137 171.087C114.038 170.34 113.913 169.567 113.761 168.761C120.129 168.563 129.286 167.691 134.829 164.493Z" fill="black"/>
<path d="M126.868 87.5518C126.868 87.5518 133.039 122.065 134.168 142.995C135.298 163.925 139.454 169.957 129.266 170.902C125.278 171.33 121.267 171.519 117.255 171.47C112.961 171.318 104.101 172.031 106.526 160.615C102.238 149.522 94.535 130.647 91.3308 125.269C86.9968 117.916 83.5019 109.413 85.8142 105.092C88.1265 100.772 121.788 89.9962 126.835 87.5518H126.868Z" fill="#EF9F34"/>
<path d="M127.568 59.9556L126.815 87.0429C126.815 107.279 148.617 107.193 148.617 90.5313L144.653 71.5767L127.588 59.982L127.568 59.9556Z" fill="#F9B098"/>
<path d="M133.951 64.2963L144.634 71.5636L146.371 79.8946C142.962 80.1721 138.119 79.8946 134.354 76.9348C127.846 71.8411 133.951 64.3029 133.951 64.3029V64.2963Z" fill="black"/>
<path d="M154.107 36.6672L151.894 63.7546C151.894 63.7546 149.952 74.3583 142.03 74.3583C136.421 74.3583 127.562 63.8471 127.463 58.3767C127.363 52.9064 127.463 44.1129 127.463 35.5639C127.463 27.0148 155.211 23.0706 154.107 36.6936V36.6672Z" fill="#F9B098"/>
<path d="M149.483 48.8961C149.483 48.8961 152.37 52.5034 153.652 52.5034C154.933 52.5034 154.055 55.8728 151.491 55.7142C148.928 55.5557 147.441 46.8547 149.509 48.8961H149.483Z" fill="black"/>
<path d="M147.217 32.8088C147.217 32.8088 144.006 49.2132 136.467 53.8313C128.929 58.4494 124.681 54.5844 124.681 54.5844L129.775 58.8259C129.775 58.8259 141.277 58.3569 145.895 44.2186C150.513 30.0803 146.556 26.3013 146.556 26.3013L147.217 32.8088Z" fill="#C84F49"/>
<path d="M150.388 103.487C150.388 103.487 153.592 125.461 155.759 140.26C157.926 155.059 160.285 164.87 160.285 164.87C160.285 164.87 160.1 118.484 157.741 109.71C155.382 100.937 152.647 103.018 150.388 103.487Z" fill="black"/>
<path d="M148.591 90.505C148.591 90.505 175.797 101.419 177.132 103.15C178.261 104.617 178.037 142.909 177.006 158.144C176.815 160.919 179.609 162.604 178.988 165.015C177.132 171.959 164.229 169.818 161.811 169.019C159.393 168.219 159.168 164.619 159.168 159.954C159.168 155.29 156.367 105.819 154.9 102.087C153.434 98.3537 148.624 90.505 148.624 90.505H148.591Z" fill="#EF9F34"/>
<path d="M126.868 87.5518C126.868 87.5518 135.946 92.5795 143.629 92.6324C151.135 93.1014 146.847 86.508 147.494 84.9422C148.953 84.3538 150.528 84.1074 152.097 84.2219C153.666 84.3364 155.187 84.8088 156.545 85.6028C161.17 88.338 157.49 91.2648 158.904 93.0552C160.318 94.8456 164.559 101.538 151.637 107.385C138.714 113.232 123.823 107.385 118.828 101.73C113.833 96.0744 114.586 90.2275 115.432 87.7764C116.278 85.3254 126.901 85.6028 126.901 85.6028L126.862 87.5518H126.868Z" fill="white"/>
<path d="M135.133 91.3109C135.133 91.3109 132.662 98.8425 134.796 103.864C136.93 108.885 141.535 108.065 145.532 107.061C147.593 106.546 148.518 107.464 148.935 108.475C142.988 110.297 136.633 110.297 130.687 108.475C129.167 105.132 129.062 99.6618 135.133 91.2977V91.3109Z" fill="#CCDEF2"/>
<path d="M137.974 92.0179C137.974 92.0179 130.905 92.2029 131.367 104.181C131.83 116.159 137.122 125.487 136.461 130.198C135.8 134.908 135.708 134.162 135.708 134.162C132.637 135.299 129.346 135.718 126.089 135.384C122.94 135.083 119.922 133.98 117.322 132.18C117.322 132.18 120.526 129.636 119.204 122.567C117.883 115.498 114.771 103.989 117.13 95.5987C119.488 87.2082 126.749 84.6646 132.028 86.3494C137.307 88.0341 143.259 92.6323 143.259 92.6323C141.277 92.6852 139.712 92.2359 137.974 92.0113V92.0179Z" fill="white"/>
<path d="M134.38 18.7829C135.992 18.7448 137.604 18.831 139.203 19.0406L138.542 20.0316C141.984 19.2124 145.876 20.1241 150.018 24.1343C150.018 24.1343 155.508 18.0826 159.776 20.613C164.044 23.1433 156.308 33.0137 156.308 33.0137L154.107 36.6672C154.107 34.6125 153.447 30.1993 148.994 32.7494C145.466 34.7711 141.528 53.5473 130.495 51.0169C130.023 50.9098 129.558 50.7752 129.101 50.6139C128.956 53.6133 129.101 56.659 129.795 58.826C131.777 64.772 137.247 76.9217 131.4 83.8059C125.553 90.69 109.341 87.7699 105.852 79.756C102.364 71.7421 113.582 60.5239 112.921 52.4175C112.261 44.3111 108.957 33.0864 117.163 24.98C122.29 19.9127 129.63 18.8622 134.406 18.7829H134.38Z" fill="#C84F49"/>
<path d="M124.49 37.1363C124.49 37.1363 128.923 23.2622 137.974 21.5775C145.367 20.1967 150.044 24.1277 150.044 24.1277C150.044 24.1277 146.298 18.0958 136.487 18.664C126.676 19.2322 116.099 34.89 124.49 37.1627V37.1363Z" fill="black"/>
<path d="M158.58 91.6546C158.538 91.8978 158.544 92.1471 158.6 92.3877C158.656 92.6283 158.759 92.8553 158.904 93.0552C159.4 93.6843 159.813 94.3749 160.133 95.1099C159.629 95.5507 159.069 95.9238 158.468 96.2198C155.825 97.4816 150.467 96.9531 155.402 94.284C156.65 93.6574 157.737 92.7534 158.58 91.6414V91.6546Z" fill="black"/>
<path d="M127.971 141.522C127.968 141.659 127.992 141.796 128.042 141.924C128.092 142.052 128.168 142.169 128.264 142.268C128.36 142.366 128.475 142.444 128.601 142.498C128.728 142.551 128.864 142.579 129.002 142.579C129.206 142.579 129.405 142.518 129.575 142.405C129.744 142.292 129.876 142.131 129.954 141.943C130.032 141.754 130.053 141.547 130.013 141.347C129.973 141.147 129.875 140.964 129.731 140.819C129.587 140.675 129.403 140.577 129.203 140.537C129.003 140.498 128.796 140.518 128.608 140.596C128.419 140.674 128.258 140.806 128.145 140.976C128.032 141.145 127.971 141.344 127.971 141.548" fill="black"/>
<path d="M129.306 151.954C129.326 152.212 129.444 152.453 129.634 152.629C129.824 152.804 130.074 152.902 130.333 152.902C130.592 152.902 130.842 152.804 131.032 152.629C131.222 152.453 131.34 152.212 131.36 151.954C131.36 151.68 131.252 151.418 131.058 151.225C130.865 151.032 130.603 150.923 130.33 150.923C130.057 150.925 129.797 151.034 129.605 151.227C129.413 151.42 129.306 151.681 129.306 151.954Z" fill="black"/>
<path d="M130.37 162.749C130.37 163.022 130.478 163.284 130.671 163.478C130.865 163.671 131.127 163.78 131.4 163.78C131.535 163.78 131.669 163.753 131.794 163.701C131.918 163.649 132.032 163.573 132.127 163.477C132.222 163.382 132.297 163.268 132.348 163.143C132.399 163.018 132.425 162.884 132.424 162.749C132.424 162.477 132.316 162.217 132.124 162.025C131.932 161.833 131.672 161.725 131.4 161.725C131.128 161.725 130.867 161.833 130.674 162.025C130.481 162.216 130.371 162.477 130.37 162.749Z" fill="black"/>
<path d="M86.6001 174.046L105.495 187.26C105.495 187.26 111.342 182.126 114.593 180.283C117.843 178.44 132.979 186.401 134.617 188.211C136.256 190.021 132.536 192.38 128.46 191.679C124.972 191.078 124.575 191.098 124.047 190.946C124.047 190.946 121.497 195.406 120.334 197.17C114.883 205.454 109.763 201.986 96.6092 196C96.6092 196 87.8818 194.111 75.9897 188.403L86.6001 174.013V174.046Z" fill="#F9B098"/>
<path d="M87.6046 103.546L88.0604 103.421C103.025 99.6882 115.201 117.738 100.659 132.933C92.5001 141.522 68.4452 161.342 68.4452 161.342L83.079 171.595C81.9228 171.562 80.4363 171.965 78.5138 173.181C74.2987 175.824 69.8128 180.362 67.5665 184.333C62.6247 181.869 57.9274 179.424 54.2078 177.29C50.6534 175.255 42.4743 170.386 47.3963 160.113C48.7705 157.252 52.4703 151.564 55.5093 146.84L81.2754 108.297C82.8117 106.058 85.0396 104.385 87.6178 103.533L87.6046 103.546Z" fill="#EF9F34"/>
<path d="M124.047 190.979L117.969 189.09L122.118 194.375C122.891 193.417 124.245 192.36 124.047 190.999V190.979Z" fill="black"/>
<path d="M101.842 184.676L105.495 187.279L100.468 193.133C100.468 193.133 99.5627 194.236 99.2984 192.776C99.0804 191.58 100.25 186.89 101.842 184.676Z" fill="black"/>
<path d="M86.6004 174.046L75.9834 188.429C75.9834 188.429 67.3022 193.873 66.2253 189.658C65.1485 185.443 72.1714 177.185 78.5138 173.141C84.8562 169.098 86.6004 174.02 86.6004 174.02V174.046Z" fill="white"/>
<path d="M68.4454 161.342L60.5901 159.512C60.5901 159.512 59.8435 159.208 60.9865 158.25C62.1295 157.292 73.5392 157.074 73.5392 157.074L68.4454 161.342Z" fill="black"/>
<path d="M86.6001 174.046L80.3105 190.431L75.9897 188.436L86.6001 174.046Z" fill="black"/>
<path d="M329.779 408.59L330.083 421.5C324.256 424.426 315.244 424.043 309.49 421.5L306.907 408.59L317.57 406.516L329.779 408.59Z" fill="#F9B098"/>
<path d="M317.57 406.522L306.907 408.59C306.907 408.59 321.507 414.49 329.905 414.021L329.779 408.59L317.57 406.522Z" fill="black"/>
<path d="M473.58 395.152L486.556 393.078C489.674 398.449 489.548 407.421 487.163 413.466L474.247 417.793L471.849 407.52L473.58 395.152Z" fill="#F9B098"/>
<path d="M471.849 407.52L474.247 417.793C474.247 417.793 479.757 402.532 479.044 394.28L473.58 395.152L471.849 407.52Z" fill="black"/>
<path d="M492.369 390.745C491.989 394.033 491.398 397.292 490.599 400.504C489.429 404.871 482.671 403.602 482.671 403.602C480.946 388.823 484.818 390.759 492.343 390.745H492.369Z" fill="white"/>
<path d="M492.37 390.739C491.623 399.103 490.117 402.261 482.697 403.595V414.166C482.697 414.166 474.822 419.128 482.697 421.698C487.936 423.409 491.775 425.622 494.979 433.444C492.628 434.686 490.349 436.06 488.154 437.56C480.577 443.123 481.198 448.884 487.296 448.177L500.165 448.072L505.385 444.108L509.349 434.567L509.302 389.834C506.66 388.301 495.739 388.354 492.363 390.726L492.37 390.739Z" fill="#4F469C"/>
<path d="M290.317 317.827C291.639 333.822 298.972 371.097 303.471 393.903C296.085 403.239 306.325 408.623 306.907 408.59H329.779C335.778 408.59 340.535 405.082 335.904 390.422C338.612 373.812 336.472 355.532 333.155 344.063L377.988 355.208C372.557 380.406 367.041 409.317 366.096 426.666C366.096 442.885 375.768 451.586 393.884 446.73C406.872 442.766 437.006 434.878 460.895 425.199C471.829 429.916 474.419 418.593 474.241 418.011L473.58 395.152C469.266 392.774 467.429 385.777 454.421 393.936C436.953 393.646 417.615 397.121 412.396 402.32C412.396 402.32 450.206 338.123 445.541 301.753C445.541 301.753 379.045 303.735 366.922 301.753C353.576 299.56 327.487 296.613 316.05 295.001C298.298 292.504 289.505 307.878 290.344 317.847L290.317 317.827Z" fill="#4F469C"/>
<path d="M334.47 431.185C331.185 430.809 327.928 430.222 324.718 429.428C320.351 428.258 321.626 421.5 321.626 421.5C336.386 419.788 334.47 423.627 334.47 431.185Z" fill="white"/>
<path d="M337.113 448.111C340.416 442.436 338.916 437.541 334.47 431.185C326.112 430.425 322.955 428.919 321.627 421.5H311.056C311.056 421.5 306.101 413.618 303.518 421.5C300.934 429.381 282.31 434.125 275.109 438.228C266.936 442.852 266.943 448.138 273.081 448.138L337.113 448.111Z" fill="#4F469C"/>
<path d="M307.858 426.838C308.984 427.768 309.751 429.063 310.025 430.498C310.147 431.241 310.102 432.002 309.892 432.725C309.683 433.449 309.316 434.116 308.816 434.68C308.428 435.21 307.889 435.611 307.27 435.829C306.798 435.969 306.292 435.937 305.843 435.737C304.566 435.067 303.483 434.08 302.698 432.87C300.861 430.379 299.15 427.492 299.547 427.142C303.511 423.647 306.755 425.88 307.878 426.838H307.858ZM288.395 425.133C287.939 426.58 288.54 429.897 289.531 431.965C289.996 431.821 290.441 431.617 290.852 431.357C289.941 429.441 289.465 426.587 289.782 425.576C289.948 425.095 290.222 424.658 290.585 424.301C290.947 423.943 291.387 423.674 291.87 423.515C295.503 422.008 297.849 427.161 297.869 427.201C298.826 429.508 300.034 431.704 301.469 433.748C302.546 435.215 303.782 436.53 305.268 437.111C306.023 437.421 306.86 437.47 307.647 437.25C308.546 436.944 309.335 436.379 309.913 435.625C310.543 434.896 311.006 434.038 311.27 433.111C311.533 432.185 311.591 431.211 311.439 430.26C311.101 428.459 310.144 426.832 308.734 425.662C307.324 424.491 305.548 423.851 303.716 423.852C301.922 423.888 300.195 424.536 298.82 425.688C298.345 424.668 297.619 423.784 296.71 423.121C295.8 422.458 294.737 422.036 293.621 421.896C292.515 421.805 291.409 422.069 290.465 422.652C289.521 423.235 288.789 424.104 288.375 425.133H288.395Z" fill="#837AB9"/>
<path d="M337.35 436.034C335.224 437.264 333.259 438.756 331.503 440.474C328.332 443.645 322.373 443.117 322.373 443.117H269.394C267.689 445.918 269.09 448.105 273.061 448.105H337.112C339.511 443.956 339.359 440.216 337.363 436.028L337.35 436.034Z" fill="black"/>
<path d="M291.758 427.842C291.661 427.851 291.568 427.879 291.482 427.924C291.397 427.97 291.321 428.031 291.259 428.106C291.198 428.18 291.151 428.266 291.123 428.359C291.094 428.451 291.084 428.548 291.094 428.645C291.103 428.741 291.131 428.835 291.176 428.92C291.221 429.006 291.283 429.081 291.357 429.143C291.432 429.205 291.518 429.251 291.61 429.279C291.703 429.308 291.8 429.318 291.896 429.309C292.149 429.278 292.406 429.3 292.65 429.376C292.893 429.451 293.118 429.577 293.31 429.745C293.538 429.961 293.715 430.224 293.829 430.517C293.943 430.809 293.992 431.123 293.971 431.436C293.961 431.539 293.973 431.642 294.005 431.74C294.038 431.838 294.091 431.928 294.16 432.004C294.229 432.08 294.314 432.141 294.408 432.183C294.502 432.224 294.604 432.246 294.707 432.246C294.81 432.246 294.912 432.224 295.007 432.183C295.101 432.141 295.185 432.08 295.255 432.004C295.324 431.928 295.377 431.838 295.409 431.74C295.442 431.642 295.454 431.539 295.444 431.436C295.463 430.918 295.373 430.403 295.18 429.922C294.986 429.442 294.693 429.008 294.321 428.648C293.976 428.344 293.572 428.115 293.134 427.977C292.696 427.838 292.234 427.792 291.777 427.842H291.758Z" fill="#837AB9"/>
<path d="M286.902 430.63C286.706 430.649 286.527 430.745 286.402 430.897C286.278 431.049 286.218 431.244 286.238 431.439C286.257 431.635 286.353 431.814 286.505 431.939C286.657 432.063 286.852 432.123 287.047 432.103C287.299 432.072 287.554 432.094 287.796 432.168C288.039 432.242 288.263 432.366 288.454 432.533C288.682 432.749 288.859 433.012 288.973 433.305C289.088 433.597 289.136 433.911 289.115 434.224C289.105 434.327 289.117 434.43 289.15 434.528C289.182 434.626 289.235 434.715 289.304 434.792C289.374 434.868 289.458 434.929 289.552 434.971C289.647 435.012 289.749 435.034 289.852 435.034C289.955 435.034 290.057 435.012 290.151 434.971C290.245 434.929 290.33 434.868 290.399 434.792C290.468 434.715 290.521 434.626 290.554 434.528C290.586 434.43 290.598 434.327 290.588 434.224C290.607 433.706 290.517 433.191 290.323 432.711C290.13 432.23 289.837 431.796 289.465 431.436C289.118 431.129 288.711 430.899 288.269 430.761C287.827 430.622 287.362 430.577 286.902 430.63Z" fill="#837AB9"/>
<path d="M497.252 389.206C498.438 391.468 499.915 393.564 501.645 395.443C502.581 396.413 503.301 397.57 503.757 398.839C504.212 400.108 504.393 401.459 504.288 402.803L504.327 435.261C504.162 439.952 502.147 442.74 498.91 443.189L483.054 443.07C481.686 446.057 483.305 448.191 487.275 448.171L500.092 448.078H500.132C503.931 447.569 509.434 446.823 509.269 437.56V389.86C506.666 388.367 498.804 388.466 497.238 389.2L497.252 389.206Z" fill="black"/>
<path d="M336.762 364.953C333.287 373.086 326.747 385.539 324.87 386.755C323.552 387.625 322.576 388.926 322.109 390.435H335.917C337.204 382.009 337.493 373.46 336.776 364.966L336.762 364.953Z" fill="black"/>
<path d="M454.44 393.936L455.848 409.885C455.848 409.885 451.527 409.185 450.833 406.119C450.139 403.054 435.255 395.013 435.255 395.013C435.255 395.013 447.741 392.371 454.414 393.936H454.44Z" fill="black"/>
<path d="M484.587 419.273C484.278 417.834 484.465 416.333 485.117 415.013C485.77 413.694 486.849 412.634 488.181 412.006C488.875 411.71 489.627 411.572 490.381 411.603C491.135 411.634 491.873 411.832 492.541 412.184C493.146 412.438 493.661 412.866 494.021 413.413C494.263 413.837 494.35 414.333 494.266 414.814C494.127 415.891 493.314 417.271 492.237 418.56C490.804 420.212 489.185 421.695 487.414 422.98C486.052 422.136 485.046 420.822 484.587 419.286V419.273ZM483.827 430.505C483.956 431.045 484.168 431.562 484.455 432.037C484.838 432.679 485.372 433.217 486.009 433.607C486.647 433.997 487.369 434.227 488.115 434.277C489.621 434.376 492.495 433.22 494.272 431.766C494.083 431.287 493.849 430.827 493.572 430.392C491.927 431.714 489.271 432.876 488.207 432.804C487.701 432.757 487.212 432.593 486.778 432.326C486.345 432.059 485.98 431.696 485.71 431.264C483.384 428.1 487.831 424.592 487.864 424.565C489.877 423.087 491.723 421.392 493.367 419.511C494.53 418.117 495.521 416.597 495.726 415.018C495.852 414.213 495.7 413.388 495.296 412.68C494.788 411.877 494.052 411.244 493.182 410.863C492.324 410.424 491.38 410.178 490.417 410.143C489.453 410.107 488.494 410.283 487.606 410.658C485.954 411.39 484.613 412.681 483.82 414.305C482.984 415.966 482.77 417.872 483.219 419.676C483.68 421.41 484.72 422.935 486.166 423.997C485.286 424.698 484.599 425.612 484.172 426.653C483.744 427.693 483.589 428.826 483.721 429.943C483.721 430.135 483.787 430.32 483.827 430.498V430.505Z" fill="#837AB9"/>
<path d="M489.145 427.439C489.154 427.535 489.183 427.629 489.228 427.715C489.274 427.8 489.336 427.876 489.41 427.937C489.485 427.999 489.572 428.045 489.665 428.073C489.757 428.1 489.855 428.11 489.951 428.1C490.048 428.091 490.142 428.062 490.227 428.017C490.313 427.971 490.388 427.909 490.45 427.834C490.511 427.759 490.557 427.673 490.585 427.58C490.613 427.487 490.622 427.39 490.612 427.294C490.583 427.041 490.606 426.785 490.679 426.542C490.753 426.299 490.877 426.073 491.041 425.88C491.259 425.654 491.523 425.478 491.815 425.364C492.107 425.25 492.42 425.201 492.733 425.219C492.835 425.229 492.939 425.217 493.037 425.184C493.134 425.152 493.224 425.099 493.3 425.03C493.377 424.96 493.438 424.876 493.479 424.782C493.521 424.687 493.542 424.586 493.542 424.482C493.542 424.379 493.521 424.277 493.479 424.183C493.438 424.089 493.377 424.004 493.3 423.935C493.224 423.866 493.134 423.813 493.037 423.78C492.939 423.748 492.835 423.736 492.733 423.746C492.216 423.726 491.701 423.816 491.222 424.009C490.742 424.203 490.309 424.496 489.951 424.869C489.647 425.214 489.419 425.618 489.28 426.056C489.141 426.494 489.095 426.956 489.145 427.413V427.439Z" fill="#837AB9"/>
<path d="M491.24 430.419C491.249 430.515 491.277 430.609 491.322 430.694C491.368 430.78 491.43 430.856 491.505 430.917C491.58 430.978 491.666 431.024 491.759 431.052C491.852 431.08 491.949 431.089 492.046 431.079C492.142 431.07 492.236 431.042 492.321 430.996C492.407 430.951 492.483 430.889 492.544 430.814C492.605 430.739 492.651 430.653 492.679 430.56C492.707 430.467 492.716 430.37 492.706 430.273C492.676 430.022 492.699 429.767 492.773 429.524C492.847 429.282 492.97 429.058 493.136 428.866C493.352 428.639 493.616 428.462 493.908 428.347C494.2 428.233 494.514 428.185 494.827 428.205C495.022 428.205 495.209 428.128 495.348 427.991C495.486 427.854 495.565 427.667 495.567 427.472C495.567 427.276 495.489 427.087 495.35 426.949C495.211 426.81 495.023 426.732 494.827 426.732C494.311 426.713 493.796 426.804 493.317 426.997C492.837 427.191 492.404 427.483 492.046 427.855C491.74 428.198 491.51 428.602 491.371 429.041C491.232 429.479 491.187 429.942 491.24 430.399V430.419Z" fill="#837AB9"/>
<path d="M324.17 331.45H323.899C323.731 331.47 323.571 331.53 323.43 331.624C323.29 331.718 323.175 331.844 323.093 331.992C322.961 332.213 322.855 332.448 322.776 332.692C322.563 333.363 322.397 334.047 322.28 334.741C321.963 336.445 321.659 338.817 321.362 341.645C320.774 347.313 320.226 354.818 319.756 362.317C318.812 377.314 318.191 392.272 318.191 392.272C318.178 392.341 318.178 392.413 318.191 392.483L322.029 408.57H323.635L319.73 392.225C319.73 392.12 320.358 377.334 321.296 362.416C321.765 354.931 322.313 347.432 322.901 341.81C323.192 338.995 323.496 336.65 323.793 335.025C323.899 334.406 324.045 333.795 324.229 333.195C324.252 333.138 324.278 333.083 324.309 333.029C324.475 333.036 324.64 333.053 324.804 333.082C325.26 333.155 325.881 333.267 326.621 333.419C328.114 333.73 330.122 334.186 332.468 334.741C337.152 335.844 343.164 337.383 349.103 338.87C360.995 341.896 372.55 344.961 372.55 344.961C372.649 344.988 372.753 344.995 372.854 344.982C372.956 344.969 373.054 344.937 373.143 344.886C373.232 344.835 373.31 344.767 373.373 344.686C373.436 344.604 373.482 344.512 373.508 344.413C373.559 344.212 373.53 344 373.426 343.821C373.322 343.642 373.153 343.511 372.953 343.455C372.953 343.455 361.379 340.389 349.493 337.357C343.547 335.837 337.522 334.331 332.825 333.214C330.473 332.659 328.457 332.204 326.938 331.893C326.178 331.735 325.544 331.616 325.042 331.543C324.747 331.486 324.449 331.448 324.15 331.431L324.17 331.45ZM352.645 299.679C359.251 305.268 376.098 317.18 399.691 317.94C407.535 318.175 415.387 317.979 423.21 317.352C424.233 320.633 425.75 323.739 427.71 326.562C430.557 330.644 434.977 334.793 441.418 336.234C441.564 335.732 441.703 335.236 441.841 334.734C435.783 333.413 431.7 329.561 428.991 325.67C427.196 323.069 425.785 320.223 424.803 317.22C433.154 316.506 440.322 315.442 445.68 314.498C445.726 313.956 445.766 313.421 445.805 312.892C440.309 313.877 432.79 315 424.003 315.727C423.91 315.694 423.811 315.68 423.713 315.687H423.574L423.415 315.746C415.54 316.389 407.635 316.589 399.737 316.348C378.662 315.687 363.103 305.902 355.598 300.049L352.645 299.652V299.679Z" fill="#837AB9"/>
<path d="M431.271 329.389C431.096 329.384 430.924 329.439 430.785 329.545C430.646 329.65 430.547 329.801 430.504 329.971L411.662 402.122C411.635 402.221 411.628 402.324 411.642 402.426C411.655 402.528 411.689 402.625 411.741 402.714C411.792 402.803 411.861 402.88 411.943 402.942C412.025 403.003 412.118 403.048 412.217 403.074C412.317 403.1 412.42 403.107 412.522 403.094C412.624 403.081 412.723 403.047 412.812 402.996C412.901 402.944 412.979 402.875 413.041 402.793C413.104 402.712 413.149 402.618 413.175 402.519L432.011 330.367C432.038 330.268 432.044 330.164 432.03 330.062C432.016 329.96 431.982 329.862 431.93 329.773C431.878 329.685 431.808 329.607 431.726 329.546C431.643 329.484 431.549 329.44 431.449 329.416C431.39 329.405 431.33 329.405 431.271 329.416V329.389Z" fill="#837AB9"/>
<path d="M432.348 361.868C429.044 364.51 424.856 367.814 419.795 371.566C407.374 380.816 400.913 413.796 400.913 413.796L412.429 402.32C419.9 389.26 426.557 375.75 432.361 361.868H432.348Z" fill="black"/>
<path d="M377.988 355.208L381.377 335.884C371.718 344.016 346.85 343.508 333.148 344.063L377.981 355.208H377.988Z" fill="black"/>
<path d="M247.717 124.344C246.654 123.968 246.806 127.767 248.51 129.709C249.548 130.935 250.89 131.867 252.401 132.411C252.401 132.411 234.768 132.755 224.244 142.011C222.579 143.477 223.662 145.975 226.827 145.314C229.166 144.845 232.773 144.098 235.766 143.788C233.55 144.375 231.458 145.355 229.589 146.682C225.4 149.688 225.017 151.306 225.625 152.522C226.232 153.738 232.833 150.276 236.387 149.45C238.64 148.928 242.558 149.034 245.147 149.186C247.513 151.954 250.261 154.953 252.415 155.825C254.707 156.737 262.027 155.29 267.921 153.876C274.349 161.474 300.723 185.787 310.131 195.036C313.183 198.035 320.245 170.855 320.245 170.855L272.578 137.558C272.578 137.558 264.578 132.127 261.512 130.621C258.447 129.114 250.829 125.917 248.807 124.529C248.365 124.232 248.015 124.437 247.717 124.325V124.344Z" fill="#F9B098"/>
<path d="M252.401 132.398C252.401 132.398 253.723 138.469 257.092 141.436C260.462 144.402 263.177 151.068 263.177 151.068C263.177 151.068 256.815 143.768 254.833 143.101C252.851 142.433 245.451 142.361 245.451 142.361C244.553 142.268 239.895 138.357 252.401 132.398Z" fill="black"/>
<path d="M273.933 148.835C273.679 148.985 273.485 149.219 273.384 149.496C272.182 151.96 267.96 153.889 267.96 153.889C269.321 155.501 270.887 157.107 273.008 159.287C273.668 157.384 274.005 156.598 274.6 154.834C275.498 152.158 274.871 148.445 273.939 148.829L273.933 148.835Z" fill="black"/>
<path d="M353.041 234.253L304.238 189.625L320.246 170.835C320.246 170.835 360.487 190.913 370.655 194.943C394.439 204.371 371.527 251.424 353.041 234.253Z" fill="#F48032"/>
<path d="M305.585 190.411C311.201 191.62 320.245 170.816 320.245 170.816C314.154 173.042 303.332 181.743 299.666 184.98C301.06 186.473 302.896 188.185 304.237 189.605C304.585 190.003 305.046 190.284 305.559 190.411H305.585Z" fill="black"/>
<path d="M320.246 170.835L304.238 189.625C304.238 189.625 300.274 199.588 304.845 199.892C309.417 200.196 318.356 188.614 321.283 181.287C324.21 173.96 320.246 170.835 320.246 170.835Z" fill="white"/>
<path d="M367.735 289.591C367.437 289.591 361.908 300.822 366.724 301.483C393.666 305.222 420.443 307.257 446.876 302.467C451.395 301.648 441.267 289.557 440.97 289.557L367.735 289.591Z" fill="white"/>
<path d="M397.894 191.211L441.366 207.238C441.366 207.238 436.047 259.563 439.714 276.225C447.087 281.511 449.69 292.194 445.27 295.054C420.165 298.173 394.723 300.241 367.007 295.054C360.229 294.466 357.408 285.144 360.341 275.69C360.341 275.69 347.927 211.605 347.128 207.238C351.753 204.239 372.894 191.984 372.894 191.984L397.894 191.211Z" fill="#F48032"/>
<path d="M393.5 160.02L394.287 188.31C394.287 209.452 371.52 209.379 371.52 191.957L375.662 172.137L393.5 160.014V160.02Z" fill="#F9B098"/>
<path d="M386.828 164.586L375.663 172.17L373.839 180.884C377.407 181.168 382.467 180.884 386.392 177.786C393.197 172.461 386.815 164.572 386.815 164.572L386.828 164.586Z" fill="black"/>
<path d="M367.285 135.701V163.984C367.285 163.984 366.79 174.04 378.371 175.07C389.953 176.101 393.501 164.084 393.567 158.369C393.633 152.654 393.567 143.457 393.567 134.519C393.567 125.58 367.252 121.404 367.252 135.695L367.285 135.701Z" fill="#F9B098"/>
<path d="M370.609 148.492C370.609 148.492 367.589 152.264 366.248 152.264C364.907 152.264 365.832 155.779 368.514 155.614C371.197 155.448 372.742 146.364 370.609 148.492Z" fill="black"/>
<path d="M388.579 207.846L394.604 203.942C394.604 203.942 392.477 199.423 390.25 200.017C388.024 200.612 386.709 205.415 388.579 207.846Z" fill="black"/>
<path d="M381.113 207.991L373.601 204.08C373.601 204.08 374.017 199.561 376.462 200.156C378.906 200.751 382.051 205.554 381.086 207.991H381.113Z" fill="black"/>
<path d="M401.428 192.499C401.25 196.569 400.345 202.264 397.563 209.432C397.563 209.432 411.603 202.706 415.402 197.645L401.442 192.499H401.428Z" fill="black"/>
<path d="M385.54 213.125C385.406 213.121 385.275 213.164 385.169 213.246C385.063 213.328 384.989 213.444 384.958 213.574C382.315 224.971 383.584 240.364 385.407 253.029C386.319 259.358 387.389 265.007 388.123 269.11C388.499 271.164 388.783 272.829 389.001 273.985C389.094 274.567 389.16 275.023 389.18 275.307C389.185 275.384 389.185 275.461 389.18 275.538C384.555 279.502 383.379 286.281 384.985 291.817C385.687 293.81 386.496 295.764 387.409 297.67L389.054 297.783C388.03 295.811 387.147 293.769 386.412 291.672C384.945 286.617 386.035 280.136 390.409 276.555C390.506 276.494 390.583 276.404 390.629 276.298C390.675 276.192 390.688 276.074 390.666 275.961C390.686 275.796 390.686 275.63 390.666 275.465C390.666 275.095 390.574 274.62 390.475 274.019C390.283 272.829 389.973 271.158 389.596 269.11C388.83 265.007 387.792 259.385 386.881 253.089C385.07 240.496 383.828 225.202 386.418 214.149C386.448 213.946 386.407 213.738 386.302 213.562C386.198 213.385 386.036 213.249 385.843 213.178C385.759 213.145 385.67 213.125 385.579 213.118H385.526L385.54 213.125Z" fill="black"/>
<path d="M372.881 185.198C361.954 188.284 370.033 210.403 373.793 209.775C376.482 209.326 373.244 200.684 376.528 201.101C379.336 201.457 380.683 206.201 381.014 207.588C381.014 207.694 381.113 207.991 381.113 207.991C381.635 210.76 381.688 217.901 385.017 218.1C387.66 218.278 387.422 201.378 390.547 200.962C393.672 200.546 393.784 208.52 396.572 209.636C399.361 210.753 405.161 200.017 403.536 193.78C401.911 187.544 394.181 185.192 394.181 185.192C394.227 185.456 394.762 192.67 388.73 196.575C386.517 198.015 385.638 201.021 385.705 203.578C384.597 203.861 383.436 203.861 382.329 203.578C381.267 200.724 379.281 198.307 376.686 196.714C372.762 194.474 372.881 185.172 372.881 185.172V185.198Z" fill="white"/>
<path d="M390.303 227.237C390.336 227.367 390.338 227.504 390.309 227.635C390.28 227.766 390.221 227.889 390.137 227.994C390.052 228.098 389.944 228.181 389.822 228.237C389.699 228.293 389.565 228.319 389.431 228.314C389.129 228.301 388.84 228.189 388.609 227.994C388.378 227.799 388.219 227.532 388.156 227.237C388.124 227.107 388.123 226.971 388.152 226.841C388.182 226.71 388.241 226.588 388.326 226.485C388.41 226.381 388.518 226.298 388.639 226.243C388.761 226.188 388.894 226.162 389.028 226.167C389.329 226.179 389.617 226.29 389.848 226.484C390.079 226.678 390.239 226.942 390.303 227.237Z" fill="black"/>
<path d="M390.99 241.719C391.023 241.848 391.025 241.984 390.997 242.114C390.968 242.245 390.91 242.367 390.826 242.471C390.741 242.575 390.634 242.658 390.513 242.713C390.391 242.768 390.258 242.794 390.125 242.789C389.822 242.779 389.531 242.669 389.299 242.475C389.067 242.281 388.906 242.015 388.843 241.719C388.81 241.589 388.807 241.453 388.836 241.321C388.865 241.19 388.924 241.068 389.009 240.964C389.094 240.86 389.202 240.777 389.325 240.722C389.447 240.667 389.581 240.642 389.715 240.648C390.018 240.653 390.31 240.763 390.542 240.957C390.774 241.152 390.932 241.421 390.99 241.719Z" fill="black"/>
<path d="M392.45 257.363C392.483 257.493 392.485 257.629 392.457 257.76C392.428 257.891 392.368 258.014 392.284 258.118C392.199 258.222 392.091 258.305 391.968 258.36C391.846 258.414 391.712 258.44 391.578 258.433C391.275 258.428 390.983 258.319 390.751 258.124C390.519 257.929 390.36 257.661 390.303 257.363C390.27 257.233 390.268 257.098 390.297 256.967C390.325 256.836 390.384 256.714 390.467 256.609C390.551 256.505 390.658 256.421 390.78 256.365C390.902 256.309 391.035 256.282 391.168 256.286C391.471 256.297 391.762 256.409 391.994 256.604C392.227 256.799 392.387 257.067 392.45 257.363Z" fill="black"/>
<path d="M395.832 271.554C395.865 271.685 395.868 271.821 395.839 271.952C395.81 272.084 395.751 272.206 395.666 272.311C395.581 272.415 395.473 272.499 395.351 272.554C395.229 272.61 395.095 272.636 394.96 272.631C394.658 272.62 394.368 272.508 394.137 272.312C393.906 272.117 393.747 271.85 393.685 271.554C393.652 271.425 393.65 271.289 393.679 271.159C393.707 271.028 393.766 270.906 393.85 270.802C393.934 270.698 394.041 270.615 394.163 270.56C394.284 270.505 394.417 270.479 394.551 270.484C394.853 270.496 395.142 270.607 395.374 270.801C395.606 270.994 395.767 271.259 395.832 271.554Z" fill="black"/>
<path d="M391.182 160.073C391.182 160.073 391.32 167.182 389.305 170.736C387.29 174.291 382.124 177.343 373.066 176.524C364.008 175.705 362.68 171.298 363.024 167.466C363.367 163.634 367.14 163.35 367.067 161.52C366.994 159.69 368.045 157.966 369.928 157.893C371.811 157.82 372.782 159.287 371.811 159.498C370.84 159.71 369.789 158.316 369.789 160.615C369.789 162.914 371.665 165.841 375.074 165.24C378.483 164.638 380.168 158.897 378.424 159.247C376.68 159.598 374.731 160.43 374.731 159.525C374.731 158.62 377.446 157.087 383.161 156.737C388.876 156.387 388.81 162.802 389.226 161.474C389.386 161.074 389.658 160.73 390.01 160.483C390.362 160.235 390.778 160.095 391.208 160.08L391.182 160.073Z" fill="#C84F49"/>
<path d="M370.806 133.66C371.156 130.522 374.711 125.646 376.871 130.171C379.032 134.697 377.149 142.096 381.82 144.396C386.491 146.695 389.232 146.146 389.232 146.146C389.232 146.146 390.071 152.627 391.531 153.467C392.992 154.306 399.684 149.839 399.684 149.839C399.684 149.839 404.012 145.314 404.778 139.738C405.544 134.162 401.693 128.216 396.533 123.056C384.819 111.342 371.249 122.521 371.249 122.521C371.249 122.521 367.206 119.733 364.556 123.988C361.907 128.242 363.374 137.016 364.629 140.432C365.343 142.413 366.278 144.308 367.417 146.08L367.278 135.714C367.278 133.481 369.379 133.673 370.833 133.673L370.806 133.66Z" fill="#C84F49"/>
<path d="M398.396 156.003C399.578 157.985 400.662 159.657 402.241 160.344C403.82 161.031 397.781 169.223 394.412 165.795C391.042 162.366 394.154 157.087 398.376 156.003H398.396Z" fill="#C84F49"/>
<path d="M400.841 156.149C399.374 159.452 396.15 161.176 393.639 160.053C391.129 158.93 390.276 155.363 391.743 152.079C393.21 148.796 396.44 147.045 398.951 148.168C401.462 149.291 402.314 152.865 400.841 156.149Z" fill="#F9B098"/>
<path d="M394.313 156.453C394.313 156.281 394.016 153.367 395.423 151.94C396.83 150.513 398.726 151.696 398.501 152.264C398.277 152.832 396.823 152.806 397.18 153.691C397.537 154.576 397.709 158.408 394.319 156.453H394.313Z" fill="black"/>
<path d="M375.794 128.401C375.794 128.401 379.428 130.257 378.794 136.824C378.16 143.391 381.285 150.613 389.034 147.745C396.784 144.878 395.436 141.317 395.436 141.317C395.436 141.317 391.056 147.468 385.341 147.025C379.626 146.582 379.58 137.32 380.716 134.089C381.853 130.859 378.345 127.179 375.768 128.401H375.794Z" fill="#C84F49"/>
<path d="M467.033 257.429L444.57 293.535C444.57 293.535 432.07 287.589 428.232 286.882C424.393 286.175 412.501 304.376 411.51 306.742C410.519 309.107 414.853 308.823 418.606 306.662C422.358 304.502 423.23 304.608 423.23 304.608C424.722 306.589 426.468 308.367 428.423 309.893C436.655 316.202 444.24 313.229 455.174 302.804C455.174 302.804 480.16 279.37 491.768 266.025C494.583 262.794 500.984 255.176 492.601 246.746C490.268 244.394 484.673 240.047 480.048 236.427C473.89 231.604 467.026 257.396 467.026 257.396L467.033 257.429Z" fill="#F9B098"/>
<path d="M441.392 207.238L480.054 236.46L467.033 257.429C467.033 257.429 440.507 251.193 429.85 248.735C404.903 242.974 420.541 193.021 441.392 207.238Z" fill="#F48032"/>
<path d="M423.244 304.607L428.595 300.643L425.642 307.455C424.552 306.794 423.541 306.021 423.27 304.607H423.244Z" fill="black"/>
<path d="M447.1 289.472L444.57 293.535L451.54 297.591C451.54 297.591 452.815 298.364 452.577 296.831C452.379 295.576 449.426 291.11 447.1 289.472Z" fill="black"/>
<path d="M478.601 235.865C472.866 235.508 467.032 257.429 467.032 257.429C472.721 254.317 481.679 243.958 484.818 240.206C483.219 238.937 481.587 237.662 480.054 236.46C479.643 236.116 479.135 235.908 478.601 235.865Z" fill="black"/>
<path d="M467.033 257.429L480.055 236.46C480.055 236.46 482.453 226.021 477.914 226.398C473.375 226.774 466.24 239.571 464.45 247.229C462.659 254.886 467.033 257.403 467.033 257.403V257.429Z" fill="white"/>
<path d="M52.7872 40.6113C56.3482 42.6594 69.3039 52.6487 67.8966 55.0337C66.4894 57.4187 51.3799 51.2216 47.852 49.1669C44.324 47.1123 41.8267 44.7273 43.888 41.1729C45.9492 37.6185 49.2394 38.5302 52.7938 40.6113H52.7872Z" fill="#F48032"/>
<path d="M44.1589 81.9296C48.1956 81.1896 64.5075 80.41 65.0096 83.1122C65.5117 85.8143 49.986 90.9015 45.9427 91.648C41.8994 92.3946 38.4838 92.17 37.7372 88.1333C36.9907 84.0966 40.1156 82.6695 44.1589 81.9296Z" fill="#F48032"/>
<path d="M79.2274 10.346C81.031 14.0325 86.1909 29.5054 83.72 30.7408C81.2491 31.9763 72.1847 18.3797 70.3546 14.6734C68.5246 10.9671 67.8309 7.63068 71.5174 5.82706C75.2039 4.02344 77.4172 6.63968 79.2274 10.3262V10.346Z" fill="#F48032"/>
<path d="M290.746 42.3025C294.301 42.3025 295.318 45.1896 295.774 48.7044L299.672 78.593C300.128 82.1143 294.545 80.8657 290.998 80.8657C287.45 80.8657 280.909 82.1077 281.438 78.593L285.917 48.7044C286.446 45.1962 287.199 42.3025 290.746 42.3025Z" fill="#EF9F34"/>
<path d="M322.089 4.67095C325.089 5.04732 327.841 6.52708 329.81 8.82195C331.779 11.1168 332.823 14.0624 332.738 17.0849C332.728 18.5457 332.409 19.9878 331.802 21.3165C331.196 22.6453 330.314 23.8307 329.217 24.7949C327.235 26.6183 324.804 27.8141 322.544 28.9175C320.528 29.8004 318.599 30.871 316.783 32.1151C315.416 33.1854 314.801 34.031 314.801 35.4845C314.801 37.2022 315.462 37.6779 316.255 38.1272C316.77 38.4192 317.334 38.614 317.92 38.7019C318.503 38.7604 319.039 39.0478 319.411 39.5011C319.782 39.9544 319.959 40.5366 319.902 41.12C319.842 41.7025 319.554 42.2377 319.101 42.6089C318.648 42.9801 318.067 43.1574 317.484 43.102C316.267 42.9495 315.092 42.5565 314.028 41.9458C312.906 41.275 311.979 40.3231 311.337 39.1842C310.695 38.0453 310.361 36.7587 310.368 35.4515C310.41 34.1053 310.76 32.7868 311.393 31.5978C312.025 30.4087 312.922 29.3809 314.015 28.5937C315.997 27.0412 318.349 25.9511 320.562 24.9072C322.583 24.0239 324.478 22.8776 326.198 21.4982C326.867 20.9708 327.403 20.2938 327.764 19.5216C328.124 18.7494 328.298 17.9036 328.272 17.0519C328.272 8.66139 319.618 7.26077 316.704 10.65C314.861 12.7972 315.099 14.3233 315.634 15.7636C315.973 16.6627 316.482 17.4882 317.134 18.1948C317.352 18.3957 317.527 18.6384 317.65 18.9084C317.772 19.1785 317.84 19.4704 317.847 19.7669C317.855 20.0634 317.802 20.3584 317.694 20.6343C317.585 20.9102 317.422 21.1615 317.214 21.3732C317.007 21.5849 316.758 21.7527 316.485 21.8666C316.211 21.9805 315.917 22.0383 315.62 22.0364C315.324 22.0344 315.031 21.973 314.758 21.8555C314.486 21.7381 314.24 21.5672 314.035 21.3528C312.914 20.1897 312.044 18.8091 311.478 17.2963C310.905 15.6865 310.776 13.9517 311.106 12.2749C311.436 10.5981 312.213 9.04156 313.354 7.76948C314.428 6.56397 315.785 5.64598 317.304 5.09904C318.822 4.5521 320.453 4.39358 322.049 4.63792L322.089 4.67095Z" fill="#F48032"/>
<path d="M293.713 43.3463C291.15 43.6106 288.824 43.9277 287.192 44.1986C286.494 45.6096 286.062 47.1369 285.917 48.7043L285.626 50.6467C287.168 51.7235 288.866 52.5568 290.661 53.1176C294.764 54.3465 295.028 58.5483 297.307 60.4378L295.774 48.7043C295.484 46.4713 294.962 44.4893 293.713 43.3463Z" fill="black"/>
<path d="M271.812 1.53118e-05H309.285C310.038 -0.00172705 310.783 0.145249 311.479 0.43249C312.175 0.719731 312.807 1.14158 313.339 1.67382C313.871 2.20606 314.293 2.83821 314.58 3.53395C314.868 4.22969 315.015 4.97531 315.013 5.72801V33.8328C315.013 59.5989 266.084 57.0751 266.084 33.8328V5.72801C266.082 4.97531 266.229 4.22969 266.516 3.53395C266.803 2.83821 267.225 2.20606 267.758 1.67382C268.29 1.14158 268.922 0.719731 269.618 0.43249C270.313 0.145249 271.059 -0.00172705 271.812 1.53118e-05Z" fill="#EF9F34"/>
<path d="M278.676 78.692H302.335C303.036 78.692 303.708 78.9704 304.204 79.466C304.699 79.9616 304.978 80.6338 304.978 81.3347V85.6753C304.978 86.3762 304.699 87.0483 304.204 87.5439C303.708 88.0395 303.036 88.318 302.335 88.318H278.676C277.975 88.318 277.303 88.0395 276.808 87.5439C276.312 87.0483 276.034 86.3762 276.034 85.6753V81.3347C276.034 80.6338 276.312 79.9616 276.808 79.466C277.303 78.9704 277.975 78.692 278.676 78.692Z" fill="#F48032"/>
<path d="M259.028 4.671C256.028 5.04737 253.275 6.52713 251.306 8.822C249.338 11.1169 248.294 14.0625 248.378 17.0849C248.387 18.5447 248.703 19.9862 249.308 21.3149C249.913 22.6436 250.791 23.8295 251.886 24.7949C253.868 26.6184 256.299 27.8142 258.559 28.9175C260.575 29.8004 262.504 30.871 264.32 32.1151C265.688 33.1854 266.302 34.0311 266.302 35.4845C266.302 37.2023 265.641 37.678 264.848 38.1272C264.333 38.4192 263.769 38.6141 263.184 38.702C262.6 38.7604 262.064 39.0479 261.693 39.5012C261.321 39.9545 261.144 40.5367 261.202 41.12C261.26 41.702 261.547 42.2372 261.998 42.6085C262.45 42.9799 263.031 43.1574 263.613 43.102C264.832 42.9504 266.009 42.5574 267.075 41.9459C268.197 41.275 269.125 40.3232 269.767 39.1843C270.408 38.0454 270.742 36.7588 270.735 35.4515C270.686 34.1108 270.332 32.799 269.698 31.6162C269.065 30.4334 268.17 29.4109 267.082 28.6268C265.1 27.0742 262.741 25.9841 260.534 24.9403C258.514 24.057 256.619 22.9107 254.899 21.5312C254.23 21.0039 253.693 20.3269 253.333 19.5547C252.973 18.7825 252.798 17.9366 252.824 17.0849C252.824 8.69446 261.472 7.29385 264.393 10.6831C266.236 12.8302 265.998 14.3564 265.463 15.7966C265.124 16.6958 264.615 17.5213 263.963 18.2279C263.745 18.4288 263.569 18.6714 263.447 18.9415C263.324 19.2116 263.257 19.5035 263.25 19.8C263.242 20.0965 263.294 20.3914 263.403 20.6674C263.512 20.9433 263.675 21.1946 263.882 21.4063C264.09 21.618 264.338 21.7858 264.612 21.8997C264.886 22.0136 265.18 22.0713 265.476 22.0694C265.773 22.0675 266.066 22.006 266.338 21.8886C266.611 21.7712 266.857 21.6002 267.062 21.3859C268.181 20.2214 269.051 18.8411 269.618 17.3294C270.192 15.7196 270.321 13.9847 269.99 12.308C269.66 10.6312 268.883 9.07464 267.742 7.80257C266.669 6.59706 265.311 5.67905 263.793 5.13211C262.274 4.58518 260.643 4.42667 259.048 4.671H259.028Z" fill="#EF9F34"/>
<path d="M298.08 35.0816C297.155 35.7422 292.326 33.2053 291.183 33.2119C290.04 33.2185 285.237 35.8545 284.312 35.1939C283.387 34.5332 284.312 29.1422 283.962 28.0521C283.612 26.962 279.615 23.2226 279.958 22.1061C280.302 20.9895 285.719 20.243 286.638 19.5691C287.556 18.8952 289.888 13.9402 291.031 13.9336C292.174 13.927 294.585 18.8358 295.51 19.4964C296.435 20.1571 301.866 20.8178 302.229 21.9343C302.593 23.0508 298.668 26.8298 298.318 27.9199C297.968 29.01 298.979 34.3813 298.08 35.0617V35.0816Z" fill="black"/>
<path d="M298.08 32.1216C297.155 32.7823 292.326 30.2387 291.183 30.252C290.04 30.2652 285.237 32.8946 284.312 32.234C283.387 31.5733 284.312 26.1756 283.962 25.0921C283.612 24.0086 279.615 20.2627 279.958 19.1461C280.302 18.0296 285.719 17.3161 286.638 16.6554C287.556 15.9947 289.888 11.0331 291.031 11.0199C292.174 11.0067 294.585 15.9221 295.51 16.5893C296.435 17.2566 301.866 17.9437 302.229 19.0272C302.593 20.1107 298.668 23.9161 298.318 25.0129C297.968 26.1096 298.979 31.4742 298.08 32.1547V32.1216Z" fill="white"/>
</svg>
